<svg xmlns="http://www.w3.org/2000/svg" width="343.42" height="311.68"><defs><marker id="b" orient="auto" refX="0" refY="0" style="overflow:visible"><path d="M8.72 4.03-2.21.02 8.72-4a6.84 6.84 0 0 0 0 8.03z" style="fill:#000;fill-opacity:1;fill-rule:evenodd;stroke:#000;stroke-width:.625;stroke-linejoin:round;stroke-opacity:1" transform="scale(-.6)"/></marker><marker id="c" orient="auto" refX="0" refY="0" style="overflow:visible"><path d="M8.72 4.03-2.21.02 8.72-4a6.84 6.84 0 0 0 0 8.03z" style="fill:#000;fill-opacity:1;fill-rule:evenodd;stroke:#000;stroke-width:.625;stroke-linejoin:round;stroke-opacity:1" transform="scale(-.6)"/></marker><marker id="a" orient="auto" refX="0" refY="0" style="overflow:visible"><path d="M8.72 4.03-2.21.02 8.72-4a6.84 6.84 0 0 0 0 8.03z" style="fill:#000;fill-opacity:1;fill-rule:evenodd;stroke:#000;stroke-width:.625;stroke-linejoin:round;stroke-opacity:1" transform="scale(-.6)"/></marker></defs><text xml:space="preserve" x="-12109.4" y="895.31" style="font-style:normal;font-weight:400;font-size:33.5952px;line-height:125%;font-family:Sans;letter-spacing:0;word-spacing:0;fill:#000;fill-opacity:1;stroke:none;stroke-width:1" transform="translate(12244.9 -866.18)"><tspan x="-12109.4" y="895.31" style="font-size:25.1758px;stroke-width:1">Piedra</tspan></text><g style="stroke-width:1.34265"><path d="M24.4 7.8C21.7 9.5 18.2 13.3 14 15c-3.9 1.5-12 2.3-12 2.3v31s14.8-1 19.6 2.9l2.8-43.4" style="fill:#ffdd67;stroke-width:1.34265" transform="translate(151.22 33.94) scale(.7448)"/><path d="M21.3 48.3S11.1 45.5 2 45.5v2.7c6.6 0 19.6 2.9 19.6 2.9l-.3-2.8" style="fill:#eba352;stroke-width:1.34265" transform="translate(151.22 33.94) scale(.7448)"/><path d="M46.1 14.1s-6.5-6.5-9.4-7.9C26.1.9 16.5 13.8 16.8 24.7c.2 6.3 1.1 15.9 2.5 22 2.1 9 14.9 9.3 20.5 8.7l6.3-41.3" style="fill:#ffdd67;stroke-width:1.34265" transform="translate(151.22 33.94) scale(.7448)"/><path d="M39.8 54.2c-10.9 0-18.1-3.3-21.4-8.4.5 6.8 9.8 11 21.4 10v-1.6" style="fill:#eba352;stroke-width:1.34265" transform="translate(151.22 33.94) scale(.7448)"/><path d="M33.8 6.2C51.8 4 58.9 13.5 60.9 17c1.8 3.1 1.1 6.1-.7 8-2 2.1-12.2 4.8-12.2 4.8S27 7 33.8 6.2Z" style="fill:#ffdd67;stroke-width:1.34265" transform="translate(151.22 33.94) scale(.7448)"/><path d="M27 36c6.9-.6 9.5-6 10.6-8.5l.9 4s-1.7 5.2-8.4 5.4c-1.7.1-3.3-.2-4.7-.9.5.1 1.1.1 1.6 0" style="fill:#eba352;stroke-width:1.34265" transform="translate(151.22 33.94) scale(.7448)"/><path d="m49.4 46.2-3.2 3.1-4.2-.4c-4.9-.4-5.5 8.9-.6 9.3l5.9.6c1.1.1 1.9-.1 2.8-1.1l4.5-4.4c3.9-3.7-1.4-10.8-5.2-7.1" style="fill:#ffdd67;stroke-width:1.34265" transform="translate(151.22 33.94) scale(.7448)"/><path d="m54.8 52-4.5 4.4c-.9.9-1.7 1.1-2.8 1.1l-6-.5c-2.2-.2-3.3-2.1-3.4-4.2-.3 2.4.8 5.3 3.4 5.6l6 .6c1.1.1 1.8-.3 2.7-1.3l4.5-4.4c1-1 1.4-2.3 1.3-3.5-.2.8-.5 1.6-1.2 2.2" style="fill:#eba352;stroke-width:1.34265" transform="translate(151.22 33.94) scale(.7448)"/><path d="m51 36.5-3.7 3.7-4.9-.5c-5.8-.5-6.5 10.5-.7 11l7 .7c1.3.1 2.2-.2 3.3-1.3l5.3-5.2c4.3-4.4-1.9-12.8-6.3-8.4" style="fill:#ffdd67;stroke-width:1.34265" transform="translate(151.22 33.94) scale(.7448)"/><path d="M57.3 43.4 52 48.6c-1.1 1.1-2 1.3-3.3 1.3l-7-.7c-2.6-.2-3.9-2.5-4-4.9-.4 2.9.9 6.1 3.9 6.4l7 .7c1.3.1 2.2-.2 3.3-1.3l5.3-5.2c1.2-1.2 1.6-2.7 1.5-4.1-.2.9-.6 1.8-1.4 2.6" style="fill:#eba352;stroke-width:1.34265" transform="translate(151.22 33.94) scale(.7448)"/><path d="M51.3 25.3 47 29.6l-5.8-.6c-6.8-.6-7.6 12.2-.8 12.8l8.2.8c1.5.1 2.6-.2 3.8-1.5l6.2-6.1c5.2-5.1-2.1-14.8-7.3-9.7" style="fill:#ffdd67;stroke-width:1.34265" transform="translate(151.22 33.94) scale(.7448)"/><g style="fill:#eba352;stroke-width:1.34265"><path d="m58.7 33.4-6.2 6.1c-1.3 1.3-2.3 1.6-3.8 1.5l-8.2-.8c-3-.3-4.5-2.9-4.7-5.7-.4 3.4 1 7.1 4.6 7.4l8.2.8c1.5.1 2.6-.2 3.8-1.5l6.2-6.1c1.4-1.4 1.9-3.1 1.7-4.8-.2 1.1-.7 2.1-1.6 3.1m-9.1-13.2s.8-2.4 3.5-4.2c-2.6.4-4.4 3-4.4 3l.9 1.2" style="stroke-width:1.34265" transform="translate(151.22 33.94) scale(.7448)"/><path d="m60.3 23.6-6.2 6.1c-1.3 1.3-2.3 1.5-3.8 1.5l-.1 1.7c1.5.1 2.6-.2 3.8-1.5l6.2-6.1c1.4-1.4 1.9-3.1 1.7-4.8a5.2 5.2 0 0 1-1.6 3.1" style="stroke-width:1.34265" transform="translate(151.22 33.94) scale(.7448)"/></g><path d="m33.2 21.6 5.1 3.8 1.1 6.9c1.3 8.1 12.9 5.1 11.6-3l-1.7-9.8c-.3-1.8-.5-3-2-4.1L40 10.1c-6-4.5-12.8 7.1-6.8 11.5" style="fill:#ffdd67;stroke-width:1.34265" transform="translate(151.22 33.94) scale(.7448)"/><g style="fill:#eba352;stroke-width:1.34265"><path d="M45.4 37.1c3.9-.1 7-3.6 6-7.8-2-8.4-1.7-10.8-2.5-12.3-2-3.4-12.1-10.6-12.8-11.1.3.4 10.7 9.6 11.6 11.7 1 2.2 1.1 5.7 2 9.8 1.4 6.2-.8 7.8-4.3 9.7m-7.1-11.5s-2-.7-4.5-3.3c1.6 3.8 3.3 4.1 3.3 4.1s1.3 10.9 7 10.8c-4.5-1.6-5.8-11.6-5.8-11.6" style="stroke-width:1.34265" transform="translate(151.22 33.94) scale(.7448)"/></g></g><g style="stroke-width:1.02079"><path d="M29.3 40.9h-8.1V9.3a4 4 0 0 1 4-3.9 4 4 0 0 1 4 3.9l.1 31.6" style="fill:#ffdd67;stroke-width:1.02079" transform="translate(5.29 208.5) scale(.97963)"/><path d="M25.3 5.5c.3 0 .5 0 .7.1-1.9.3-3.3 1.9-3.3 3.8V41h-1.4V9.3c-.1-2.1 1.7-3.8 4-3.8" style="fill:#eba352;stroke-width:1.02079" transform="translate(5.29 208.5) scale(.97963)"/><path d="M38.4 40.9h-9V6.7c0-2.6 2-4.7 4.5-4.7s4.5 2.1 4.5 4.7v34.2" style="fill:#ffdd67;stroke-width:1.02079" transform="translate(5.29 208.5) scale(.97963)"/><path d="M33.8 2c.2 0 .5 0 .7.1-2.2.3-3.8 2.3-3.8 4.6v34.2h-1.4V6.7c0-2.6 2-4.7 4.5-4.7" style="fill:#eba352;stroke-width:1.02079" transform="translate(5.29 208.5) scale(.97963)"/><path d="M46.2 40.9h-7.9V8.7c0-2.2 1.8-4.1 3.9-4.1 2.2 0 3.9 1.8 3.9 4.1l.1 32.2" style="fill:#ffdd67;stroke-width:1.02079" transform="translate(5.29 208.5) scale(.97963)"/><path d="M42.3 4.6c.2 0 .5 0 .7.1-1.8.3-3.3 2-3.3 4v32.2h-1.4V8.7c.1-2.3 1.8-4.1 4-4.1" style="fill:#eba352;stroke-width:1.02079" transform="translate(5.29 208.5) scale(.97963)"/><path d="M49.8 9.4c2 0 3.6 1.7 3.6 3.8v27.7h-7.2V13.2c0-2.1 1.6-3.8 3.6-3.8" style="fill:#ffdd67;stroke-width:1.02079" transform="translate(5.29 208.5) scale(.97963)"/><path d="M49.8 9.4c.2 0 .5 0 .7.1-1.7.3-2.9 1.9-2.9 3.7v27.7h-1.4V13.2c0-2.1 1.6-3.8 3.6-3.8" style="fill:#eba352;stroke-width:1.02079" transform="translate(5.29 208.5) scale(.97963)"/><path d="M13.5 30.2c4.3.4 5.7 3.7 6.2 5.4l.2.8s.5.5 1.1 1.4h.2s1.9-3 1.8-9.2l6.3.5 1.4 1 7.7-.1 1.3 1.4 6.6-.4 1.4 1.3s5.7 0 5.8.6c.5 2.1 1 5 0 13.5-2.4 20.5-28.8 16.8-34.2 7.7-1-1.7-4.9-6.5-4.9-6.5-.6-.5-1-1.3-1.1-2.3-.3-2.9-1-6.5-3-10.7-.8-1.8.2-4.7 3.2-4.4" style="fill:#ffdd67;stroke-width:1.02079" transform="translate(5.29 208.5) scale(.97963)"/><g style="fill:#eba352;stroke-width:1.02079"><path d="M11 31a3 3 0 0 0 .1 1.9c2 4.2 2.7 7.8 3 10.7.1 1 .5 2.1 1.1 2.7 2.9 3 7.2 14.4 17.5 14.4 11.4 0 16.9-5.2 18.6-7.4-1.3 3.2-6.7 8.6-18.7 8.6-11.2 0-14.2-10.1-18.2-14.6-.7-.9-1-1.3-1.1-2.3-.3-2.9-1-6.5-3-10.7-.5-.9-.3-2.4.7-3.3" style="stroke-width:1.02079" transform="translate(5.29 208.5) scale(.97963)"/><path d="M20.1 41.8s-1.3-4.1-1.8-6c-.4-1.6-1.9-4.5-4.5-5.6 4 .5 5.4 3.8 5.9 5.4l.2.8s.7.5 1.3 1.4c0 0-1.3 1.8-1.1 4m8.8-14.9c.2.5.5 1 .8 1.4.3.4.6.9.9 1.4.3.5.5 1.1.5 1.7 0 .6-.2 1.2-.5 1.7 0-.6-.1-1.1-.2-1.6s-.3-.9-.6-1.4c-.2-.5-.5-.9-.7-1.5-.3-.5-.4-1.1-.2-1.7m9.1.7c.2.5.5 1 .8 1.4.3.4.6.9.9 1.4.3.5.5 1.1.5 1.7 0 .6-.2 1.2-.5 1.7 0-.6-.1-1.1-.2-1.6s-.3-.9-.6-1.4c-.2-.5-.5-.9-.7-1.5-.3-.5-.4-1.2-.2-1.7m7.8 1c.2.5.5 1 .8 1.4.3.4.6.9.9 1.4.3.5.5 1.1.5 1.7 0 .6-.2 1.2-.5 1.7 0-.6-.1-1.1-.2-1.6s-.3-.9-.6-1.4c-.2-.5-.5-.9-.7-1.5-.3-.5-.4-1.2-.2-1.7" style="stroke-width:1.02079" transform="translate(5.29 208.5) scale(.97963)"/></g></g><g style="stroke-width:1.02079"><g style="fill:#ffdd67;stroke-width:1.02079"><path d="M49.3 34.4s2.9 13.6-1.1 20.3c-6 9.9-27.4 11.7-33.2-6.8-.6-2 8.4-17.8 8.4-17.8l25.9 4.3" style="stroke-width:1.02079" transform="matrix(-.63985 .7418 .7418 .63985 292.77 193.6)"/><path d="M35.1 30.3c1 2 0 4.5-2.2 5.4-2.2 1-4.8.1-5.8-2L13.4 7.8c-1-2 0-4.5 2.2-5.4 2.2-1 4.8-.1 5.8 2l13.7 25.9" style="stroke-width:1.02079" transform="matrix(-.63985 .7418 .7418 .63985 292.77 193.6)"/></g><g style="fill:#eba352;stroke-width:1.02079"><path d="M34.3 34.1c-2.2 1-4.8.1-5.8-2L14.8 6.2c-.5-1.1-.5-2.3 0-3.4a3.95 3.95 0 0 0-1.4 5l13.7 25.9c1 2 3.6 3 5.8 2 1-.4 1.8-1.2 2.2-2.1-.2.2-.5.4-.8.5" style="stroke-width:1.02079" transform="matrix(-.63985 .7418 .7418 .63985 292.77 193.6)"/><path d="M29.2 28c.1 2.4 1.6 3.5 7.5 2l.8 3-16 .2 8.4-13.1-.7 7.9" style="stroke-width:1.02079" transform="matrix(-.63985 .7418 .7418 .63985 292.77 193.6)"/></g><path d="M24.3 39.4c-.6 2.3-3.2 3.7-5.6 3.1-2.5-.6-4-3-3.4-5.3L24.2 8c.6-2.3 2.6-3.7 5-3.1 2.5.6 4 3 3.4 5.3l-8.3 29.2" style="fill:#ffdd67;stroke-width:1.02079" transform="matrix(-.63985 .7418 .7418 .63985 292.77 193.6)"/><path d="M20.9 42.1c-2.5-.6-4-3-3.4-5.3l8.3-29.1a4 4 0 0 1 2.4-2.8C26 4.8 24 6.1 23.5 8.2l-8.3 29.2c-.6 2.3.9 4.7 3.4 5.3 1.1.3 2.3.1 3.3-.3-.3-.2-.6-.2-1-.3" style="fill:#eba352;stroke-width:1.02079" transform="matrix(-.63985 .7418 .7418 .63985 292.77 193.6)"/><path d="M51 31.6c.1-2.3-1.5-4.2-3.7-4.4h-.1c-2.2-.2-4 1.5-4.2 3.8l-.4 6.3c-.1 2.3 1.5 4.2 3.7 4.4h.1c2.2.2 4-1.5 4.2-3.8l.4-6.3" style="fill:#ffdd67;stroke-width:1.02079" transform="matrix(-.63985 .7418 .7418 .63985 292.77 193.6)"/><path d="M47.6 40.2c-2.2-.2-3.8-2.1-3.7-4.4l.4-6.3c0-.6.2-1.2.5-1.7-1 .7-1.7 1.8-1.7 3.1l-.4 6.3c-.1 2.3 1.4 4.2 3.6 4.4 1.6.1 3-.7 3.7-2.1-.6.6-1.5.8-2.4.7" style="fill:#eba352;stroke-width:1.02079" transform="matrix(-.63985 .7418 .7418 .63985 292.77 193.6)"/><path d="M43.8 26.9c.2-2.8-1.7-5.1-4.3-5.3h-.1c-2.6-.2-4.8 1.9-5 4.7l-.5 7.7c-.2 2.8 1.7 5.1 4.3 5.3h.1c2.6.2 4.8-1.9 5-4.7l.5-7.7" style="fill:#ffdd67;stroke-width:1.02079" transform="matrix(-.63985 .7418 .7418 .63985 292.77 193.6)"/><g style="fill:#eba352;stroke-width:1.02079"><path d="M39.7 37.6c-2.6-.2-4.5-2.5-4.3-5.2l.6-7.7c.1-.7.3-1.4.6-2.1-1.2.8-2 2.2-2.1 3.8l-.9 7.8c-.2 2.8 2 5 4.6 5.1h.1c1.9.1 3.6-.9 4.4-2.6-1 .6-2 .9-3 .9" style="stroke-width:1.02079" transform="matrix(-.63985 .7418 .7418 .63985 292.77 193.6)"/><path d="M26.1 31.2c3.5-2 4.2 1.2 10.2 1.3 2.6.1 3.8 5.3-.2 7.2-5.5 2.6-6-1.1-7.3.4-1.4 1.5-2.8 1.8-4 3.6-.8 1.3-7.7-.7-8.4-3.4-1.4-5.1 4.1-5.9 9.7-9.1" style="stroke-width:1.02079" transform="matrix(-.63985 .7418 .7418 .63985 292.77 193.6)"/></g><path d="M25.7 32.1c3.7-2.1 4.4 1.2 10.6 1.4 2.7.1 3.9 5.5-.2 7.5-5.7 2.7-6.2-1.1-7.6.4-1.5 1.6-2.9 1.9-4.1 3.8-.9 1.4 1.5 6.5 1.5 6.5s-7 4.8-8.5 2.1c-2.7-5.1-1.9-9-1.8-12 .2-7.1 4.3-6.4 10.1-9.7" style="fill:#ffdd67;stroke-width:1.02079" transform="matrix(-.63985 .7418 .7418 .63985 292.77 193.6)"/><g style="fill:#eba352;stroke-width:1.02079"><path d="M18.6 35.4c-3.9 1.7-3.7 11.5-.8 16.2C25 63.3 39.1 63 46.6 56.7c-7 7.2-22.1 8-29.9-4.1-3.2-4.8-4.2-15.9 1.9-17.2" style="stroke-width:1.02079" transform="matrix(-.63985 .7418 .7418 .63985 292.77 193.6)"/><path d="M25.2 45.2c-.3.4-.2 1.2-.1 2.1-.4-1.3-.7-2.7-.3-3.3 1.3-1.9 2-2.2 3.5-3.9 1.4-1.5 1.9 2.4 7.6-.4 2.1-1 2.8-2.9 2.6-4.6.8 1.8.4 4.6-2.3 5.9-5.7 2.7-6.2-1.1-7.6.4-1.5 1.6-2.2 1.9-3.4 3.8" style="stroke-width:1.02079" transform="matrix(-.63985 .7418 .7418 .63985 292.77 193.6)"/><path d="M38.8 53.6c0-6.5-5-11.8-11.4-12.3a9.84 9.84 0 0 1 11.3 13.9c0-.6.1-1.1.1-1.6" style="stroke-width:1.02079" transform="matrix(-.63985 .7418 .7418 .63985 292.77 193.6)"/><path d="M40.7 41.4c1.1-.3 2.2-.2 3.1.2a6.16 6.16 0 0 0-5.6 7.3c-.4-.5-.7-1-.8-1.7-.7-2.5.8-5.1 3.3-5.8" style="stroke-width:1.02079" transform="matrix(-.63985 .7418 .7418 .63985 292.77 193.6)"/></g></g><text xml:space="preserve" x="-12237.36" y="1162.62" style="font-style:normal;font-weight:400;font-size:33.5952px;line-height:125%;font-family:Sans;letter-spacing:0;word-spacing:0;fill:#000;fill-opacity:1;stroke:none;stroke-width:1" transform="translate(12244.9 -866.18)"><tspan x="-12237.36" y="1162.62" style="font-size:25.1758px;stroke-width:1">Papel</tspan></text><text xml:space="preserve" x="-11979.05" y="1154.41" style="font-style:normal;font-weight:400;font-size:33.5952px;line-height:125%;font-family:Sans;letter-spacing:0;word-spacing:0;fill:#000;fill-opacity:1;stroke:none;stroke-width:1" transform="translate(12244.9 -866.18)"><tspan x="-11979.05" y="1154.41" style="font-size:25.1758px;stroke-width:1">Tijera</tspan></text><path d="m-11996 1107.87-159.64-.15" style="opacity:1;vector-effect:none;fill:none;fill-opacity:1;fill-rule:evenodd;stroke:#000;stroke-width:3;stroke-linecap:butt;stroke-linejoin:miter;stroke-miterlimit:4;stroke-dasharray:none;stroke-dashoffset:0;stroke-opacity:1;marker-end:url(#a)" transform="translate(12244.9 -866.18)"/><path d="m-12170.28 1079.12 78.2-115.81" style="fill:none;fill-rule:evenodd;stroke:#000;stroke-width:3;stroke-linecap:butt;stroke-linejoin:miter;stroke-miterlimit:4;stroke-dasharray:none;stroke-opacity:1;marker-end:url(#b)" transform="translate(12244.9 -866.18)"/><path d="m-12053.99 959.84 75.14 111.53" style="fill:none;fill-rule:evenodd;stroke:#000;stroke-width:3;stroke-linecap:butt;stroke-linejoin:miter;stroke-miterlimit:4;stroke-dasharray:none;stroke-opacity:1;marker-end:url(#c)" transform="translate(12244.9 -866.18)"/></svg>