<svg xmlns="http://www.w3.org/2000/svg" width="420" height="420">
  <defs>
    <marker id="b" orient="auto" overflow="visible">
      <path fill-rule="evenodd" stroke="#000" stroke-linejoin="round" stroke-width=".38" d="M-5.23-2.42L1.32-.01-5.23 2.4a4.1 4.1 0 0 0 0-4.82z"/>
    </marker>
    <marker id="d" orient="auto" overflow="visible">
      <path fill-rule="evenodd" stroke="#000" stroke-linejoin="round" stroke-width=".38" d="M-5.23-2.42L1.32-.01-5.23 2.4a4.1 4.1 0 0 0 0-4.82z"/>
    </marker>
    <marker id="f" orient="auto" overflow="visible">
      <path fill-rule="evenodd" stroke="#000" stroke-linejoin="round" stroke-width=".38" d="M-5.23-2.42L1.32-.01-5.23 2.4a4.1 4.1 0 0 0 0-4.82z"/>
    </marker>
    <marker id="g" orient="auto" overflow="visible">
      <path fill-rule="evenodd" stroke="#000" stroke-linejoin="round" stroke-width=".38" d="M-5.23-2.42L1.32-.01-5.23 2.4a4.1 4.1 0 0 0 0-4.82z"/>
    </marker>
    <marker id="i" orient="auto" overflow="visible">
      <path fill-rule="evenodd" stroke="#000" stroke-linejoin="round" stroke-width=".38" d="M-5.23-2.42L1.32-.01-5.23 2.4a4.1 4.1 0 0 0 0-4.82z"/>
    </marker>
    <marker id="h" orient="auto" overflow="visible">
      <path fill-rule="evenodd" stroke="#000" stroke-linejoin="round" stroke-width=".38" d="M-5.23-2.42L1.32-.01-5.23 2.4a4.1 4.1 0 0 0 0-4.82z"/>
    </marker>
    <marker id="j" orient="auto" overflow="visible">
      <path fill-rule="evenodd" stroke="#000" stroke-linejoin="round" stroke-width=".38" d="M-5.23-2.42L1.32-.01-5.23 2.4a4.1 4.1 0 0 0 0-4.82z"/>
    </marker>
    <marker id="e" orient="auto" overflow="visible">
      <path fill-rule="evenodd" stroke="#000" stroke-linejoin="round" stroke-width=".38" d="M-5.23-2.42L1.32-.01-5.23 2.4a4.1 4.1 0 0 0 0-4.82z"/>
    </marker>
    <marker id="a" orient="auto" overflow="visible">
      <path fill-rule="evenodd" stroke="#000" stroke-linejoin="round" stroke-width=".38" d="M-5.23-2.42L1.32-.01-5.23 2.4a4.1 4.1 0 0 0 0-4.82z"/>
    </marker>
    <marker id="c" orient="auto" overflow="visible">
      <path fill-rule="evenodd" stroke="#000" stroke-width=".53" d="M-4 0l-2 2 7-2-7-2z"/>
    </marker>
  </defs>
  <text x="-12105.24" y="896.79" font-family="Sans" font-size="33.6" font-weight="400" letter-spacing="0" style="line-height:125%" transform="translate(12279.93 -866.18)" word-spacing="0">
    <tspan x="-12105.24" y="896.79" font-size="25.18">Piedra</tspan>
  </text>
  <g stroke-width="1.34">
    <path fill="#ffdd67" d="M204.43 41.23c-2.01 1.27-4.62 4.1-7.75 5.36-2.9 1.12-8.93 1.72-8.93 1.72V71.4s11.02-.75 14.6 2.16l2.08-32.33"/>
    <path fill="#eba352" d="M202.12 71.4s-7.6-2.09-14.37-2.09v2.01c4.91 0 14.6 2.16 14.6 2.16l-.23-2.08"/>
    <path fill="#ffdd67" d="M220.6 45.92s-4.85-4.84-7-5.88c-7.9-3.95-15.05 5.66-14.83 13.78.15 4.7.82 11.84 1.86 16.38 1.57 6.7 11.1 6.93 15.27 6.48l4.7-30.76"/>
    <path fill="#eba352" d="M215.9 75.8c-8.12 0-13.48-2.47-15.94-6.27.37 5.07 7.3 8.2 15.94 7.45V75.8"/>
    <path fill="#ffdd67" d="M211.43 40.04c13.4-1.64 18.7 5.44 20.19 8.04 1.34 2.31.81 4.55-.53 5.96-1.49 1.57-9.08 3.58-9.08 3.58s-15.64-16.98-10.58-17.58z"/>
    <path fill="#eba352" d="M206.37 62.24c5.14-.45 7.07-4.47 7.9-6.34l.66 2.98s-1.26 3.88-6.25 4.03a6.87 6.87 0 0 1-3.5-.67c.37.07.81.07 1.19 0"/>
    <path fill="#ffdd67" d="M223.05 69.83l-2.38 2.31-3.13-.3c-3.65-.3-4.1 6.63-.45 6.93l4.4.45a2.2 2.2 0 0 0 2.08-.82l3.35-3.28c2.9-2.76-1.04-8.04-3.87-5.29"/>
    <path fill="#eba352" d="M227.07 74.15l-3.35 3.28a2.6 2.6 0 0 1-2.08.82l-4.47-.37c-1.64-.15-2.46-1.57-2.54-3.13-.22 1.79.6 3.95 2.54 4.17l4.47.45c.81.07 1.34-.23 2-.97l3.36-3.28a3.3 3.3 0 0 0 .97-2.6 2.99 2.99 0 0 1-.9 1.63"/>
    <path fill="#ffdd67" d="M224.24 62.6l-2.75 2.76-3.65-.37c-4.32-.37-4.84 7.82-.52 8.2l5.2.52c.98.07 1.65-.15 2.47-.97l3.94-3.88c3.2-3.27-1.41-9.53-4.69-6.25"/>
    <path fill="#eba352" d="M228.93 67.75L225 71.62a3 3 0 0 1-2.46.97l-5.21-.52c-1.94-.15-2.9-1.87-2.98-3.65-.3 2.16.67 4.54 2.9 4.76l5.21.53c.97.07 1.64-.15 2.46-.97l3.95-3.88c.9-.89 1.2-2 1.12-3.05a3.83 3.83 0 0 1-1.05 1.94"/>
    <path fill="#ffdd67" d="M224.47 54.27l-3.2 3.2-4.33-.45c-5.06-.45-5.66 9.09-.6 9.54l6.11.6a3.13 3.13 0 0 0 2.83-1.13l4.62-4.54c3.88-3.8-1.56-11.02-5.43-7.22"/>
    <g fill="#eba352">
      <path d="M229.98 60.3l-4.62 4.54c-.97.97-1.71 1.2-2.83 1.12l-6.1-.6c-2.24-.22-3.36-2.16-3.5-4.24-.3 2.53.74 5.29 3.42 5.51l6.1.6a3.13 3.13 0 0 0 2.83-1.12l4.62-4.55a4.22 4.22 0 0 0 1.27-3.57 4.6 4.6 0 0 1-1.2 2.3m-6.77-9.82s.6-1.79 2.6-3.13c-1.93.3-3.27 2.23-3.27 2.23l.67.9"/>
      <path d="M231.17 53l-4.62 4.54c-.97.97-1.71 1.12-2.83 1.12l-.07 1.27a3.13 3.13 0 0 0 2.83-1.12l4.61-4.54a4.22 4.22 0 0 0 1.27-3.58 3.87 3.87 0 0 1-1.2 2.31"/>
    </g>
    <path fill="#ffdd67" d="M210.98 51.51l3.8 2.83.82 5.14c.97 6.03 9.61 3.8 8.64-2.23l-1.26-7.3c-.23-1.34-.38-2.24-1.5-3.06l-5.43-3.94c-4.47-3.36-9.53 5.28-5.07 8.56"/>
    <path fill="#eba352" d="M220.07 63.05a4.66 4.66 0 0 0 4.47-5.8c-1.49-6.26-1.27-8.05-1.86-9.17-1.5-2.53-9.01-7.9-9.54-8.26.23.3 7.97 7.15 8.64 8.71.75 1.64.82 4.25 1.5 7.3 1.04 4.62-.6 5.8-3.2 7.22m-5.3-8.56s-1.49-.52-3.35-2.46c1.2 2.83 2.46 3.06 2.46 3.06s.97 8.11 5.21 8.04c-3.35-1.2-4.32-8.64-4.32-8.64"/>
  </g>
  <g stroke-width="1.02">
    <path fill="#ffdd67" d="M370.85 173.32h-7.93v-30.96a3.91 3.91 0 0 1 3.92-3.82 3.91 3.91 0 0 1 3.91 3.82l.1 30.96"/>
    <path fill="#eba352" d="M366.93 138.64c.3 0 .5 0 .69.1a3.79 3.79 0 0 0-3.23 3.72v30.96h-1.37v-31.06c-.1-2.05 1.66-3.72 3.91-3.72"/>
    <path fill="#ffdd67" d="M379.77 173.32h-8.82v-33.5a4.5 4.5 0 0 1 4.4-4.6 4.5 4.5 0 0 1 4.42 4.6v33.5"/>
    <path fill="#eba352" d="M375.26 135.21c.2 0 .5 0 .69.1a4.46 4.46 0 0 0-3.73 4.5v33.51h-1.37v-33.5a4.5 4.5 0 0 1 4.41-4.6"/>
    <path fill="#ffdd67" d="M387.4 173.32h-7.73v-31.54c0-2.16 1.76-4.02 3.82-4.02 2.16 0 3.82 1.76 3.82 4.02l.1 31.54"/>
    <path fill="#eba352" d="M383.59 137.76c.2 0 .49 0 .68.1a4 4 0 0 0-3.23 3.92v31.54h-1.37v-31.54c.1-2.26 1.76-4.02 3.92-4.02"/>
    <path fill="#ffdd67" d="M390.94 142.46a3.62 3.62 0 0 1 3.52 3.72v27.14h-7.05v-27.14a3.62 3.62 0 0 1 3.53-3.72"/>
    <path fill="#eba352" d="M390.94 142.46c.2 0 .49 0 .68.1a3.61 3.61 0 0 0-2.84 3.62v27.14h-1.37v-27.14a3.62 3.62 0 0 1 3.53-3.72"/>
    <path fill="#ffdd67" d="M355.37 162.84c4.22.4 5.59 3.62 6.08 5.29l.2.78s.48.5 1.07 1.37h.2s1.86-2.93 1.76-9l6.17.48 1.37.98 7.55-.1 1.27 1.37 6.47-.39 1.37 1.28s5.58 0 5.68.58c.49 2.06.98 4.9 0 13.23-2.35 20.08-28.21 16.46-33.5 7.54-.98-1.66-4.8-6.37-4.8-6.37a3.3 3.3 0 0 1-1.08-2.25c-.3-2.84-.98-6.37-2.94-10.48-.78-1.76.2-4.6 3.13-4.31"/>
    <g fill="#eba352">
      <path d="M352.93 163.62c-.2.69-.1 1.37.1 1.86a31.18 31.18 0 0 1 2.93 10.49c.1.98.5 2.05 1.08 2.64 2.84 2.94 7.05 14.1 17.14 14.1 11.17 0 16.56-5.09 18.22-7.24-1.27 3.13-6.56 8.42-18.31 8.42-10.98 0-13.92-9.9-17.83-14.3-.69-.88-.98-1.27-1.08-2.25-.3-2.84-.98-6.37-2.94-10.48-.49-.89-.3-2.36.69-3.24"/>
      <path d="M361.84 174.2s-1.27-4.01-1.76-5.88c-.4-1.56-1.86-4.4-4.41-5.48 3.92.49 5.29 3.72 5.78 5.29l.2.78s.68.5 1.27 1.37c0 0-1.28 1.77-1.08 3.92m8.62-14.6c.2.5.5.99.78 1.38.3.39.6.88.89 1.37.29.49.49 1.08.49 1.66 0 .6-.2 1.18-.5 1.67 0-.59-.1-1.08-.19-1.57-.1-.49-.3-.88-.59-1.37-.2-.49-.49-.88-.68-1.47-.3-.49-.4-1.08-.2-1.66m8.92.69c.2.48.49.97.78 1.36.3.4.59.88.88 1.37.3.5.5 1.08.5 1.67 0 .59-.2 1.18-.5 1.67 0-.6-.1-1.08-.2-1.57-.1-.5-.29-.88-.58-1.37-.2-.5-.5-.89-.69-1.47-.3-.5-.39-1.18-.2-1.67m7.65.98c.2.5.49.98.78 1.37.3.4.59.88.88 1.37.3.5.5 1.08.5 1.67 0 .59-.2 1.18-.5 1.67 0-.6-.1-1.08-.2-1.57-.1-.5-.29-.88-.58-1.37-.2-.5-.5-.89-.69-1.47-.3-.5-.39-1.18-.2-1.67"/>
    </g>
  </g>
  <g stroke-width="1.02">
    <g fill="#ffdd67">
      <path d="M312.57 367.23s8.24 10.85 15.77 12.17c11.18 1.88 26.2-12.84 16.2-28.98-1.1-1.72-18.58-5.16-18.58-5.16l-13.39 21.97"/>
      <path d="M318.62 354.07c.84 2.02 3.34 2.88 5.41 1.82a4.3 4.3 0 0 0 2.23-5.58l-10.45-26.73c-.84-2.02-3.34-2.88-5.41-1.83a4.31 4.31 0 0 0-2.23 5.59l10.45 26.73"/>
    </g>
    <g fill="#eba352">
      <path d="M321.95 355.9a4.3 4.3 0 0 0 2.23-5.57l-10.45-26.74a3.96 3.96 0 0 0-2.52-2.17 3.87 3.87 0 0 1 4.6 2.16l10.45 26.73a4.4 4.4 0 0 1-2.23 5.58c-.93.49-2.04.57-2.96.3.27-.03.61-.12.88-.28"/>
      <path d="M320.69 348.22c1.71 1.61 1.57 3.43-3.32 6.85l1.72 2.5 10.38-11.73-15.1-2.15 6.32 4.53"/>
    </g>
    <path fill="#ffdd67" d="M332.28 351.88c2.09 1.03 4.8 0 5.88-2.17 1.16-2.24.34-4.89-1.75-5.91l-27.36-12.08c-2.09-1.03-4.4-.44-5.5 1.72-1.15 2.24-.33 4.89 1.76 5.92l26.97 12.52"/>
    <path fill="#eba352" d="M336.46 351.09c1.15-2.24.33-4.89-1.76-5.92l-26.9-12.46a3.91 3.91 0 0 0-3.6-.01c1.33-1.7 3.57-2.35 5.45-1.37l26.97 12.52c2.09 1.03 2.9 3.68 1.75 5.92a5.2 5.2 0 0 1-2.33 2.25c.04-.35.24-.57.42-.93"/>
    <path fill="#ffdd67" d="M309.4 366.7a4.04 4.04 0 0 1-.89-5.56l.07-.08c1.26-1.76 3.67-2 5.5-.68l4.93 3.73a4.04 4.04 0 0 1 .9 5.56l-.07.08c-1.25 1.76-3.67 2-5.5.68l-4.93-3.73"/>
    <path fill="#eba352" d="M317.96 369.68a4.04 4.04 0 0 0-.9-5.56l-4.92-3.74a3.3 3.3 0 0 0-1.58-.71 3.69 3.69 0 0 1 3.38.72l4.93 3.73c1.77 1.4 2.22 3.73.96 5.49a3.7 3.7 0 0 1-3.92 1.4c.83-.06 1.55-.6 2.05-1.33"/>
    <path fill="#ffdd67" d="M310.53 358.35c-2.2-1.64-2.7-4.53-1.18-6.58l.06-.08c1.52-2.05 4.48-2.34 6.69-.7l6.03 4.56c2.2 1.64 2.7 4.52 1.18 6.58l-.06.07c-1.52 2.06-4.48 2.35-6.69.7l-6.03-4.55"/>
    <g fill="#eba352">
      <path d="M321.1 362.15a4.65 4.65 0 0 0-1.12-6.51l-6.1-4.48a8.13 8.13 0 0 0-1.93-.9 4.8 4.8 0 0 1 4.16.87l6.36 4.32a4.68 4.68 0 0 1 .84 6.68l-.06.07a4.43 4.43 0 0 1-4.75 1.6 5.67 5.67 0 0 0 2.6-1.65"/>
      <path d="M325.04 347.97c-3.72 1.32-1.8 3.88-5.56 8.4-1.59 2 1.5 6.2 5.47 4.46 5.45-2.42 3.02-5.16 4.97-5.16 2-.08 3.13-.93 5.23-.67 1.48.24 4.4-6.16 2.85-8.4-2.89-4.3-7-.74-12.96 1.37"/>
    </g>
    <path fill="#ffdd67" d="M325.97 348.25c-3.93 1.4-1.93 4.03-5.75 8.76-1.65 2.07 1.59 6.41 5.7 4.65 5.65-2.5 3.15-5.3 5.16-5.38 2.14-.1 3.26-.94 5.44-.61 1.61.23 3.86 5.27 3.86 5.27s8.04-2.12 7-4.96c-2.06-5.27-5.46-7.17-7.75-9.02-5.4-4.4-7.5-.9-13.66 1.29"/>
    <g fill="#eba352">
      <path d="M332.96 345.1c3.76-1.81 10.9 4.6 12.53 9.77 4.07 12.82-5.17 23.1-14.65 24.62 9.82-.58 20.08-11.27 16.1-24.8-1.52-5.44-9.11-13.29-13.98-9.6"/>
      <path d="M336 356.26c.5.03 1.02.62 1.63 1.27-.71-1.13-1.56-2.25-2.26-2.33-2.24-.26-2.91.07-5.13.1-2 .08.56 2.94-5.16 5.38a4.3 4.3 0 0 1-5.08-1.02 4.41 4.41 0 0 0 5.85 2.07c5.65-2.5 3.15-5.3 5.16-5.38 2.15-.09 2.82-.41 5-.09"/>
      <path d="M333.54 371.72a12.08 12.08 0 0 1-1.83-16.32 9.64 9.64 0 0 0 3.08 17.28c-.45-.39-.88-.64-1.25-.96"/>
      <path d="M323.27 365.33a4.55 4.55 0 0 0-1.84 2.43c.26-.3.59-.53.92-.77a6.03 6.03 0 0 1 8.08 1.28 3.3 3.3 0 0 0-.75-1.68 4.63 4.63 0 0 0-6.41-1.26"/>
    </g>
  </g>
  <g stroke-width="1.02">
    <g fill="#ffdd67">
      <path d="M73.75 344.3l6.47 4.6s3.23-9 5.68-14.78c.98-2.36 4.12-3.14 5.59-6.47 2.54-5.68-.5-10.58-3.43-7.05-3.43 4.11-8.53 7.15-9.6 9.5-1.67 3.92-4.7 14.2-4.7 14.2"/>
      <path d="M68.66 348.03c-.49 3.13-.1 7.93 2.65 13.61 0 0 5.58-6.66 6.27-9.8 0 0 1.56-11.65 3.23-19.1.68-3.03 4.21-4.8 5.1-9.1 1.56-7.45-3.14-12.64-5.89-7.65-3.13 5.78-8.42 10.68-9.1 13.72-1.18 5.19-1.67 13.8-2.26 18.32"/>
    </g>
    <path fill="#eba352" d="M76.89 342.15s.49-4.41 2.15-11.86c.69-3.03 4.22-4.8 5.1-9.1.59-2.55.39-4.9-.3-6.57 1.67 1.27 3.04 4.8 2.16 9.11-.88 4.31-4.5 6.07-5.1 9.11-.68 3.23-1.27 6.57-1.27 6.57l4.9-1.87-7.64 4.6"/>
    <path fill="#ffdd67" d="M71.01 346.85c6.47-5.88 13.72-9.5 18.42-11.76 6.95-3.42 5.1 1.28 16.95 4.41 1.56.4 3.42 1.57 1.96 4.5-1.38 2.85-12.54.7-14.3-.97 0 0-4.7 5.78-9.41 5.58 0 0 .78 3.82-.3 5.69 0 0 6.67 3.42 9.5 6.46l7.84-5.29c.6-8.13 2.06-10.58 6.08-10.19 3.72.4 3.33 3.92 3.23 6.76-.1 5.2 1.27 6.08 0 8.13-4.8 7.84-10.97 12.74-22.34 12.74-4.2 0-6.95-.1-9.6-1.37-4.3-2.26-15.18-18.13-8.03-24.69"/>
    <g fill="#eba352">
      <path d="M69.74 348.42c-2.45 7.44 6.27 19.69 10.09 21.55 2.64 1.27 5.29 1.37 9.6 1.37 11.26 0 17.34-4.8 22.14-12.54-.1.4-.3.88-.5 1.28-4.89 7.93-11.06 12.83-22.43 12.83-4.2 0-6.95-.1-9.6-1.37-4.01-2.06-13.71-15.87-9.3-23.12"/>
      <path d="M103.14 355.67s-7.34 4.7-9.1 5l7.73-5.2c-.3-8.23 2.06-10.87 6.08-10.19.29.1.58.1.88.2-4.02-.5-5.88 2.15-5.59 10.19"/>
      <path d="M94.03 343.03s-4.7 5.68-9.4 5.58v-1.07c4.7.1 9.4-5.59 9.4-5.59 1.77 1.77 12.93 3.92 14.3.98.2-.49.4-.98.5-1.37.1.59 0 1.37-.5 2.45-1.37 2.84-12.53.69-14.3-.98"/>
    </g>
  </g>
  <g stroke-width="1.02">
    <g fill="#ffdd67">
      <path d="M49.42 176.66l7.55 1.76 7.44-32.03a3.98 3.98 0 0 0-2.84-4.8c-2.06-.5-4.11.88-4.7 3.13l-7.45 31.94"/>
      <path d="M40.6 174.5l8.82 2.16 8.14-34.78c.58-2.54-.89-5.19-3.34-5.78-2.44-.58-4.9 1.08-5.58 3.73l-8.03 34.67"/>
      <path d="M38.84 175.97l8.23-2.15-9.6-32.33a4.49 4.49 0 0 0-5.39-3.04 4.15 4.15 0 0 0-2.93 5.2l9.7 32.32"/>
      <path d="M25.72 145.31c-2.16.59-3.24 2.65-2.65 4.8l8.23 27.82 7.54-1.96-8.22-27.82a4.24 4.24 0 0 0-4.9-2.84"/>
    </g>
    <path fill="#eba352" d="M61.57 141.59c-.2-.1-.49-.1-.68-.1a3.97 3.97 0 0 1 2.15 4.6l-7.44 32.04 1.37.3 7.44-32.04a3.98 3.98 0 0 0-2.84-4.8m-7.35-5.49c-.2 0-.49-.1-.68-.1a4.78 4.78 0 0 1 2.64 5.59l-4.6 19.69.88 2.45 5.1-21.85c.58-2.54-.89-5.19-3.34-5.78m-22.04 2.35c-.3.1-.49.2-.68.3a4.35 4.35 0 0 1 4.6 3.13l5.59 18.91 2.05 1.86-6.27-21.16a4.38 4.38 0 0 0-5.29-3.04m-6.46 6.86c-.3.1-.5.2-.69.3a4.2 4.2 0 0 1 4.21 2.93l3.92 13.33 2.06 1.66-4.5-15.28c-.79-2.15-2.95-3.43-5-2.94"/>
    <path fill="#ffdd67" d="M77.44 162.65c-1.47-3.04-6.37-2.84-11.36 2.65-3.43 3.82-5 5.19-8.43 5.19l.79-4.41-30.27 1.18s-1.77 12.54 1.17 19.4c4.41 10.18 27.24 12.92 34.39-4.51 1.47-3.43 4.3-5.98 6.95-9.21 3.04-3.92 8.43-6.96 6.76-10.29"/>
    <g fill="#eba352">
      <path d="M77.44 162.65a4 4 0 0 0-1.17-1.37c.1.1.2.2.2.4 1.66 3.32-3.73 6.36-6.87 10.28-2.54 3.23-5.48 5.78-6.95 9.2-6.17 15.1-24.1 15.1-31.64 8.14 6.85 7.83 26.15 8.62 32.72-7.15 1.47-3.43 4.3-5.98 6.95-9.21 3.04-3.92 8.43-6.96 6.76-10.29"/>
      <path d="M58.83 170.4c-6.37-2.36-17.63 2.05-16.07 13.41 0-10.68 9.9-13.32 15.19-13.32.68 0 .88-.1.88-.1"/>
    </g>
  </g>
  <text x="-11935.54" y="1087.37" font-family="Sans" font-size="33.6" font-weight="400" letter-spacing="0" style="line-height:125%" transform="translate(12279.93 -866.18)" word-spacing="0">
    <tspan x="-11935.54" y="1087.37" font-size="25.18">Papel</tspan>
  </text>
  <text x="-11990.17" y="1269.46" font-family="Sans" font-size="33.6" font-weight="400" letter-spacing="0" style="line-height:125%" transform="translate(12279.93 -866.18)" word-spacing="0">
    <tspan x="-11990.17" y="1269.46" font-size="25.18">Tijera</tspan>
  </text>
  <text x="-12242.73" y="1262.54" font-family="Sans" font-size="33.6" font-weight="400" letter-spacing="0" style="line-height:125%" transform="translate(12279.93 -866.18)" word-spacing="0">
    <tspan x="-12242.73" y="1262.54" font-size="25.18">Lagarto</tspan>
  </text>
  <text x="-12271.59" y="1087.37" font-family="Sans" font-size="33.6" font-weight="400" letter-spacing="0" style="line-height:125%" transform="translate(12279.93 -866.18)" word-spacing="0">
    <tspan x="-12271.59" y="1087.37" font-size="25.18">Spock</tspan>
  </text>
  <path fill="none" stroke="#000" stroke-width="3" marker-end="url(#a)" d="M-12154.86 1226.71l159.63.15" transform="translate(12279.93 -866.18)"/>
  <path fill="none" stroke="#000" stroke-width="3" marker-end="url(#b)" d="M-11942.63 1192.27l27.46-85.6" transform="translate(12279.93 -866.18)"/>
  <path fill="none" stroke="#000" stroke-width="3" marker-end="url(#c)" d="M-11932.03 1016l-99.17-72.7" transform="translate(12279.93 -866.18)"/>
  <path fill="none" stroke="#000" stroke-width="3" marker-end="url(#d)" d="M-12099.98 939.32l-94.5 68.77" transform="translate(12279.93 -866.18)"/>
  <path fill="none" stroke="#000" stroke-width="3" marker-end="url(#e)" d="M-12222.6 1095.2l21.77 71.06" transform="translate(12279.93 -866.18)"/>
  <path fill="none" stroke="#000" stroke-width="3" marker-end="url(#f)" d="M-12170.28 1186.97l78.2-219.09" transform="translate(12279.93 -866.18)"/>
  <path fill="none" stroke="#000" stroke-width="3" marker-end="url(#g)" d="M-12053.99 961.32l75.13 210.98" transform="translate(12279.93 -866.18)"/>
  <path fill="none" stroke="#000" stroke-width="3" marker-end="url(#h)" d="M-11939.57 1053.33l-212.41 142.17" transform="translate(12279.93 -866.18)"/>
  <path fill="none" stroke="#000" stroke-width="3" marker-end="url(#i)" d="M-12196.57 1037.97l243.25.15" transform="translate(12279.93 -866.18)"/>
  <path fill="none" stroke="#000" stroke-width="3" marker-end="url(#j)" d="M-11992.83 1202.72l-197.06-145.37" transform="translate(12279.93 -866.18)"/>
</svg>
