<svg xmlns="http://www.w3.org/2000/svg" width="420" height="420"><defs><marker id="b" orient="auto" overflow="visible"><path d="M-5.2-2.4L1.3 0l-6.5 2.4c1-1.4 1-3.4 0-4.8z" fill-rule="evenodd" stroke="#000" stroke-width=".36" stroke-linejoin="round"/></marker><marker id="d" orient="auto" overflow="visible"><path d="M-5.2-2.4L1.3 0l-6.5 2.4c1-1.4 1-3.4 0-4.8z" fill-rule="evenodd" stroke="#000" stroke-width=".36" stroke-linejoin="round"/></marker><marker id="f" orient="auto" overflow="visible"><path d="M-5.2-2.4L1.3 0l-6.5 2.4c1-1.4 1-3.4 0-4.8z" fill-rule="evenodd" stroke="#000" stroke-width=".36" stroke-linejoin="round"/></marker><marker id="g" orient="auto" overflow="visible"><path d="M-5.2-2.4L1.3 0l-6.5 2.4c1-1.4 1-3.4 0-4.8z" fill-rule="evenodd" stroke="#000" stroke-width=".36" stroke-linejoin="round"/></marker><marker id="i" orient="auto" overflow="visible"><path d="M-5.2-2.4L1.3 0l-6.5 2.4c1-1.4 1-3.4 0-4.8z" fill-rule="evenodd" stroke="#000" stroke-width=".36" stroke-linejoin="round"/></marker><marker id="h" orient="auto" overflow="visible"><path d="M-5.2-2.4L1.3 0l-6.5 2.4c1-1.4 1-3.4 0-4.8z" fill-rule="evenodd" stroke="#000" stroke-width=".36" stroke-linejoin="round"/></marker><marker id="j" orient="auto" overflow="visible"><path d="M-5.2-2.4L1.3 0l-6.5 2.4c1-1.4 1-3.4 0-4.8z" fill-rule="evenodd" stroke="#000" stroke-width=".36" stroke-linejoin="round"/></marker><marker id="e" orient="auto" overflow="visible"><path d="M-5.2-2.4L1.3 0l-6.5 2.4c1-1.4 1-3.4 0-4.8z" fill-rule="evenodd" stroke="#000" stroke-width=".36" stroke-linejoin="round"/></marker><marker orient="auto" id="a" overflow="visible"><path d="M-5.2-2.4L1.3 0l-6.5 2.4c1-1.4 1-3.4 0-4.8z" fill-rule="evenodd" stroke="#000" stroke-width=".36" stroke-linejoin="round"/></marker><marker orient="auto" id="c" overflow="visible"><path d="M-4 0l-2 2 7-2-7-2z" fill-rule="evenodd" stroke="#000" stroke-width=".52"/></marker></defs><text style="line-height:125%" x="-12109.4" y="895.3" font-weight="400" font-size="33.6" font-family="Sans" letter-spacing="0" word-spacing="0" transform="translate(12280 -864.7)"><tspan x="-12109.4" y="895.3" font-size="25.2">Piedra</tspan></text><g stroke-width="1.3"><path d="M204.4 41.2c-2 1.3-4.6 4.1-7.7 5.4-3 1.1-9 1.7-9 1.7v23.1s11-.7 14.6 2.2l2.1-32.4" fill="#ffdd67"/><path d="M202.1 71.4s-7.6-2-14.4-2v2c5 0 14.6 2 14.6 2l-.2-2" fill="#eba352"/><path d="M220.6 46s-4.8-5-7-6c-7.9-4-15 5.7-14.8 13.8.1 4.7.8 11.9 1.8 16.4 1.6 6.7 11.1 7 15.3 6.5l4.7-30.8" fill="#ffdd67"/><path d="M215.9 75.8c-8.1 0-13.5-2.5-16-6.3.4 5.1 7.4 8.2 16 7.5v-1.2" fill="#eba352"/><path d="M211.4 40c13.4-1.6 18.7 5.5 20.2 8 1.4 2.4.8 4.6-.5 6-1.5 1.6-9 3.6-9 3.6s-15.7-17-10.7-17.6z" fill="#ffdd67"/><path d="M206.4 62.2c5.1-.4 7-4.4 7.9-6.3l.6 3s-1.2 3.9-6.2 4c-1.3 0-2.5-.1-3.5-.7h1.2" fill="#eba352"/><path d="M223 69.8l-2.3 2.3-3.2-.3c-3.6-.3-4 6.7-.4 7l4.4.4c.8 0 1.4 0 2-.8l3.4-3.3c3-2.7-1-8-3.8-5.3" fill="#ffdd67"/><path d="M227 74.2l-3.3 3.2c-.6.7-1.2.8-2 .8l-4.5-.3c-1.7-.2-2.5-1.6-2.6-3.2-.2 1.8.6 4 2.6 4.2l4.4.5c.9 0 1.4-.3 2-1l3.4-3.3c.7-.7 1-1.7 1-2.6a3 3 0 0 1-1 1.7" fill="#eba352"/><path d="M224.2 62.6l-2.7 2.8-3.7-.4c-4.3-.4-4.8 7.8-.5 8.2l5.2.5c1 0 1.7-.1 2.5-1l4-3.8c3.1-3.3-1.5-9.6-4.8-6.3" fill="#ffdd67"/><path d="M229 67.7l-4 4a3 3 0 0 1-2.5.9l-5.2-.5c-2-.2-2.9-1.9-3-3.7-.3 2.2.7 4.6 3 4.8l5.2.5c1 0 1.6-.1 2.4-1l4-3.8c.9-1 1.2-2 1-3 0 .6-.4 1.3-1 1.8" fill="#eba352"/><path d="M224.5 54.3l-3.2 3.2-4.4-.5c-5-.4-5.6 9.1-.6 9.6l6.2.6c1 0 1.9-.2 2.8-1.2l4.6-4.5c3.9-3.8-1.6-11-5.4-7.2" fill="#ffdd67"/><g fill="#eba352"><path d="M230 60.3l-4.6 4.5c-1 1-1.8 1.2-2.9 1.2l-6-.6c-2.3-.3-3.4-2.2-3.6-4.3-.3 2.6.8 5.3 3.4 5.5l6.2.6c1 .1 1.9-.1 2.8-1l4.6-4.6c1-1 1.4-2.3 1.3-3.6-.2.8-.6 1.6-1.2 2.3M223.2 50.5s.6-1.8 2.6-3.2c-2 .3-3.3 2.3-3.3 2.3l.7.9"/><path d="M231.2 53l-4.6 4.5c-1 1-1.8 1.2-2.9 1.2v1.2c1 .1 1.9-.1 2.8-1l4.6-4.6c1-1 1.4-2.3 1.3-3.6-.1.8-.6 1.6-1.2 2.3"/></g><path d="M211 51.5l3.8 2.8.8 5.2c1 6 9.6 3.8 8.6-2.3L223 50c-.2-1.3-.4-2.2-1.5-3l-5.5-4c-4.4-3.3-9.5 5.3-5 8.6" fill="#ffdd67"/><g fill="#eba352"><path d="M220 63c3 0 5.3-2.6 4.5-5.8-1.4-6.2-1.2-8-1.8-9.1-1.5-2.5-9-8-9.6-8.3.3.3 8 7.2 8.7 8.7.7 1.7.8 4.3 1.5 7.3 1 4.6-.6 5.8-3.2 7.3M214.8 54.5s-1.5-.5-3.4-2.5c1.2 2.9 2.5 3 2.5 3s1 8.2 5.2 8.1c-3.3-1.2-4.3-8.6-4.3-8.6"/></g></g><path d="M370.9 173.3h-8v-31a4 4 0 0 1 4-3.8 4 4 0 0 1 3.9 3.9v31" fill="#ffdd67"/><path d="M367 138.6l.6.1a3.8 3.8 0 0 0-3.2 3.8v31H363v-31.1c0-2 1.7-3.8 4-3.8" fill="#eba352"/><path d="M379.8 173.3H371v-33.5c0-2.5 2-4.6 4.4-4.6 2.4 0 4.4 2 4.4 4.6v33.5" fill="#ffdd67"/><path d="M375.3 135.2l.6.1a4.5 4.5 0 0 0-3.7 4.5v33.5H371v-33.5c0-2.5 2-4.6 4.4-4.6" fill="#eba352"/><path d="M387.4 173.3h-7.7v-31.5c0-2.2 1.7-4 3.8-4 2.1 0 3.8 1.7 3.8 4l.1 31.5" fill="#ffdd67"/><path d="M383.6 137.8h.7a4 4 0 0 0-3.3 4v31.5h-1.3v-31.5c0-2.3 1.7-4 3.9-4" fill="#eba352"/><path d="M391 142.5c1.9 0 3.5 1.6 3.5 3.7v27.1h-7v-27.1c0-2 1.5-3.7 3.4-3.7" fill="#ffdd67"/><path d="M391 142.5h.6c-1.6.4-2.8 2-2.8 3.7v27.1h-1.4v-27.1c0-2 1.6-3.7 3.5-3.7" fill="#eba352"/><path d="M355.4 162.8c4.2.4 5.6 3.7 6 5.3l.2.8 1.1 1.4h.2s1.9-3 1.8-9l6.2.5 1.3 1 7.6-.2 1.2 1.4 6.5-.4 1.4 1.3s5.6 0 5.7.6c.5 2 1 4.9 0 13.2-2.4 20-28.3 16.5-33.5 7.6-1-1.7-4.8-6.4-4.8-6.4-.6-.5-1-1.3-1.1-2.3-.3-2.8-1-6.3-3-10.5-.7-1.7.2-4.6 3.2-4.3" fill="#ffdd67"/><g fill="#eba352"><path d="M353 163.6a3 3 0 0 0 0 1.9c2 4.1 2.7 7.6 3 10.5 0 1 .5 2 1 2.6 2.9 3 7 14.1 17.2 14.1 11.2 0 16.5-5 18.2-7.2-1.3 3.1-6.6 8.4-18.3 8.4-11 0-14-9.9-17.8-14.3-.7-.9-1-1.3-1.1-2.3-.3-2.8-1-6.3-3-10.4-.4-1-.3-2.4.7-3.3"/><path d="M361.8 174.2l-1.7-5.9c-.4-1.5-1.9-4.4-4.4-5.5 3.9.5 5.3 3.8 5.7 5.3l.2.8s.7.5 1.3 1.4c0 0-1.3 1.7-1 3.9M370.5 159.6l.7 1.4 1 1.3c.2.5.4 1.1.4 1.7 0 .6-.2 1.2-.5 1.7 0-.6 0-1.1-.2-1.6 0-.5-.3-.9-.6-1.4l-.6-1.4a2 2 0 0 1-.2-1.7M379.4 160.3l.8 1.4.8 1.3c.3.5.5 1.1.5 1.7 0 .6-.2 1.2-.5 1.7 0-.6 0-1.1-.2-1.6 0-.5-.2-.9-.5-1.4l-.7-1.4a2 2 0 0 1-.2-1.7M387 161.3l.8 1.3.9 1.4c.3.5.5 1 .5 1.7 0 .6-.2 1.2-.5 1.6l-.2-1.5c-.1-.5-.3-.9-.6-1.4l-.7-1.5a2 2 0 0 1-.2-1.6"/></g><g fill="#ffdd67"><path d="M312.6 367.2s8.2 10.9 15.7 12.2c11.2 1.9 26.2-12.8 16.2-29-1-1.7-18.5-5.1-18.5-5.1l-13.4 22"/><path d="M318.6 354c.9 2 3.4 3 5.4 1.9 2.2-1 3.2-3.5 2.3-5.6l-10.5-26.7c-.8-2-3.3-2.9-5.4-1.8a4.3 4.3 0 0 0-2.2 5.5l10.4 26.8"/></g><g fill="#eba352"><path d="M322 356c2.1-1 3.1-3.6 2.2-5.7l-10.5-26.7a4 4 0 0 0-2.5-2.2c1.8-.5 3.9.4 4.6 2.2l10.5 26.7c.8 2-.1 4.6-2.3 5.6a4 4 0 0 1-3 .3c.3 0 .7-.1 1-.3"/><path d="M320.7 348.2c1.7 1.6 1.6 3.4-3.3 6.9l1.7 2.5 10.4-11.8-15.1-2.1 6.3 4.5"/></g><path d="M332.3 351.9c2 1 4.8 0 5.9-2.2 1.1-2.2.3-4.9-1.8-5.9l-27.3-12c-2.1-1.1-4.5-.5-5.5 1.6-1.2 2.3-.4 5 1.7 6l27 12.5" fill="#ffdd67"/><path d="M336.5 351c1.1-2.2.3-4.8-1.8-5.8l-26.9-12.5a4 4 0 0 0-3.6 0c1.3-1.7 3.6-2.3 5.4-1.4l27 12.6c2.1 1 3 3.6 1.8 5.9-.5 1-1.4 1.7-2.4 2.2 0-.3.3-.6.5-1" fill="#eba352"/><path d="M309.4 366.7a4 4 0 0 1-.9-5.6c1.3-1.8 3.7-2 5.6-.7l5 3.7a4 4 0 0 1 .8 5.6c-1.3 1.8-3.7 2-5.6.7l-4.9-3.7" fill="#ffdd67"/><path d="M318 369.7a4 4 0 0 0-1-5.6l-4.9-3.7c-.4-.4-1-.6-1.5-.7 1.1-.3 2.4-.1 3.3.7l5 3.7c1.7 1.4 2.2 3.7 1 5.5a3.7 3.7 0 0 1-4 1.4c.8 0 1.6-.6 2-1.3" fill="#eba352"/><path d="M310.5 358.3c-2.2-1.6-2.7-4.5-1.2-6.5l.1-.1c1.5-2 4.5-2.4 6.7-.7l6 4.5c2.2 1.7 2.7 4.6 1.2 6.6v.1c-1.6 2-4.5 2.3-6.7.7l-6-4.6" fill="#ffdd67"/><g fill="#eba352"><path d="M321 362.2c1.6-2.1 1.1-5-1-6.6l-6.1-4.4-2-1c1.4-.3 3 0 4.2 1l6.4 4.3a4.7 4.7 0 0 1 .8 6.6v.1c-1.2 1.5-3 2.1-4.8 1.6 1-.4 2-.9 2.6-1.6"/><path d="M325 348c-3.7 1.3-1.8 3.9-5.5 8.4-1.6 2 1.5 6.2 5.5 4.4 5.4-2.4 3-5.1 5-5.1 2-.1 3-1 5.1-.7 1.5.2 4.5-6.2 2.9-8.4-2.9-4.3-7-.7-13 1.4"/></g><path d="M326 348.2c-4 1.5-2 4-5.8 8.8-1.6 2 1.6 6.4 5.7 4.7 5.7-2.5 3.2-5.3 5.2-5.4 2.1-.1 3.2-1 5.4-.6 1.6.2 3.9 5.2 3.9 5.2s8-2 7-5c-2-5.2-5.5-7-7.8-9-5.4-4.3-7.5-.8-13.6 1.3" fill="#ffdd67"/><g fill="#eba352"><path d="M333 345c3.7-1.7 10.9 4.7 12.5 9.9a19 19 0 0 1-14.7 24.6 19 19 0 0 0 16.1-24.8c-1.5-5.5-9-13.3-14-9.6"/><path d="M336 356.3c.5 0 1 .6 1.6 1.2-.7-1.1-1.5-2.2-2.2-2.3-2.3-.3-3 0-5.2.1-2 0 .6 3-5.1 5.4-2.1.9-4 .2-5.1-1a4.4 4.4 0 0 0 5.9 2c5.6-2.5 3.1-5.3 5.1-5.3 2.2-.1 2.8-.5 5-.1"/><path d="M333.5 371.7a12 12 0 0 1-1.8-16.3 9.7 9.7 0 0 0 3 17.3l-1.2-1"/><path d="M323.3 365.3c-1 .7-1.6 1.5-1.9 2.5l1-.8a6 6 0 0 1 8 1.3c0-.6-.3-1.2-.7-1.7a4.6 4.6 0 0 0-6.4-1.3"/></g><g><g fill="#ffdd67"><path d="M34.9 165.3l6.4 4.6s3.3-9 5.7-14.8c1-2.4 4.1-3.2 5.6-6.5 2.6-5.7-.5-10.6-3.4-7-3.5 4-8.5 7.1-9.6 9.4-1.7 4-4.7 14.3-4.7 14.3"/><path d="M29.8 169c-.5 3.1-.1 8 2.6 13.6 0 0 5.6-6.7 6.3-9.8 0 0 1.6-11.7 3.2-19.1.7-3 4.2-4.8 5.1-9.1 1.6-7.5-3.1-12.7-5.9-7.7-3 5.8-8.4 10.7-9 13.8-1.2 5.1-1.7 13.8-2.3 18.3"/></g><path d="M38 163.1s.5-4.4 2.2-11.9c.7-3 4.2-4.8 5-9 .6-2.6.5-5-.2-6.6 1.6 1.2 3 4.8 2.1 9-.9 4.4-4.5 6.2-5 9.2-.8 3.2-1.3 6.6-1.3 6.6l4.9-2-7.7 4.7" fill="#eba352"/><path d="M32.1 167.8A74.9 74.9 0 0 1 50.5 156c7-3.4 5.1 1.3 17 4.5 1.6.3 3.4 1.5 2 4.5-1.4 2.8-12.6.6-14.3-1 0 0-4.7 5.8-9.5 5.6 0 0 .8 3.8-.2 5.6 0 0 6.6 3.5 9.5 6.5l7.8-5.3c.6-8.1 2-10.6 6-10.2 3.8.4 3.4 4 3.3 6.8-.1 5.2 1.3 6 0 8.1A23.7 23.7 0 0 1 49.8 194c-4.2 0-7-.1-9.6-1.4-4.3-2.3-15.2-18.1-8-24.7" fill="#ffdd67"/><g fill="#eba352"><path d="M30.9 169.4c-2.5 7.4 6.2 19.7 10 21.5a21 21 0 0 0 9.6 1.4c11.3 0 17.4-4.8 22.2-12.5l-.5 1.2c-4.9 8-11 12.9-22.4 12.9-4.2 0-7-.1-9.6-1.4-4-2-13.7-15.9-9.3-23.1"/><path d="M64.3 176.6s-7.4 4.7-9.1 5l7.7-5.2c-.3-8.2 2-10.9 6-10.2l1 .2c-4-.5-6 2.2-5.6 10.2"/><path d="M55.2 164s-4.7 5.7-9.5 5.6v-1.1c4.8 0 9.5-5.6 9.5-5.6 1.7 1.8 12.9 4 14.3 1l.4-1.4c.1.6 0 1.4-.4 2.5-1.4 2.8-12.6.6-14.3-1"/></g></g><g><g fill="#ffdd67"><path d="M86.8 357.2l7.5 1.8 7.5-32a4 4 0 0 0-2.9-4.8c-2-.5-4.1.9-4.7 3.1l-7.4 32"/><path d="M78 355l8.8 2.2 8.1-34.7c.6-2.6-.9-5.2-3.3-5.8-2.5-.6-5 1-5.6 3.7l-8 34.7"/><path d="M76.2 356.6l8.2-2.2-9.6-32.3c-.7-2.3-3-3.6-5.4-3-2.2.5-3.6 2.9-3 5.1l9.8 32.4"/><path d="M63 325.9c-2 .6-3.2 2.6-2.6 4.8l8.2 27.8 7.6-2-8.2-27.8c-.7-2-2.9-3.3-5-2.8"/></g><g fill="#eba352"><path d="M99 322.2l-.8-.1a4 4 0 0 1 2.2 4.6l-7.5 32 1.4.3 7.5-32a4 4 0 0 0-2.9-4.8M91.6 316.7l-.7-.1c2 .9 3.2 3.2 2.6 5.6L89 341.9l1 2.4 5-21.8c.6-2.6-.9-5.2-3.3-5.8M69.5 319l-.7.3c2.1-.2 4 1.1 4.6 3.2l5.6 18.9 2 1.8-6.2-21.1c-.6-2.3-3-3.6-5.3-3M63 325.9l-.6.3c1.8-.1 3.6 1 4.2 3l4 13.3 2 1.6-4.5-15.3c-.8-2.1-3-3.4-5-2.9"/></g><path d="M114.8 343.2c-1.5-3-6.4-2.8-11.4 2.7-3.4 3.8-5 5.2-8.4 5.2l.8-4.4-30.3 1.1s-1.8 12.6 1.2 19.4c4.4 10.2 27.2 13 34.4-4.5 1.4-3.4 4.3-6 7-9.2 3-3.9 8.4-7 6.7-10.3" fill="#ffdd67"/><g fill="#eba352"><path d="M114.8 343.2a4 4 0 0 0-1.2-1.3l.2.4c1.7 3.3-3.7 6.3-6.8 10.2-2.6 3.3-5.5 5.8-7 9.3-6.2 15-24.1 15-31.6 8 6.8 8 26.1 8.7 32.7-7 1.4-3.5 4.3-6 7-9.3 3-3.9 8.4-7 6.7-10.3"/><path d="M96.2 351c-6.4-2.4-17.7 2-16 13.4 0-10.7 9.8-13.3 15-13.3l1-.1"/></g></g><text style="line-height:125%" x="-11935.5" y="1085.9" font-weight="400" font-size="33.6" font-family="Sans" letter-spacing="0" word-spacing="0" transform="translate(12280 -864.7)"><tspan x="-11935.5" y="1085.9" font-size="25.2">Papel</tspan></text><text style="line-height:125%" x="-11988.3" y="1268" font-weight="400" font-size="33.6" font-family="Sans" letter-spacing="0" word-spacing="0" transform="translate(12280 -864.7)"><tspan x="-11988.3" y="1268" font-size="25.2">Tijera</tspan></text><text style="line-height:125%" x="-12277" y="1085.1" font-weight="400" font-size="33.6" font-family="Sans" letter-spacing="0" word-spacing="0" transform="translate(12280 -864.7)"><tspan x="-12277" y="1085.1" font-size="25.2">Lagarto</tspan></text><text style="line-height:125%" x="-12230.9" y="1266" font-weight="400" font-size="33.6" font-family="Sans" letter-spacing="0" word-spacing="0" transform="translate(12280 -864.7)"><tspan x="-12230.9" y="1266" font-size="25.2">Spock</tspan></text><path d="M-12154.9 1225.2l159.7.2" fill="none" stroke="#000" stroke-width="3" marker-end="url(#a)" transform="translate(12280 -864.7)"/><path d="M-11942.6 1190.8l27.4-85.6" fill="none" stroke="#000" stroke-width="3" marker-end="url(#b)" transform="translate(12280 -864.7)"/><path d="M-11932 1014.5l-99.2-72.7" fill="none" stroke="#000" stroke-width="3" marker-end="url(#c)" transform="translate(12280 -864.7)"/><path d="M-12100 937.8l-94.5 68.8" fill="none" stroke="#000" stroke-width="3" marker-end="url(#d)" transform="translate(12280 -864.7)"/><path d="M-12222.6 1093.7l21.8 71" fill="none" stroke="#000" stroke-width="3" marker-end="url(#e)" transform="translate(12280 -864.7)"/><path d="M-12170.3 1185.5l78.2-219.1" fill="none" stroke="#000" stroke-width="3" marker-end="url(#f)" transform="translate(12280 -864.7)"/><path d="M-12054 959.8l75.1 211" fill="none" stroke="#000" stroke-width="3" marker-end="url(#g)" transform="translate(12280 -864.7)"/><path d="M-11939.6 1051.8L-12152 1194" fill="none" stroke="#000" stroke-width="3" marker-end="url(#h)" transform="translate(12280 -864.7)"/><path d="M-12196.6 1036.5l243.3.1" fill="none" stroke="#000" stroke-width="3" marker-end="url(#i)" transform="translate(12280 -864.7)"/><path d="M-11992.8 1201.2l-197-145.3" fill="none" stroke="#000" stroke-width="3" marker-end="url(#j)" transform="translate(12280 -864.7)"/></svg>