<svg xmlns="http://www.w3.org/2000/svg" width="600" height="240" viewBox="-40 -40 600 240"><path fill="none" stroke="#000" d="M-10-10h500v180H-10z"/><path stroke="red" d="M0-10v170M-10 0h490"/><text y="-12" fill="red" text-anchor="middle" font-size="14">0</text><path stroke="red" d="M0-8V8"/><text x="40" y="-12" fill="red" text-anchor="middle" font-size="14">40</text><path stroke="red" d="M40-8V8"/><text x="80" y="-12" fill="red" text-anchor="middle" font-size="14">80</text><path stroke="red" d="M80-8V8"/><text x="120" y="-12" fill="red" text-anchor="middle" font-size="14">120</text><path stroke="red" d="M120-8V8"/><text x="160" y="-12" fill="red" text-anchor="middle" font-size="14">160</text><path stroke="red" d="M160-8V8"/><text x="200" y="-12" fill="red" text-anchor="middle" font-size="14">200</text><path stroke="red" d="M200-8V8"/><text x="240" y="-12" fill="red" text-anchor="middle" font-size="14">240</text><path stroke="red" d="M240-8V8"/><text x="280" y="-12" fill="red" text-anchor="middle" font-size="14">280</text><path stroke="red" d="M280-8V8"/><text x="320" y="-12" fill="red" text-anchor="middle" font-size="14">320</text><path stroke="red" d="M320-8V8"/><text x="360" y="-12" fill="red" text-anchor="middle" font-size="14">360</text><path stroke="red" d="M360-8V8"/><text x="400" y="-12" fill="red" text-anchor="middle" font-size="14">400</text><path stroke="red" d="M400-8V8"/><text x="440" y="-12" fill="red" text-anchor="middle" font-size="14">440</text><path stroke="red" d="M440-8V8"/><text x="-22" y="5" fill="#00f" text-anchor="middle" font-size="14">0</text><path stroke="#00f" d="M-8 0H8"/><text x="-22" y="45" fill="#00f" text-anchor="middle" font-size="14">40</text><path stroke="#00f" d="M-8 40H8"/><text x="-22" y="85" fill="#00f" text-anchor="middle" font-size="14">80</text><path stroke="#00f" d="M-8 80H8"/><text x="-22" y="125" fill="#00f" text-anchor="middle" font-size="14">120</text><path stroke="#00f" d="M-8 120H8"/><circle r="5"/><circle cx="40" r="5"/><circle cx="80" r="5"/><circle cx="120" r="5"/><circle cx="160" r="5"/><circle cx="200" r="5"/><circle cx="240" r="5"/><circle cx="280" r="5"/><circle cx="320" r="5"/><circle cx="360" r="5"/><circle cx="400" r="5"/><circle cx="440" r="5"/><circle cy="40" r="5"/><circle cx="40" cy="40" r="5"/><circle cx="80" cy="40" r="5"/><circle cx="120" cy="40" r="5"/><circle cx="160" cy="40" r="5"/><circle cx="200" cy="40" r="5"/><circle cx="240" cy="40" r="5"/><circle cx="280" cy="40" r="5"/><circle cx="320" cy="40" r="5"/><circle cx="360" cy="40" r="5"/><circle cx="400" cy="40" r="5"/><circle cx="440" cy="40" r="5"/><circle cy="80" r="5"/><circle cx="40" cy="80" r="5"/><circle cx="80" cy="80" r="5"/><circle cx="120" cy="80" r="5"/><circle cx="160" cy="80" r="5"/><circle cx="200" cy="80" r="5"/><circle cx="240" cy="80" r="5"/><circle cx="280" cy="80" r="5"/><circle cx="320" cy="80" r="5"/><circle cx="360" cy="80" r="5"/><circle cx="400" cy="80" r="5"/><circle cx="440" cy="80" r="5"/><circle cy="120" r="5"/><circle cx="40" cy="120" r="5"/><circle cx="80" cy="120" r="5"/><circle cx="120" cy="120" r="5"/><circle cx="160" cy="120" r="5"/><circle cx="200" cy="120" r="5"/><circle cx="240" cy="120" r="5"/><circle cx="280" cy="120" r="5"/><circle cx="320" cy="120" r="5"/><circle cx="360" cy="120" r="5"/><circle cx="400" cy="120" r="5"/><circle cx="440" cy="120" r="5"/></svg>
