<svg xmlns="http://www.w3.org/2000/svg" width="680" height="340" viewBox="-40 -40 680 340"><path fill="none" stroke="#000" d="M-10-10h620v300H-10z"/><path stroke="red" d="M0-10v290M-10 0h610"/><text y="-12" fill="red" text-anchor="middle" font-size="14">0</text><path stroke="red" d="M0-8V8"/><text x="30" y="-12" fill="red" text-anchor="middle" font-size="14">30</text><path stroke="red" d="M30-8V8"/><text x="60" y="-12" fill="red" text-anchor="middle" font-size="14">60</text><path stroke="red" d="M60-8V8"/><text x="90" y="-12" fill="red" text-anchor="middle" font-size="14">90</text><path stroke="red" d="M90-8V8"/><text x="120" y="-12" fill="red" text-anchor="middle" font-size="14">120</text><path stroke="red" d="M120-8V8"/><text x="150" y="-12" fill="red" text-anchor="middle" font-size="14">150</text><path stroke="red" d="M150-8V8"/><text x="180" y="-12" fill="red" text-anchor="middle" font-size="14">180</text><path stroke="red" d="M180-8V8"/><text x="210" y="-12" fill="red" text-anchor="middle" font-size="14">210</text><path stroke="red" d="M210-8V8"/><text x="240" y="-12" fill="red" text-anchor="middle" font-size="14">240</text><path stroke="red" d="M240-8V8"/><text x="270" y="-12" fill="red" text-anchor="middle" font-size="14">270</text><path stroke="red" d="M270-8V8"/><text x="300" y="-12" fill="red" text-anchor="middle" font-size="14">300</text><path stroke="red" d="M300-8V8"/><text x="330" y="-12" fill="red" text-anchor="middle" font-size="14">330</text><path stroke="red" d="M330-8V8"/><text x="360" y="-12" fill="red" text-anchor="middle" font-size="14">360</text><path stroke="red" d="M360-8V8"/><text x="390" y="-12" fill="red" text-anchor="middle" font-size="14">390</text><path stroke="red" d="M390-8V8"/><text x="420" y="-12" fill="red" text-anchor="middle" font-size="14">420</text><path stroke="red" d="M420-8V8"/><text x="450" y="-12" fill="red" text-anchor="middle" font-size="14">450</text><path stroke="red" d="M450-8V8"/><text x="480" y="-12" fill="red" text-anchor="middle" font-size="14">480</text><path stroke="red" d="M480-8V8"/><text x="510" y="-12" fill="red" text-anchor="middle" font-size="14">510</text><path stroke="red" d="M510-8V8"/><text x="540" y="-12" fill="red" text-anchor="middle" font-size="14">540</text><path stroke="red" d="M540-8V8"/><text x="570" y="-12" fill="red" text-anchor="middle" font-size="14">570</text><path stroke="red" d="M570-8V8"/><text x="-22" y="5" fill="#00f" text-anchor="middle" font-size="14">0</text><path stroke="#00f" d="M-8 0H8"/><text x="-22" y="85" fill="#00f" text-anchor="middle" font-size="14">80</text><path stroke="#00f" d="M-8 80H8"/><text x="-22" y="165" fill="#00f" text-anchor="middle" font-size="14">160</text><path stroke="#00f" d="M-8 160H8"/><text x="-22" y="245" fill="#00f" text-anchor="middle" font-size="14">240</text><path stroke="#00f" d="M-8 240H8"/><circle r="5"/><circle cx="30" r="5"/><circle cx="60" r="5"/><circle cx="90" r="5"/><circle cx="120" r="5"/><circle cx="150" r="5"/><circle cx="180" r="5"/><circle cx="210" r="5"/><circle cx="240" r="5"/><circle cx="270" r="5"/><circle cx="300" r="5"/><circle cx="330" r="5"/><circle cx="360" r="5"/><circle cx="390" r="5"/><circle cx="420" r="5"/><circle cx="450" r="5"/><circle cx="480" r="5"/><circle cx="510" r="5"/><circle cx="540" r="5"/><circle cx="570" r="5"/><circle cy="80" r="5"/><circle cx="30" cy="80" r="5"/><circle cx="60" cy="80" r="5"/><circle cx="90" cy="80" r="5"/><circle cx="120" cy="80" r="5"/><circle cx="150" cy="80" r="5"/><circle cx="180" cy="80" r="5"/><circle cx="210" cy="80" r="5"/><circle cx="240" cy="80" r="5"/><circle cx="270" cy="80" r="5"/><circle cx="300" cy="80" r="5"/><circle cx="330" cy="80" r="5"/><circle cx="360" cy="80" r="5"/><circle cx="390" cy="80" r="5"/><circle cx="420" cy="80" r="5"/><circle cx="450" cy="80" r="5"/><circle cx="480" cy="80" r="5"/><circle cx="510" cy="80" r="5"/><circle cx="540" cy="80" r="5"/><circle cx="570" cy="80" r="5"/><circle cy="160" r="5"/><circle cx="30" cy="160" r="5"/><circle cx="60" cy="160" r="5"/><circle cx="90" cy="160" r="5"/><circle cx="120" cy="160" r="5"/><circle cx="150" cy="160" r="5"/><circle cx="180" cy="160" r="5"/><circle cx="210" cy="160" r="5"/><circle cx="240" cy="160" r="5"/><circle cx="270" cy="160" r="5"/><circle cx="300" cy="160" r="5"/><circle cx="330" cy="160" r="5"/><circle cx="360" cy="160" r="5"/><circle cx="390" cy="160" r="5"/><circle cx="420" cy="160" r="5"/><circle cx="450" cy="160" r="5"/><circle cx="480" cy="160" r="5"/><circle cx="510" cy="160" r="5"/><circle cx="540" cy="160" r="5"/><circle cx="570" cy="160" r="5"/><circle cy="240" r="5"/><circle cx="30" cy="240" r="5"/><circle cx="60" cy="240" r="5"/><circle cx="90" cy="240" r="5"/><circle cx="120" cy="240" r="5"/><circle cx="150" cy="240" r="5"/><circle cx="180" cy="240" r="5"/><circle cx="210" cy="240" r="5"/><circle cx="240" cy="240" r="5"/><circle cx="270" cy="240" r="5"/><circle cx="300" cy="240" r="5"/><circle cx="330" cy="240" r="5"/><circle cx="360" cy="240" r="5"/><circle cx="390" cy="240" r="5"/><circle cx="420" cy="240" r="5"/><circle cx="450" cy="240" r="5"/><circle cx="480" cy="240" r="5"/><circle cx="510" cy="240" r="5"/><circle cx="540" cy="240" r="5"/><circle cx="570" cy="240" r="5"/></svg>
