<svg xmlns="http://www.w3.org/2000/svg" width="460" height="220" viewBox="-40 -40 460 220"><path fill="none" stroke="#000" d="M-10-10h320v160H-10z"/><circle r="5"/><path fill="none" stroke="red" d="M-6-6H6V6H-6z"/><circle cx="30" r="5"/><path fill="none" stroke="red" d="M24-6h12V6H24z"/><circle cx="60" r="5"/><path fill="none" stroke="red" d="M54-6h12V6H54z"/><circle cx="90" r="5"/><path fill="none" stroke="red" d="M84-6h12V6H84z"/><circle cx="120" r="5"/><path fill="none" stroke="red" d="M114-6h12V6h-12z"/><circle cx="150" r="5"/><path fill="none" stroke="red" d="M144-6h12V6h-12z"/><circle cx="180" r="5"/><path fill="none" stroke="red" d="M174-6h12V6h-12z"/><circle cx="210" r="5"/><path fill="none" stroke="red" d="M204-6h12V6h-12z"/><circle cx="240" r="5"/><path fill="none" stroke="red" d="M234-6h12V6h-12z"/><circle cx="270" r="5"/><path fill="none" stroke="red" d="M264-6h12V6h-12z"/><circle cx="300" r="5"/><path fill="none" stroke="red" d="M294-6h12V6h-12z"/><path fill="none" stroke="#00f" d="M-8-9h318V9H-8z"/><circle cy="30" r="5"/><path fill="none" stroke="red" d="M-6 24H6v12H-6z"/><circle cx="30" cy="30" r="5"/><path fill="none" stroke="red" d="M24 24h12v12H24z"/><circle cx="60" cy="30" r="5"/><path fill="none" stroke="red" d="M54 24h12v12H54z"/><circle cx="90" cy="30" r="5"/><path fill="none" stroke="red" d="M84 24h12v12H84z"/><circle cx="120" cy="30" r="5"/><path fill="none" stroke="red" d="M114 24h12v12h-12z"/><circle cx="150" cy="30" r="5"/><path fill="none" stroke="red" d="M144 24h12v12h-12z"/><circle cx="180" cy="30" r="5"/><path fill="none" stroke="red" d="M174 24h12v12h-12z"/><circle cx="210" cy="30" r="5"/><path fill="none" stroke="red" d="M204 24h12v12h-12z"/><circle cx="240" cy="30" r="5"/><path fill="none" stroke="red" d="M234 24h12v12h-12z"/><circle cx="270" cy="30" r="5"/><path fill="none" stroke="red" d="M264 24h12v12h-12z"/><circle cx="300" cy="30" r="5"/><path fill="none" stroke="red" d="M294 24h12v12h-12z"/><path fill="none" stroke="#00f" d="M-8 21h318v18H-8z"/><circle cy="60" r="5"/><path fill="none" stroke="red" d="M-6 54H6v12H-6z"/><circle cx="30" cy="60" r="5"/><path fill="none" stroke="red" d="M24 54h12v12H24z"/><circle cx="60" cy="60" r="5"/><path fill="none" stroke="red" d="M54 54h12v12H54z"/><circle cx="90" cy="60" r="5"/><path fill="none" stroke="red" d="M84 54h12v12H84z"/><circle cx="120" cy="60" r="5"/><path fill="none" stroke="red" d="M114 54h12v12h-12z"/><circle cx="150" cy="60" r="5"/><path fill="none" stroke="red" d="M144 54h12v12h-12z"/><circle cx="180" cy="60" r="5"/><path fill="none" stroke="red" d="M174 54h12v12h-12z"/><circle cx="210" cy="60" r="5"/><path fill="none" stroke="red" d="M204 54h12v12h-12z"/><circle cx="240" cy="60" r="5"/><path fill="none" stroke="red" d="M234 54h12v12h-12z"/><circle cx="270" cy="60" r="5"/><path fill="none" stroke="red" d="M264 54h12v12h-12z"/><circle cx="300" cy="60" r="5"/><path fill="none" stroke="red" d="M294 54h12v12h-12z"/><path fill="none" stroke="#00f" d="M-8 51h318v18H-8z"/><circle cy="90" r="5"/><path fill="none" stroke="red" d="M-6 84H6v12H-6z"/><circle cx="30" cy="90" r="5"/><path fill="none" stroke="red" d="M24 84h12v12H24z"/><circle cx="60" cy="90" r="5"/><path fill="none" stroke="red" d="M54 84h12v12H54z"/><circle cx="90" cy="90" r="5"/><path fill="none" stroke="red" d="M84 84h12v12H84z"/><circle cx="120" cy="90" r="5"/><path fill="none" stroke="red" d="M114 84h12v12h-12z"/><circle cx="150" cy="90" r="5"/><path fill="none" stroke="red" d="M144 84h12v12h-12z"/><circle cx="180" cy="90" r="5"/><path fill="none" stroke="red" d="M174 84h12v12h-12z"/><circle cx="210" cy="90" r="5"/><path fill="none" stroke="red" d="M204 84h12v12h-12z"/><circle cx="240" cy="90" r="5"/><path fill="none" stroke="red" d="M234 84h12v12h-12z"/><circle cx="270" cy="90" r="5"/><path fill="none" stroke="red" d="M264 84h12v12h-12z"/><circle cx="300" cy="90" r="5"/><path fill="none" stroke="red" d="M294 84h12v12h-12z"/><path fill="none" stroke="#00f" d="M-8 81h318v18H-8z"/><text x="-28" y="50" fill="#00f" text-anchor="middle" font-size="18">i</text><text x="-20" y="5" fill="#00f" text-anchor="middle" font-size="14">0</text><text x="-20" y="35" fill="#00f" text-anchor="middle" font-size="14">1</text><text x="-20" y="65" fill="#00f" text-anchor="middle" font-size="14">2</text><text x="-20" y="95" fill="#00f" text-anchor="middle" font-size="14">3</text><text x="150" y="-28" fill="red" text-anchor="middle" font-size="18">j</text><text y="-13" fill="red" text-anchor="middle" font-size="14">0</text><text x="30" y="-13" fill="red" text-anchor="middle" font-size="14">1</text><text x="60" y="-13" fill="red" text-anchor="middle" font-size="14">2</text><text x="90" y="-13" fill="red" text-anchor="middle" font-size="14">3</text><text x="120" y="-13" fill="red" text-anchor="middle" font-size="14">4</text><text x="150" y="-13" fill="red" text-anchor="middle" font-size="14">5</text><text x="180" y="-13" fill="red" text-anchor="middle" font-size="14">6</text><text x="210" y="-13" fill="red" text-anchor="middle" font-size="14">7</text><text x="240" y="-13" fill="red" text-anchor="middle" font-size="14">8</text><text x="270" y="-13" fill="red" text-anchor="middle" font-size="14">9</text><text x="300" y="-13" fill="red" text-anchor="middle" font-size="14">10</text></svg>
