<?xml version="1.0" encoding="UTF-8" standalone="no"?>
<svg xmlns="http://www.w3.org/2000/svg" width="361.79" height="314.27">
  <defs>
    <marker id="a" orient="auto" overflow="visible">
      <path fill-rule="evenodd" stroke="#000" stroke-width=".4pt" d="M-4 0l-2 2 7-2-7-2 2 2z"/>
    </marker>
  </defs>
  <path fill="none" stroke="red" stroke-width="1.01" d="M308.77 157.14c0 83.74-67.9 151.63-151.63 151.63-83.75 0-151.64-67.9-151.64-151.63C5.5 73.4 73.4 5.5 157.14 5.5c83.74 0 151.63 67.9 151.63 151.64z" opacity=".95" color="#000" overflow="visible"/>
  <path fill="none" stroke="#000" stroke-width="2" d="M181.78 741.1l305.35-.96m-278.66 30.1l-.96-219.58" marker-end="url(#a)" transform="translate(-132.835 -514.56)"/>
  <text x="296.73" y="690.15" style="text-align:start;line-height:125%;-inkscape-font-specification:Arial" font-size="40" letter-spacing="0" word-spacing="0" font-family="Arial" transform="translate(-132.835 -514.56)">
    <tspan x="296.73" y="690.15" font-size="14">C(x<tspan font-size="65%" baseline-shift="sub">1</tspan>, y<tspan font-size="65%" baseline-shift="sub">1</tspan>)</tspan>
  </text>
  <path fill="none" stroke="#000" d="M157.22 159.47l-.17 79.3" stroke-dasharray="2.00000001, 1"/>
  <text x="282.93" y="766.15" style="text-align:start;line-height:125%;-inkscape-font-specification:Arial" font-size="40" letter-spacing="0" word-spacing="0" font-family="Arial" transform="translate(-132.835 -514.56)">
    <tspan x="282.93" y="766.15" font-size="24"><tspan font-size="16">x</tspan><tspan font-size="65%" baseline-shift="sub">1</tspan></tspan>
  </text>
  <path fill="none" stroke="#000" d="M66.46 157.22l224.45-.17" stroke-dasharray="2.00000002, 1"/>
  <text x="181.29" y="673.44" style="text-align:start;line-height:125%;-inkscape-font-specification:Arial" font-size="40" letter-spacing="0" word-spacing="0" font-family="Arial" transform="translate(-132.835 -514.56)">
    <tspan x="181.29" y="673.44" font-size="24"><tspan font-size="16">y</tspan><tspan font-size="65%" baseline-shift="sub">1</tspan></tspan>
  </text>
  <path fill="none" stroke="#000" d="M291.2 85.94l-.2 154.2" stroke-dasharray="1.99999996, 0.99999997"/>
  <path fill="red" stroke="red" stroke-width="2" d="M291.6 85.74c0 .28-.22.5-.5.5s-.5-.22-.5-.5c0-.27.22-.5.5-.5s.5.23.5.5z" opacity=".95" color="#000" overflow="visible"/>
  <text x="419.94" y="766.15" style="text-align:start;line-height:125%;-inkscape-font-specification:Arial" font-size="40" letter-spacing="0" word-spacing="0" font-family="Arial" transform="translate(-132.835 -514.56)">
    <tspan x="419.94" y="766.15" font-size="24"><tspan font-size="16">x</tspan></tspan>
  </text>
  <path fill="none" stroke="#000" d="M66.88 85.83l222.95-.17" stroke-dasharray="2.00000005, 1.00000001"/>
  <text x="187.24" y="602.05" style="text-align:start;line-height:125%;-inkscape-font-specification:Arial" font-size="40" letter-spacing="0" word-spacing="0" font-family="Arial" transform="translate(-132.835 -514.56)">
    <tspan x="187.24" y="602.05" font-size="24"><tspan font-size="16">y</tspan></tspan>
  </text>
  <path fill="none" stroke="#000" d="M156.47 157.38l134.38-71.4"/>
  <path fill="red" stroke="red" stroke-width="2" d="M157.64 157.13c0 .28-.23.5-.5.5-.28 0-.5-.22-.5-.5 0-.27.22-.5.5-.5.27 0 .5.23.5.5z" opacity=".95" color="#000" overflow="visible"/>
  <text x="428.14" y="596.62" style="text-align:start;line-height:125%;-inkscape-font-specification:Arial" font-size="40" letter-spacing="0" word-spacing="0" font-family="Arial" transform="translate(-132.835 -514.56)">
    <tspan x="428.14" y="596.62" font-size="14">M(x, y)</tspan>
  </text>
  <path fill="none" stroke="#000" d="M282.27 157.22l-.08-9 9 .04"/>
  <text x="428.58" y="686.64" style="text-align:start;line-height:125%;-inkscape-font-specification:Arial" font-size="40" letter-spacing="0" word-spacing="0" font-family="Arial" transform="translate(-132.835 -514.56)">
    <tspan x="428.58" y="686.64" font-size="14">B(x, y<tspan font-size="65%" baseline-shift="sub">1</tspan>)</tspan>
  </text>
  <text x="340.58" y="627.34" style="text-align:start;line-height:125%;-inkscape-font-specification:Arial" font-size="40" letter-spacing="0" word-spacing="0" font-family="Arial" transform="translate(-132.835 -514.56)">
    <tspan x="340.58" y="627.34" font-size="14">R</tspan>
  </text>
  <path fill="red" stroke="red" stroke-width="2" d="M291.58 157.1a.5.5 0 1 1-1 0 .5.5 0 1 1 1 0z" opacity=".95" color="#000" overflow="visible"/>
</svg>

