<?xml version="1.0" encoding="UTF-8" standalone="no"?>
<svg xmlns="http://www.w3.org/2000/svg" width="319.4" height="234.12">
  <defs>
    <marker id="a" orient="auto" overflow="visible">
      <path fill-rule="evenodd" stroke="#000" stroke-width=".4pt" d="M-4 0l-2 2 7-2-7-2 2 2z"/>
    </marker>
  </defs>
  <path fill="none" stroke="#000" stroke-width="2" d="M140.85 816.6l305.34-.95m-278.67 30.1l-.96-219.58" marker-end="url(#a)" transform="translate(-135.617 -617.345)"/>
  <text x="255.8" y="765.66" style="text-align:start;line-height:125%;-inkscape-font-specification:Arial" font-size="40" letter-spacing="0" word-spacing="0" font-family="Arial" transform="translate(-135.617 -617.345)">
    <tspan x="255.8" y="765.66" font-size="14">A(x<tspan font-size="65%" baseline-shift="sub">1</tspan>, y<tspan font-size="65%" baseline-shift="sub">1</tspan>)</tspan>
  </text>
  <path fill="none" stroke="#000" d="M113.5 132.2l-.16 79.3" stroke-dasharray="2.00000001, 1"/>
  <text x="242" y="841.66" style="text-align:start;line-height:125%;-inkscape-font-specification:Arial" font-size="40" letter-spacing="0" word-spacing="0" font-family="Arial" transform="translate(-135.617 -617.345)">
    <tspan x="242" y="841.66" font-size="24"><tspan font-size="16">x</tspan><tspan font-size="65%" baseline-shift="sub">1</tspan></tspan>
  </text>
  <path fill="none" stroke="#000" d="M22.75 129.95l88.6-.17" stroke-dasharray="1.99999999, 0.99999998"/>
  <path fill="red" stroke="red" stroke-width="2" d="M113.92 129.86c0 .28-.22.5-.5.5-.27 0-.5-.22-.5-.5 0-.27.23-.5.5-.5.28 0 .5.23.5.5z" opacity=".95" color="#000" overflow="visible"/>
  <text x="140.36" y="748.96" style="text-align:start;line-height:125%;-inkscape-font-specification:Arial" font-size="40" letter-spacing="0" word-spacing="0" font-family="Arial" transform="translate(-135.617 -617.345)">
    <tspan x="140.36" y="748.96" font-size="24"><tspan font-size="16">y</tspan><tspan font-size="65%" baseline-shift="sub">1</tspan></tspan>
  </text>
  <path fill="none" stroke="#000" d="M247.47 58.67l-.17 154.2" stroke-dasharray="1.99999996, 0.99999997"/>
  <path fill="red" stroke="red" stroke-width="2" d="M247.9 58.47c0 .28-.24.5-.5.5-.3 0-.5-.22-.5-.5 0-.27.2-.5.5-.5.26 0 .5.23.5.5z" opacity=".95" color="#000" overflow="visible"/>
  <text x="375.96" y="841.66" style="text-align:start;line-height:125%;-inkscape-font-specification:Arial" font-size="40" letter-spacing="0" word-spacing="0" font-family="Arial" transform="translate(-135.617 -617.345)">
    <tspan x="375.96" y="841.66" font-size="24"><tspan font-size="16">x</tspan><tspan font-size="65%" baseline-shift="sub">2</tspan></tspan>
  </text>
  <path fill="none" stroke="#000" d="M23.16 58.56l222.96-.17" stroke-dasharray="2.00000005, 1.00000001"/>
  <text x="140.36" y="677.57" style="text-align:start;line-height:125%;-inkscape-font-specification:Arial" font-size="40" letter-spacing="0" word-spacing="0" font-family="Arial" transform="translate(-135.617 -617.345)">
    <tspan x="140.36" y="677.57" font-size="24"><tspan font-size="16">y</tspan><tspan font-size="65%" baseline-shift="sub">2</tspan></tspan>
  </text>
  <path fill="none" stroke="red" d="M113.18 130.13l134.14-71.57"/>
  <text x="389.57" y="684.89" style="text-align:start;line-height:125%;-inkscape-font-specification:Arial" font-size="40" letter-spacing="0" word-spacing="0" font-family="Arial" transform="translate(-135.617 -617.345)">
    <tspan x="389.57" y="684.89" font-size="14">B(x<tspan font-size="65%" baseline-shift="sub">2</tspan>, y<tspan font-size="65%" baseline-shift="sub">2</tspan>)</tspan>
  </text>
  <text x="304.2" y="706.88" style="text-align:start;line-height:125%;-inkscape-font-specification:Arial" font-size="40" letter-spacing="0" word-spacing="0" font-family="Arial" transform="translate(-135.617 -617.345)">
    <tspan x="304.2" y="706.88" font-size="14">d</tspan>
  </text>
</svg>

