<?xml version="1.0" encoding="UTF-8" standalone="no"?>
<svg xmlns="http://www.w3.org/2000/svg" width="363.1" height="314.24">
  <defs>
    <marker id="a" orient="auto" overflow="visible">
      <path fill-rule="evenodd" stroke="#000" stroke-width=".4pt" d="M-4 0l-2 2 7-2-7-2 2 2z"/>
    </marker>
  </defs>
  <path fill="none" stroke="red" stroke-width="1.01" d="M308.76 157.1a151.64 151.64 0 1 1-303.27 0 151.64 151.64 0 1 1 303.24 0z" opacity=".95" color="#000" overflow="visible"/>
  <path fill="none" stroke="#000" stroke-width="2" d="M365.2 764.62l305.34-.96m-278.66 30.1l-.95-219.58" marker-end="url(#a)" transform="translate(-316.26 -538.106)"/>
  <text x="480.14" y="713.67" style="text-align:start;line-height:125%;-inkscape-font-specification:Arial" font-size="40" letter-spacing="0" word-spacing="0" font-family="Arial" transform="translate(-316.26 -538.106)">
    <tspan x="480.14" y="713.67" font-size="14">C(x<tspan font-size="65%" baseline-shift="sub">1</tspan>, y<tspan font-size="65%" baseline-shift="sub">1</tspan>)</tspan>
  </text>
  <path fill="none" stroke="#000" d="M157.2 159.45l-.16 79.3" stroke-dasharray="2.00000001, 1"/>
  <text x="466.34" y="789.68" style="text-align:start;line-height:125%;-inkscape-font-specification:Arial" font-size="40" letter-spacing="0" word-spacing="0" font-family="Arial" transform="translate(-316.26 -538.106)">
    <tspan x="466.34" y="789.68" font-size="24"><tspan font-size="16">x</tspan><tspan font-size="65%" baseline-shift="sub">1</tspan></tspan>
  </text>
  <path fill="none" stroke="#000" d="M66.45 157.2l90.2-.17" stroke-dasharray="2.00000003, 1"/>
  <text x="364.7" y="696.97" style="text-align:start;line-height:125%;-inkscape-font-specification:Arial" font-size="40" letter-spacing="0" word-spacing="0" font-family="Arial" transform="translate(-316.26 -538.106)">
    <tspan x="364.7" y="696.97" font-size="24"><tspan font-size="16">y</tspan><tspan font-size="65%" baseline-shift="sub">1</tspan></tspan>
  </text>
  <path fill="none" stroke="#000" d="M291.17 85.92l-.17 154.2" stroke-dasharray="1.99999996, 0.99999997"/>
  <path fill="red" stroke="red" stroke-width="2" d="M291.6 85.72a.5.5 0 1 1-1 0 .5.5 0 1 1 1 0z" opacity=".95" color="#000" overflow="visible"/>
  <text x="603.35" y="789.68" style="text-align:start;line-height:125%;-inkscape-font-specification:Arial" font-size="40" letter-spacing="0" word-spacing="0" font-family="Arial" transform="translate(-316.26 -538.106)">
    <tspan x="603.35" y="789.68" font-size="24"><tspan font-size="16">x</tspan></tspan>
  </text>
  <path fill="none" stroke="#000" d="M66.86 85.8l222.96-.16" stroke-dasharray="2.00000005, 1.00000001"/>
  <text x="370.66" y="625.58" style="text-align:start;line-height:125%;-inkscape-font-specification:Arial" font-size="40" letter-spacing="0" word-spacing="0" font-family="Arial" transform="translate(-316.26 -538.106)">
    <tspan x="370.66" y="625.58" font-size="24"><tspan font-size="16">y</tspan></tspan>
  </text>
  <path fill="none" stroke="#000" d="M156.45 157.36l134.4-71.4"/>
  <path fill="red" stroke="red" stroke-width="2" d="M157.62 157.1a.5.5 0 1 1-1 0 .5.5 0 1 1 1 0z" opacity=".95" color="#000" overflow="visible"/>
  <text x="611.55" y="620.15" style="text-align:start;line-height:125%;-inkscape-font-specification:Arial" font-size="40" letter-spacing="0" word-spacing="0" font-family="Arial" transform="translate(-316.26 -538.106)">
    <tspan x="611.55" y="620.15" font-size="14">M(x, y)</tspan>
  </text>
  <text x="523.99" y="650.87" style="text-align:start;line-height:125%;-inkscape-font-specification:Arial" font-size="40" letter-spacing="0" word-spacing="0" font-family="Arial" transform="translate(-316.26 -538.106)">
    <tspan x="523.99" y="650.87" font-size="14">R</tspan>
  </text>
</svg>
