<?xml version="1.0" encoding="UTF-8" standalone="no"?>
<svg xmlns="http://www.w3.org/2000/svg" width="319.4" height="234.1">
  <defs>
    <marker id="a" orient="auto" overflow="visible">
      <path fill-rule="evenodd" stroke="#000" stroke-width=".5" d="M-4 0l-2 2 7-2-7-2 2 2z"/>
    </marker>
  </defs>
  <path fill="none" stroke="#000" stroke-width="2" d="M253.4 835.7l305.4-1m-278.8 30l-.8-219.4" marker-end="url(#a)" transform="translate(-248.216 -636.437)"/>
  <text x="368.4" y="784.8" style="text-align:start;line-height:125%;-inkscape-font-specification:Arial" font-size="40" letter-spacing="0" word-spacing="0" font-family="Arial" transform="translate(-248.216 -636.437)">
    <tspan x="368.4" y="784.8" font-size="14">A(x<tspan font-size="65%" baseline-shift="sub">1</tspan>, y<tspan font-size="65%" baseline-shift="sub">1</tspan>)</tspan>
  </text>
  <path fill="none" stroke="#000" d="M113.5 132.2l-.2 79.3" stroke-dasharray="2.00000001, 1"/>
  <text x="354.6" y="860.8" style="text-align:start;line-height:125%;-inkscape-font-specification:Arial" font-size="40" letter-spacing="0" word-spacing="0" font-family="Arial" transform="translate(-248.216 -636.437)">
    <tspan x="354.6" y="860.8" font-size="24"><tspan font-size="16">x</tspan><tspan font-size="65%" baseline-shift="sub">1</tspan></tspan>
  </text>
  <path fill="none" stroke="#000" d="M22.7 130l224.5-.2" stroke-dasharray="2.00000002, 1"/>
  <path fill="red" stroke="red" stroke-width="2" d="M114 130a.5.5 0 1 1-1 0 .5.5 0 1 1 1 0z" opacity=".9" color="#000" overflow="visible"/>
  <text x="253" y="768" style="text-align:start;line-height:125%;-inkscape-font-specification:Arial" font-size="40" letter-spacing="0" word-spacing="0" font-family="Arial" transform="translate(-248.216 -636.437)">
    <tspan x="253" y="768" font-size="24"><tspan font-size="16">y</tspan><tspan font-size="65%" baseline-shift="sub">1</tspan></tspan>
  </text>
  <path fill="none" stroke="#000" d="M247.5 58.7l-.2 154.2" stroke-dasharray="1.99999996, 0.99999997"/>
  <path fill="red" stroke="red" stroke-width="2" d="M248 58.5a.5.5 0 1 1-1 0 .5.5 0 1 1 1 0z" opacity=".9" color="#000" overflow="visible"/>
  <text x="488.6" y="860.8" style="text-align:start;line-height:125%;-inkscape-font-specification:Arial" font-size="40" letter-spacing="0" word-spacing="0" font-family="Arial" transform="translate(-248.216 -636.437)">
    <tspan x="488.6" y="860.8" font-size="24"><tspan font-size="16">x</tspan><tspan font-size="65%" baseline-shift="sub">2</tspan></tspan>
  </text>
  <path fill="none" stroke="#000" d="M23.2 58.6l223-.2" stroke-dasharray="2.00000005, 1.00000001"/>
  <text x="253" y="696.7" style="text-align:start;line-height:125%;-inkscape-font-specification:Arial" font-size="40" letter-spacing="0" word-spacing="0" font-family="Arial" transform="translate(-248.216 -636.437)">
    <tspan x="253" y="696.7" font-size="24"><tspan font-size="16">y</tspan><tspan font-size="65%" baseline-shift="sub">2</tspan></tspan>
  </text>
  <path fill="none" stroke="red" d="M113.2 130l134-71.4"/>
  <text x="502.2" y="704" style="text-align:start;line-height:125%;-inkscape-font-specification:Arial" font-size="40" letter-spacing="0" word-spacing="0" font-family="Arial" transform="translate(-248.216 -636.437)">
    <tspan x="502.2" y="704" font-size="14">B(x<tspan font-size="65%" baseline-shift="sub">2</tspan>, y<tspan font-size="65%" baseline-shift="sub">2</tspan>)</tspan>
  </text>
  <path fill="none" stroke="#000" d="M238.6 130v-9h9"/>
  <text x="500.2" y="782.2" style="text-align:start;line-height:125%;-inkscape-font-specification:Arial" font-size="40" letter-spacing="0" word-spacing="0" font-family="Arial" transform="translate(-248.216 -636.437)">
    <tspan x="500.2" y="782.2" font-size="14">C(x<tspan font-size="65%" baseline-shift="sub">2</tspan>, y<tspan font-size="65%" baseline-shift="sub">1</tspan>)</tspan>
  </text>
  <text x="416.8" y="726" style="text-align:start;line-height:125%;-inkscape-font-specification:Arial" font-size="40" letter-spacing="0" word-spacing="0" font-family="Arial" transform="translate(-248.216 -636.437)">
    <tspan x="416.8" y="726" font-size="14">d</tspan>
  </text>
  <path fill="red" stroke="red" stroke-width="2" d="M248 129.8a.5.5 0 1 1-1 0 .5.5 0 1 1 1 0z" opacity=".9" color="#000" overflow="visible"/>
</svg>

