<svg xmlns="http://www.w3.org/2000/svg" width="30.73" height="32"><path fill="#3774a6" d="M15.25 0c8.15 0 7.52 4.27 7.52 4.27v7.05c0 4.27-4.14 4.2-4.14 4.2h-7.4c-4.42 0-4.28 4.55-4.28 4.55v3.84H4.37S0 24.2 0 15.95 4.99 8.3 4.99 8.3h10.4V7.2H7.94V3.53S7.44 0 15.24 0Zm-4.1 2.47c-.73 0-1.33.62-1.33 1.4 0 .77.6 1.4 1.33 1.4.74 0 1.34-.63 1.34-1.4 0-.78-.6-1.4-1.34-1.4z" style="stroke-width:1"/><path fill="#ffdb4b" d="M15.48 32c-8.15 0-7.52-4.27-7.52-4.27v-7.05c0-4.27 4.13-4.2 4.13-4.2h7.4c4.42 0 4.28-4.55 4.28-4.55V8.09h2.6s4.36-.3 4.36 7.94-4.98 7.65-4.98 7.65H15.37v1.1h7.44v3.67S23.29 32 15.5 32zm4.1-2.47c.73 0 1.33-.62 1.33-1.4 0-.77-.6-1.4-1.33-1.4-.73 0-1.33.63-1.33 1.4 0 .78.6 1.4 1.33 1.4z" style="stroke-width:1"/></svg>