<svg xmlns="http://www.w3.org/2000/svg" width="680" height="350" viewBox="-40 -40 680 350"><path fill="none" stroke="#000" d="M-10-10h620v320H-10z"/><path fill="none" stroke="#000" d="M0 0h46v46H0zm50 0h46v46H50zm50 0h46v46h-46zm50 0h46v46h-46zm50 0h46v46h-46zm50 0h46v46h-46zm50 0h46v46h-46zm50 0h46v46h-46zm50 0h46v46h-46zm50 0h46v46h-46zm50 0h46v46h-46zm50 0h46v46h-46zM0 50h46v46H0zm50 0h46v46H50zm50 0h46v46h-46zm50 0h46v46h-46zm50 0h46v46h-46zm50 0h46v46h-46zm50 0h46v46h-46zm50 0h46v46h-46zm50 0h46v46h-46zm50 0h46v46h-46zm50 0h46v46h-46zm50 0h46v46h-46zM0 100h46v46H0zm50 0h46v46H50zm50 0h46v46h-46zm50 0h46v46h-46zm50 0h46v46h-46zm50 0h46v46h-46zm50 0h46v46h-46zm50 0h46v46h-46zm50 0h46v46h-46zm50 0h46v46h-46zm50 0h46v46h-46zm50 0h46v46h-46zM0 150h46v46H0zm50 0h46v46H50zm50 0h46v46h-46zm50 0h46v46h-46zm50 0h46v46h-46zm50 0h46v46h-46zm50 0h46v46h-46zm50 0h46v46h-46zm50 0h46v46h-46zm50 0h46v46h-46zm50 0h46v46h-46zm50 0h46v46h-46zM0 200h46v46H0zm50 0h46v46H50zm50 0h46v46h-46zm50 0h46v46h-46zm50 0h46v46h-46zm50 0h46v46h-46zm50 0h46v46h-46zm50 0h46v46h-46zm50 0h46v46h-46zm50 0h46v46h-46zm50 0h46v46h-46zm50 0h46v46h-46zM0 250h46v46H0zm50 0h46v46H50zm50 0h46v46h-46zm50 0h46v46h-46zm50 0h46v46h-46zm50 0h46v46h-46zm50 0h46v46h-46zm50 0h46v46h-46zm50 0h46v46h-46zm50 0h46v46h-46zm50 0h46v46h-46zm50 0h46v46h-46z"/><circle r="5"/><path fill="none" stroke="red" d="M-6-6H6V6H-6z"/><circle cx="50" r="5"/><path fill="none" stroke="red" d="M44-6h12V6H44z"/><circle cx="100" r="5"/><path fill="none" stroke="red" d="M94-6h12V6H94z"/><circle cx="150" r="5"/><path fill="none" stroke="red" d="M144-6h12V6h-12z"/><circle cx="200" r="5"/><path fill="none" stroke="red" d="M194-6h12V6h-12z"/><circle cx="250" r="5"/><path fill="none" stroke="red" d="M244-6h12V6h-12z"/><circle cx="300" r="5"/><path fill="none" stroke="red" d="M294-6h12V6h-12z"/><circle cx="350" r="5"/><path fill="none" stroke="red" d="M344-6h12V6h-12z"/><circle cx="400" r="5"/><path fill="none" stroke="red" d="M394-6h12V6h-12z"/><circle cx="450" r="5"/><path fill="none" stroke="red" d="M444-6h12V6h-12z"/><circle cx="500" r="5"/><path fill="none" stroke="red" d="M494-6h12V6h-12z"/><circle cx="550" r="5"/><path fill="none" stroke="red" d="M544-6h12V6h-12z"/><path fill="none" stroke="#00f" d="M-9-9h568V9H-9z"/><circle cy="50" r="5"/><path fill="none" stroke="red" d="M-6 44H6v12H-6z"/><circle cx="50" cy="50" r="5"/><path fill="none" stroke="red" d="M44 44h12v12H44z"/><circle cx="100" cy="50" r="5"/><path fill="none" stroke="red" d="M94 44h12v12H94z"/><circle cx="150" cy="50" r="5"/><path fill="none" stroke="red" d="M144 44h12v12h-12z"/><circle cx="200" cy="50" r="5"/><path fill="none" stroke="red" d="M194 44h12v12h-12z"/><circle cx="250" cy="50" r="5"/><path fill="none" stroke="red" d="M244 44h12v12h-12z"/><circle cx="300" cy="50" r="5"/><path fill="none" stroke="red" d="M294 44h12v12h-12z"/><circle cx="350" cy="50" r="5"/><path fill="none" stroke="red" d="M344 44h12v12h-12z"/><circle cx="400" cy="50" r="5"/><path fill="none" stroke="red" d="M394 44h12v12h-12z"/><circle cx="450" cy="50" r="5"/><path fill="none" stroke="red" d="M444 44h12v12h-12z"/><circle cx="500" cy="50" r="5"/><path fill="none" stroke="red" d="M494 44h12v12h-12z"/><circle cx="550" cy="50" r="5"/><path fill="none" stroke="red" d="M544 44h12v12h-12z"/><path fill="none" stroke="#00f" d="M-9 41h568v18H-9z"/><circle cy="100" r="5"/><path fill="none" stroke="red" d="M-6 94H6v12H-6z"/><circle cx="50" cy="100" r="5"/><path fill="none" stroke="red" d="M44 94h12v12H44z"/><circle cx="100" cy="100" r="5"/><path fill="none" stroke="red" d="M94 94h12v12H94z"/><circle cx="150" cy="100" r="5"/><path fill="none" stroke="red" d="M144 94h12v12h-12z"/><circle cx="200" cy="100" r="5"/><path fill="none" stroke="red" d="M194 94h12v12h-12z"/><circle cx="250" cy="100" r="5"/><path fill="none" stroke="red" d="M244 94h12v12h-12z"/><circle cx="300" cy="100" r="5"/><path fill="none" stroke="red" d="M294 94h12v12h-12z"/><circle cx="350" cy="100" r="5"/><path fill="none" stroke="red" d="M344 94h12v12h-12z"/><circle cx="400" cy="100" r="5"/><path fill="none" stroke="red" d="M394 94h12v12h-12z"/><circle cx="450" cy="100" r="5"/><path fill="none" stroke="red" d="M444 94h12v12h-12z"/><circle cx="500" cy="100" r="5"/><path fill="none" stroke="red" d="M494 94h12v12h-12z"/><circle cx="550" cy="100" r="5"/><path fill="none" stroke="red" d="M544 94h12v12h-12z"/><path fill="none" stroke="#00f" d="M-9 91h568v18H-9z"/><circle cy="150" r="5"/><path fill="none" stroke="red" d="M-6 144H6v12H-6z"/><circle cx="50" cy="150" r="5"/><path fill="none" stroke="red" d="M44 144h12v12H44z"/><circle cx="100" cy="150" r="5"/><path fill="none" stroke="red" d="M94 144h12v12H94z"/><circle cx="150" cy="150" r="5"/><path fill="none" stroke="red" d="M144 144h12v12h-12z"/><circle cx="200" cy="150" r="5"/><path fill="none" stroke="red" d="M194 144h12v12h-12z"/><circle cx="250" cy="150" r="5"/><path fill="none" stroke="red" d="M244 144h12v12h-12z"/><circle cx="300" cy="150" r="5"/><path fill="none" stroke="red" d="M294 144h12v12h-12z"/><circle cx="350" cy="150" r="5"/><path fill="none" stroke="red" d="M344 144h12v12h-12z"/><circle cx="400" cy="150" r="5"/><path fill="none" stroke="red" d="M394 144h12v12h-12z"/><circle cx="450" cy="150" r="5"/><path fill="none" stroke="red" d="M444 144h12v12h-12z"/><circle cx="500" cy="150" r="5"/><path fill="none" stroke="red" d="M494 144h12v12h-12z"/><circle cx="550" cy="150" r="5"/><path fill="none" stroke="red" d="M544 144h12v12h-12z"/><path fill="none" stroke="#00f" d="M-9 141h568v18H-9z"/><circle cy="200" r="5"/><path fill="none" stroke="red" d="M-6 194H6v12H-6z"/><circle cx="50" cy="200" r="5"/><path fill="none" stroke="red" d="M44 194h12v12H44z"/><circle cx="100" cy="200" r="5"/><path fill="none" stroke="red" d="M94 194h12v12H94z"/><circle cx="150" cy="200" r="5"/><path fill="none" stroke="red" d="M144 194h12v12h-12z"/><circle cx="200" cy="200" r="5"/><path fill="none" stroke="red" d="M194 194h12v12h-12z"/><circle cx="250" cy="200" r="5"/><path fill="none" stroke="red" d="M244 194h12v12h-12z"/><circle cx="300" cy="200" r="5"/><path fill="none" stroke="red" d="M294 194h12v12h-12z"/><circle cx="350" cy="200" r="5"/><path fill="none" stroke="red" d="M344 194h12v12h-12z"/><circle cx="400" cy="200" r="5"/><path fill="none" stroke="red" d="M394 194h12v12h-12z"/><circle cx="450" cy="200" r="5"/><path fill="none" stroke="red" d="M444 194h12v12h-12z"/><circle cx="500" cy="200" r="5"/><path fill="none" stroke="red" d="M494 194h12v12h-12z"/><circle cx="550" cy="200" r="5"/><path fill="none" stroke="red" d="M544 194h12v12h-12z"/><path fill="none" stroke="#00f" d="M-9 191h568v18H-9z"/><circle cy="250" r="5"/><path fill="none" stroke="red" d="M-6 244H6v12H-6z"/><circle cx="50" cy="250" r="5"/><path fill="none" stroke="red" d="M44 244h12v12H44z"/><circle cx="100" cy="250" r="5"/><path fill="none" stroke="red" d="M94 244h12v12H94z"/><circle cx="150" cy="250" r="5"/><path fill="none" stroke="red" d="M144 244h12v12h-12z"/><circle cx="200" cy="250" r="5"/><path fill="none" stroke="red" d="M194 244h12v12h-12z"/><circle cx="250" cy="250" r="5"/><path fill="none" stroke="red" d="M244 244h12v12h-12z"/><circle cx="300" cy="250" r="5"/><path fill="none" stroke="red" d="M294 244h12v12h-12z"/><circle cx="350" cy="250" r="5"/><path fill="none" stroke="red" d="M344 244h12v12h-12z"/><circle cx="400" cy="250" r="5"/><path fill="none" stroke="red" d="M394 244h12v12h-12z"/><circle cx="450" cy="250" r="5"/><path fill="none" stroke="red" d="M444 244h12v12h-12z"/><circle cx="500" cy="250" r="5"/><path fill="none" stroke="red" d="M494 244h12v12h-12z"/><circle cx="550" cy="250" r="5"/><path fill="none" stroke="red" d="M544 244h12v12h-12z"/><path fill="none" stroke="#00f" d="M-9 241h568v18H-9z"/><text x="-28" y="125" fill="#00f" text-anchor="middle" font-size="18">i</text><text x="-20" y="5" fill="#00f" text-anchor="middle" font-size="14">0</text><text x="-20" y="55" fill="#00f" text-anchor="middle" font-size="14">1</text><text x="-20" y="105" fill="#00f" text-anchor="middle" font-size="14">2</text><text x="-20" y="155" fill="#00f" text-anchor="middle" font-size="14">3</text><text x="-20" y="205" fill="#00f" text-anchor="middle" font-size="14">4</text><text x="-20" y="255" fill="#00f" text-anchor="middle" font-size="14">5</text><text x="325" y="-28" fill="red" text-anchor="middle" font-size="18">j</text><text y="-13" fill="red" text-anchor="middle" font-size="14">0</text><text x="50" y="-13" fill="red" text-anchor="middle" font-size="14">1</text><text x="100" y="-13" fill="red" text-anchor="middle" font-size="14">2</text><text x="150" y="-13" fill="red" text-anchor="middle" font-size="14">3</text><text x="200" y="-13" fill="red" text-anchor="middle" font-size="14">4</text><text x="250" y="-13" fill="red" text-anchor="middle" font-size="14">5</text><text x="300" y="-13" fill="red" text-anchor="middle" font-size="14">6</text><text x="350" y="-13" fill="red" text-anchor="middle" font-size="14">7</text><text x="400" y="-13" fill="red" text-anchor="middle" font-size="14">8</text><text x="450" y="-13" fill="red" text-anchor="middle" font-size="14">9</text><text x="500" y="-13" fill="red" text-anchor="middle" font-size="14">10</text><text x="550" y="-13" fill="red" text-anchor="middle" font-size="14">11</text></svg>
