<svg xmlns="http://www.w3.org/2000/svg" width="680" height="340" viewBox="-40 -40 680 340"><path fill="none" stroke="#000" d="M-10-10h610v310H-10z"/><path stroke="red" d="M0-10v300M-10 0h600"/><circle r="5" fill="red"/><circle cx="40" cy="40" r="5" fill="#00f"/><circle cx="40" r="5" fill="green"/><circle cy="40" r="5" fill="gold"/><circle cx="60" r="5" fill="red"/><circle cx="100" cy="40" r="5" fill="#00f"/><circle cx="100" r="5" fill="green"/><circle cx="60" cy="40" r="5" fill="gold"/><circle cx="120" r="5" fill="red"/><circle cx="160" cy="40" r="5" fill="#00f"/><circle cx="160" r="5" fill="green"/><circle cx="120" cy="40" r="5" fill="gold"/><circle cx="180" r="5" fill="red"/><circle cx="220" cy="40" r="5" fill="#00f"/><circle cx="220" r="5" fill="green"/><circle cx="180" cy="40" r="5" fill="gold"/><circle cx="240" r="5" fill="red"/><circle cx="280" cy="40" r="5" fill="#00f"/><circle cx="280" r="5" fill="green"/><circle cx="240" cy="40" r="5" fill="gold"/><circle cx="300" r="5" fill="red"/><circle cx="340" cy="40" r="5" fill="#00f"/><circle cx="340" r="5" fill="green"/><circle cx="300" cy="40" r="5" fill="gold"/><circle cx="360" r="5" fill="red"/><circle cx="400" cy="40" r="5" fill="#00f"/><circle cx="400" r="5" fill="green"/><circle cx="360" cy="40" r="5" fill="gold"/><circle cx="420" r="5" fill="red"/><circle cx="460" cy="40" r="5" fill="#00f"/><circle cx="460" r="5" fill="green"/><circle cx="420" cy="40" r="5" fill="gold"/><circle cx="480" r="5" fill="red"/><circle cx="520" cy="40" r="5" fill="#00f"/><circle cx="520" r="5" fill="green"/><circle cx="480" cy="40" r="5" fill="gold"/><circle cx="540" r="5" fill="red"/><circle cx="580" cy="40" r="5" fill="#00f"/><circle cx="580" r="5" fill="green"/><circle cx="540" cy="40" r="5" fill="gold"/><circle cy="60" r="5" fill="red"/><circle cx="40" cy="100" r="5" fill="#00f"/><circle cx="40" cy="60" r="5" fill="green"/><circle cy="100" r="5" fill="gold"/><circle cx="60" cy="60" r="5" fill="red"/><circle cx="100" cy="100" r="5" fill="#00f"/><circle cx="100" cy="60" r="5" fill="green"/><circle cx="60" cy="100" r="5" fill="gold"/><circle cx="120" cy="60" r="5" fill="red"/><circle cx="160" cy="100" r="5" fill="#00f"/><circle cx="160" cy="60" r="5" fill="green"/><circle cx="120" cy="100" r="5" fill="gold"/><circle cx="180" cy="60" r="5" fill="red"/><circle cx="220" cy="100" r="5" fill="#00f"/><circle cx="220" cy="60" r="5" fill="green"/><circle cx="180" cy="100" r="5" fill="gold"/><circle cx="240" cy="60" r="5" fill="red"/><circle cx="280" cy="100" r="5" fill="#00f"/><circle cx="280" cy="60" r="5" fill="green"/><circle cx="240" cy="100" r="5" fill="gold"/><circle cx="300" cy="60" r="5" fill="red"/><circle cx="340" cy="100" r="5" fill="#00f"/><circle cx="340" cy="60" r="5" fill="green"/><circle cx="300" cy="100" r="5" fill="gold"/><circle cx="360" cy="60" r="5" fill="red"/><circle cx="400" cy="100" r="5" fill="#00f"/><circle cx="400" cy="60" r="5" fill="green"/><circle cx="360" cy="100" r="5" fill="gold"/><circle cx="420" cy="60" r="5" fill="red"/><circle cx="460" cy="100" r="5" fill="#00f"/><circle cx="460" cy="60" r="5" fill="green"/><circle cx="420" cy="100" r="5" fill="gold"/><circle cx="480" cy="60" r="5" fill="red"/><circle cx="520" cy="100" r="5" fill="#00f"/><circle cx="520" cy="60" r="5" fill="green"/><circle cx="480" cy="100" r="5" fill="gold"/><circle cx="540" cy="60" r="5" fill="red"/><circle cx="580" cy="100" r="5" fill="#00f"/><circle cx="580" cy="60" r="5" fill="green"/><circle cx="540" cy="100" r="5" fill="gold"/><circle cy="120" r="5" fill="red"/><circle cx="40" cy="160" r="5" fill="#00f"/><circle cx="40" cy="120" r="5" fill="green"/><circle cy="160" r="5" fill="gold"/><circle cx="60" cy="120" r="5" fill="red"/><circle cx="100" cy="160" r="5" fill="#00f"/><circle cx="100" cy="120" r="5" fill="green"/><circle cx="60" cy="160" r="5" fill="gold"/><circle cx="120" cy="120" r="5" fill="red"/><circle cx="160" cy="160" r="5" fill="#00f"/><circle cx="160" cy="120" r="5" fill="green"/><circle cx="120" cy="160" r="5" fill="gold"/><circle cx="180" cy="120" r="5" fill="red"/><circle cx="220" cy="160" r="5" fill="#00f"/><circle cx="220" cy="120" r="5" fill="green"/><circle cx="180" cy="160" r="5" fill="gold"/><circle cx="240" cy="120" r="5" fill="red"/><circle cx="280" cy="160" r="5" fill="#00f"/><circle cx="280" cy="120" r="5" fill="green"/><circle cx="240" cy="160" r="5" fill="gold"/><circle cx="300" cy="120" r="5" fill="red"/><circle cx="340" cy="160" r="5" fill="#00f"/><circle cx="340" cy="120" r="5" fill="green"/><circle cx="300" cy="160" r="5" fill="gold"/><circle cx="360" cy="120" r="5" fill="red"/><circle cx="400" cy="160" r="5" fill="#00f"/><circle cx="400" cy="120" r="5" fill="green"/><circle cx="360" cy="160" r="5" fill="gold"/><circle cx="420" cy="120" r="5" fill="red"/><circle cx="460" cy="160" r="5" fill="#00f"/><circle cx="460" cy="120" r="5" fill="green"/><circle cx="420" cy="160" r="5" fill="gold"/><circle cx="480" cy="120" r="5" fill="red"/><circle cx="520" cy="160" r="5" fill="#00f"/><circle cx="520" cy="120" r="5" fill="green"/><circle cx="480" cy="160" r="5" fill="gold"/><circle cx="540" cy="120" r="5" fill="red"/><circle cx="580" cy="160" r="5" fill="#00f"/><circle cx="580" cy="120" r="5" fill="green"/><circle cx="540" cy="160" r="5" fill="gold"/><circle cy="180" r="5" fill="red"/><circle cx="40" cy="220" r="5" fill="#00f"/><circle cx="40" cy="180" r="5" fill="green"/><circle cy="220" r="5" fill="gold"/><circle cx="60" cy="180" r="5" fill="red"/><circle cx="100" cy="220" r="5" fill="#00f"/><circle cx="100" cy="180" r="5" fill="green"/><circle cx="60" cy="220" r="5" fill="gold"/><circle cx="120" cy="180" r="5" fill="red"/><circle cx="160" cy="220" r="5" fill="#00f"/><circle cx="160" cy="180" r="5" fill="green"/><circle cx="120" cy="220" r="5" fill="gold"/><circle cx="180" cy="180" r="5" fill="red"/><circle cx="220" cy="220" r="5" fill="#00f"/><circle cx="220" cy="180" r="5" fill="green"/><circle cx="180" cy="220" r="5" fill="gold"/><circle cx="240" cy="180" r="5" fill="red"/><circle cx="280" cy="220" r="5" fill="#00f"/><circle cx="280" cy="180" r="5" fill="green"/><circle cx="240" cy="220" r="5" fill="gold"/><circle cx="300" cy="180" r="5" fill="red"/><circle cx="340" cy="220" r="5" fill="#00f"/><circle cx="340" cy="180" r="5" fill="green"/><circle cx="300" cy="220" r="5" fill="gold"/><circle cx="360" cy="180" r="5" fill="red"/><circle cx="400" cy="220" r="5" fill="#00f"/><circle cx="400" cy="180" r="5" fill="green"/><circle cx="360" cy="220" r="5" fill="gold"/><circle cx="420" cy="180" r="5" fill="red"/><circle cx="460" cy="220" r="5" fill="#00f"/><circle cx="460" cy="180" r="5" fill="green"/><circle cx="420" cy="220" r="5" fill="gold"/><circle cx="480" cy="180" r="5" fill="red"/><circle cx="520" cy="220" r="5" fill="#00f"/><circle cx="520" cy="180" r="5" fill="green"/><circle cx="480" cy="220" r="5" fill="gold"/><circle cx="540" cy="180" r="5" fill="red"/><circle cx="580" cy="220" r="5" fill="#00f"/><circle cx="580" cy="180" r="5" fill="green"/><circle cx="540" cy="220" r="5" fill="gold"/><circle cy="240" r="5" fill="red"/><circle cx="40" cy="280" r="5" fill="#00f"/><circle cx="40" cy="240" r="5" fill="green"/><circle cy="280" r="5" fill="gold"/><circle cx="60" cy="240" r="5" fill="red"/><circle cx="100" cy="280" r="5" fill="#00f"/><circle cx="100" cy="240" r="5" fill="green"/><circle cx="60" cy="280" r="5" fill="gold"/><circle cx="120" cy="240" r="5" fill="red"/><circle cx="160" cy="280" r="5" fill="#00f"/><circle cx="160" cy="240" r="5" fill="green"/><circle cx="120" cy="280" r="5" fill="gold"/><circle cx="180" cy="240" r="5" fill="red"/><circle cx="220" cy="280" r="5" fill="#00f"/><circle cx="220" cy="240" r="5" fill="green"/><circle cx="180" cy="280" r="5" fill="gold"/><circle cx="240" cy="240" r="5" fill="red"/><circle cx="280" cy="280" r="5" fill="#00f"/><circle cx="280" cy="240" r="5" fill="green"/><circle cx="240" cy="280" r="5" fill="gold"/><circle cx="300" cy="240" r="5" fill="red"/><circle cx="340" cy="280" r="5" fill="#00f"/><circle cx="340" cy="240" r="5" fill="green"/><circle cx="300" cy="280" r="5" fill="gold"/><circle cx="360" cy="240" r="5" fill="red"/><circle cx="400" cy="280" r="5" fill="#00f"/><circle cx="400" cy="240" r="5" fill="green"/><circle cx="360" cy="280" r="5" fill="gold"/><circle cx="420" cy="240" r="5" fill="red"/><circle cx="460" cy="280" r="5" fill="#00f"/><circle cx="460" cy="240" r="5" fill="green"/><circle cx="420" cy="280" r="5" fill="gold"/><circle cx="480" cy="240" r="5" fill="red"/><circle cx="520" cy="280" r="5" fill="#00f"/><circle cx="520" cy="240" r="5" fill="green"/><circle cx="480" cy="280" r="5" fill="gold"/><circle cx="540" cy="240" r="5" fill="red"/><circle cx="580" cy="280" r="5" fill="#00f"/><circle cx="580" cy="240" r="5" fill="green"/><circle cx="540" cy="280" r="5" fill="gold"/><text y="-12" fill="red" text-anchor="middle" font-size="14">0</text><path stroke="red" d="M0-8V8"/><text x="40" y="-12" fill="green" text-anchor="middle" font-size="14">40</text><path stroke="green" d="M40-8V8"/><text x="60" y="-12" fill="red" text-anchor="middle" font-size="14">60</text><path stroke="red" d="M60-8V8"/><text x="100" y="-12" fill="green" text-anchor="middle" font-size="14">100</text><path stroke="green" d="M100-8V8"/><text x="120" y="-12" fill="red" text-anchor="middle" font-size="14">120</text><path stroke="red" d="M120-8V8"/><text x="160" y="-12" fill="green" text-anchor="middle" font-size="14">160</text><path stroke="green" d="M160-8V8"/><text x="180" y="-12" fill="red" text-anchor="middle" font-size="14">180</text><path stroke="red" d="M180-8V8"/><text x="220" y="-12" fill="green" text-anchor="middle" font-size="14">220</text><path stroke="green" d="M220-8V8"/><text x="240" y="-12" fill="red" text-anchor="middle" font-size="14">240</text><path stroke="red" d="M240-8V8"/><text x="280" y="-12" fill="green" text-anchor="middle" font-size="14">280</text><path stroke="green" d="M280-8V8"/><text x="300" y="-12" fill="red" text-anchor="middle" font-size="14">300</text><path stroke="red" d="M300-8V8"/><text x="340" y="-12" fill="green" text-anchor="middle" font-size="14">340</text><path stroke="green" d="M340-8V8"/><text x="360" y="-12" fill="red" text-anchor="middle" font-size="14">360</text><path stroke="red" d="M360-8V8"/><text x="400" y="-12" fill="green" text-anchor="middle" font-size="14">400</text><path stroke="green" d="M400-8V8"/><text x="420" y="-12" fill="red" text-anchor="middle" font-size="14">420</text><path stroke="red" d="M420-8V8"/><text x="460" y="-12" fill="green" text-anchor="middle" font-size="14">460</text><path stroke="green" d="M460-8V8"/><text x="480" y="-12" fill="red" text-anchor="middle" font-size="14">480</text><path stroke="red" d="M480-8V8"/><text x="520" y="-12" fill="green" text-anchor="middle" font-size="14">520</text><path stroke="green" d="M520-8V8"/><text x="540" y="-12" fill="red" text-anchor="middle" font-size="14">540</text><path stroke="red" d="M540-8V8"/><text x="580" y="-12" fill="green" text-anchor="middle" font-size="14">580</text><path stroke="green" d="M580-8V8"/><text x="-22" y="5" fill="red" text-anchor="middle" font-size="14">0</text><path stroke="red" d="M-8 0H8"/><text x="-22" y="45" fill="#00f" text-anchor="middle" font-size="14">40</text><path stroke="#00f" d="M-8 40H8"/><text x="-22" y="65" fill="red" text-anchor="middle" font-size="14">60</text><path stroke="red" d="M-8 60H8"/><text x="-22" y="105" fill="#00f" text-anchor="middle" font-size="14">100</text><path stroke="#00f" d="M-8 100H8"/><text x="-22" y="125" fill="red" text-anchor="middle" font-size="14">120</text><path stroke="red" d="M-8 120H8"/><text x="-22" y="165" fill="#00f" text-anchor="middle" font-size="14">160</text><path stroke="#00f" d="M-8 160H8"/><text x="-22" y="185" fill="red" text-anchor="middle" font-size="14">180</text><path stroke="red" d="M-8 180H8"/><text x="-22" y="225" fill="#00f" text-anchor="middle" font-size="14">220</text><path stroke="#00f" d="M-8 220H8"/><text x="-22" y="245" fill="red" text-anchor="middle" font-size="14">240</text><path stroke="red" d="M-8 240H8"/><text x="-22" y="285" fill="#00f" text-anchor="middle" font-size="14">280</text><path stroke="#00f" d="M-8 280H8"/></svg>
