<svg xmlns="http://www.w3.org/2000/svg" width="680" height="340" viewBox="-40 -40 680 340"><path fill="none" stroke="#000" d="M-10-10h590v290H-10z"/><path stroke="red" d="M0-10v280M-10 0h580"/><text y="-12" fill="red" text-anchor="middle" font-size="14">0</text><path stroke="red" d="M0-8V8"/><text x="50" y="-12" fill="red" text-anchor="middle" font-size="14">50</text><path stroke="red" d="M50-8V8"/><text x="100" y="-12" fill="red" text-anchor="middle" font-size="14">100</text><path stroke="red" d="M100-8V8"/><text x="150" y="-12" fill="red" text-anchor="middle" font-size="14">150</text><path stroke="red" d="M150-8V8"/><text x="200" y="-12" fill="red" text-anchor="middle" font-size="14">200</text><path stroke="red" d="M200-8V8"/><text x="250" y="-12" fill="red" text-anchor="middle" font-size="14">250</text><path stroke="red" d="M250-8V8"/><text x="300" y="-12" fill="red" text-anchor="middle" font-size="14">300</text><path stroke="red" d="M300-8V8"/><text x="350" y="-12" fill="red" text-anchor="middle" font-size="14">350</text><path stroke="red" d="M350-8V8"/><text x="400" y="-12" fill="red" text-anchor="middle" font-size="14">400</text><path stroke="red" d="M400-8V8"/><text x="450" y="-12" fill="red" text-anchor="middle" font-size="14">450</text><path stroke="red" d="M450-8V8"/><text x="500" y="-12" fill="red" text-anchor="middle" font-size="14">500</text><path stroke="red" d="M500-8V8"/><text x="550" y="-12" fill="red" text-anchor="middle" font-size="14">550</text><path stroke="red" d="M550-8V8"/><text x="-22" y="5" fill="#00f" text-anchor="middle" font-size="14">0</text><path stroke="#00f" d="M-8 0H8"/><text x="-22" y="55" fill="#00f" text-anchor="middle" font-size="14">50</text><path stroke="#00f" d="M-8 50H8"/><text x="-22" y="105" fill="#00f" text-anchor="middle" font-size="14">100</text><path stroke="#00f" d="M-8 100H8"/><text x="-22" y="155" fill="#00f" text-anchor="middle" font-size="14">150</text><path stroke="#00f" d="M-8 150H8"/><text x="-22" y="205" fill="#00f" text-anchor="middle" font-size="14">200</text><path stroke="#00f" d="M-8 200H8"/><text x="-22" y="255" fill="#00f" text-anchor="middle" font-size="14">250</text><path stroke="#00f" d="M-8 250H8"/><circle r="5"/><circle cx="50" r="5"/><circle cx="100" r="5"/><circle cx="150" r="5"/><circle cx="200" r="5"/><circle cx="250" r="5"/><circle cx="300" r="5"/><circle cx="350" r="5"/><circle cx="400" r="5"/><circle cx="450" r="5"/><circle cx="500" r="5"/><circle cx="550" r="5"/><circle cy="50" r="5"/><circle cx="50" cy="50" r="5"/><circle cx="100" cy="50" r="5"/><circle cx="150" cy="50" r="5"/><circle cx="200" cy="50" r="5"/><circle cx="250" cy="50" r="5"/><circle cx="300" cy="50" r="5"/><circle cx="350" cy="50" r="5"/><circle cx="400" cy="50" r="5"/><circle cx="450" cy="50" r="5"/><circle cx="500" cy="50" r="5"/><circle cx="550" cy="50" r="5"/><circle cy="100" r="5"/><circle cx="50" cy="100" r="5"/><circle cx="100" cy="100" r="5"/><circle cx="150" cy="100" r="5"/><circle cx="200" cy="100" r="5"/><circle cx="250" cy="100" r="5"/><circle cx="300" cy="100" r="5"/><circle cx="350" cy="100" r="5"/><circle cx="400" cy="100" r="5"/><circle cx="450" cy="100" r="5"/><circle cx="500" cy="100" r="5"/><circle cx="550" cy="100" r="5"/><circle cy="150" r="5"/><circle cx="50" cy="150" r="5"/><circle cx="100" cy="150" r="5"/><circle cx="150" cy="150" r="5"/><circle cx="200" cy="150" r="5"/><circle cx="250" cy="150" r="5"/><circle cx="300" cy="150" r="5"/><circle cx="350" cy="150" r="5"/><circle cx="400" cy="150" r="5"/><circle cx="450" cy="150" r="5"/><circle cx="500" cy="150" r="5"/><circle cx="550" cy="150" r="5"/><circle cy="200" r="5"/><circle cx="50" cy="200" r="5"/><circle cx="100" cy="200" r="5"/><circle cx="150" cy="200" r="5"/><circle cx="200" cy="200" r="5"/><circle cx="250" cy="200" r="5"/><circle cx="300" cy="200" r="5"/><circle cx="350" cy="200" r="5"/><circle cx="400" cy="200" r="5"/><circle cx="450" cy="200" r="5"/><circle cx="500" cy="200" r="5"/><circle cx="550" cy="200" r="5"/><circle cy="250" r="5"/><circle cx="50" cy="250" r="5"/><circle cx="100" cy="250" r="5"/><circle cx="150" cy="250" r="5"/><circle cx="200" cy="250" r="5"/><circle cx="250" cy="250" r="5"/><circle cx="300" cy="250" r="5"/><circle cx="350" cy="250" r="5"/><circle cx="400" cy="250" r="5"/><circle cx="450" cy="250" r="5"/><circle cx="500" cy="250" r="5"/><circle cx="550" cy="250" r="5"/></svg>
