<svg xmlns="http://www.w3.org/2000/svg" width="460" height="220" viewBox="-40 -40 460 220"><path fill="none" stroke="#000" d="M-10-10h320v160H-10z"/><path stroke="red" d="M0-10v150M-10 0h330"/><text y="-12" fill="red" text-anchor="middle" font-size="14">0</text><path stroke="red" d="M0-8V8"/><text x="30" y="-12" fill="red" text-anchor="middle" font-size="14">30</text><path stroke="red" d="M30-8V8"/><text x="60" y="-12" fill="red" text-anchor="middle" font-size="14">60</text><path stroke="red" d="M60-8V8"/><text x="90" y="-12" fill="red" text-anchor="middle" font-size="14">90</text><path stroke="red" d="M90-8V8"/><text x="120" y="-12" fill="red" text-anchor="middle" font-size="14">120</text><path stroke="red" d="M120-8V8"/><text x="150" y="-12" fill="red" text-anchor="middle" font-size="14">150</text><path stroke="red" d="M150-8V8"/><text x="180" y="-12" fill="red" text-anchor="middle" font-size="14">180</text><path stroke="red" d="M180-8V8"/><text x="210" y="-12" fill="red" text-anchor="middle" font-size="14">210</text><path stroke="red" d="M210-8V8"/><text x="240" y="-12" fill="red" text-anchor="middle" font-size="14">240</text><path stroke="red" d="M240-8V8"/><text x="270" y="-12" fill="red" text-anchor="middle" font-size="14">270</text><path stroke="red" d="M270-8V8"/><text x="300" y="-12" fill="red" text-anchor="middle" font-size="14">300</text><path stroke="red" d="M300-8V8"/><text x="-22" y="5" fill="#00f" text-anchor="middle" font-size="14">0</text><path stroke="#00f" d="M-8 0H8"/><text x="-22" y="35" fill="#00f" text-anchor="middle" font-size="14">30</text><path stroke="#00f" d="M-8 30H8"/><text x="-22" y="65" fill="#00f" text-anchor="middle" font-size="14">60</text><path stroke="#00f" d="M-8 60H8"/><text x="-22" y="95" fill="#00f" text-anchor="middle" font-size="14">90</text><path stroke="#00f" d="M-8 90H8"/><circle r="5"/><circle cx="30" r="5"/><circle cx="60" r="5"/><circle cx="90" r="5"/><circle cx="120" r="5"/><circle cx="150" r="5"/><circle cx="180" r="5"/><circle cx="210" r="5"/><circle cx="240" r="5"/><circle cx="270" r="5"/><circle cx="300" r="5"/><circle cy="30" r="5"/><circle cx="30" cy="30" r="5"/><circle cx="60" cy="30" r="5"/><circle cx="90" cy="30" r="5"/><circle cx="120" cy="30" r="5"/><circle cx="150" cy="30" r="5"/><circle cx="180" cy="30" r="5"/><circle cx="210" cy="30" r="5"/><circle cx="240" cy="30" r="5"/><circle cx="270" cy="30" r="5"/><circle cx="300" cy="30" r="5"/><circle cy="60" r="5"/><circle cx="30" cy="60" r="5"/><circle cx="60" cy="60" r="5"/><circle cx="90" cy="60" r="5"/><circle cx="120" cy="60" r="5"/><circle cx="150" cy="60" r="5"/><circle cx="180" cy="60" r="5"/><circle cx="210" cy="60" r="5"/><circle cx="240" cy="60" r="5"/><circle cx="270" cy="60" r="5"/><circle cx="300" cy="60" r="5"/><circle cy="90" r="5"/><circle cx="30" cy="90" r="5"/><circle cx="60" cy="90" r="5"/><circle cx="90" cy="90" r="5"/><circle cx="120" cy="90" r="5"/><circle cx="150" cy="90" r="5"/><circle cx="180" cy="90" r="5"/><circle cx="210" cy="90" r="5"/><circle cx="240" cy="90" r="5"/><circle cx="270" cy="90" r="5"/><circle cx="300" cy="90" r="5"/></svg>
