<svg xmlns="http://www.w3.org/2000/svg" width="600" height="360" viewBox="-40 -40 600 360"><path fill="none" stroke="#000" d="M-10-10h560v320H-10z"/><path stroke="red" d="M0-10v310M-10 0h550"/><text y="-12" fill="red" text-anchor="middle" font-size="14">0</text><path stroke="red" d="M0-8V8"/><text x="60" y="-12" fill="red" text-anchor="middle" font-size="14">60</text><path stroke="red" d="M60-8V8"/><text x="120" y="-12" fill="red" text-anchor="middle" font-size="14">120</text><path stroke="red" d="M120-8V8"/><text x="180" y="-12" fill="red" text-anchor="middle" font-size="14">180</text><path stroke="red" d="M180-8V8"/><text x="240" y="-12" fill="red" text-anchor="middle" font-size="14">240</text><path stroke="red" d="M240-8V8"/><text x="300" y="-12" fill="red" text-anchor="middle" font-size="14">300</text><path stroke="red" d="M300-8V8"/><text x="360" y="-12" fill="red" text-anchor="middle" font-size="14">360</text><path stroke="red" d="M360-8V8"/><text x="420" y="-12" fill="red" text-anchor="middle" font-size="14">420</text><path stroke="red" d="M420-8V8"/><text x="480" y="-12" fill="red" text-anchor="middle" font-size="14">480</text><path stroke="red" d="M480-8V8"/><text x="-22" y="5" fill="#00f" text-anchor="middle" font-size="14">0</text><path stroke="#00f" d="M-8 0H8"/><text x="-22" y="65" fill="#00f" text-anchor="middle" font-size="14">60</text><path stroke="#00f" d="M-8 60H8"/><text x="-22" y="125" fill="#00f" text-anchor="middle" font-size="14">120</text><path stroke="#00f" d="M-8 120H8"/><text x="-22" y="185" fill="#00f" text-anchor="middle" font-size="14">180</text><path stroke="#00f" d="M-8 180H8"/><text x="-22" y="245" fill="#00f" text-anchor="middle" font-size="14">240</text><path stroke="#00f" d="M-8 240H8"/><circle cx="60" cy="60" r="5"/><circle cx="120" cy="60" r="5"/><circle cx="180" cy="60" r="5"/><circle cx="240" cy="60" r="5"/><circle cx="300" cy="60" r="5"/><circle cx="360" cy="60" r="5"/><circle cx="420" cy="60" r="5"/><circle cx="480" cy="60" r="5"/><circle cx="60" cy="120" r="5"/><circle cx="120" cy="120" r="5"/><circle cx="180" cy="120" r="5"/><circle cx="240" cy="120" r="5"/><circle cx="300" cy="120" r="5"/><circle cx="360" cy="120" r="5"/><circle cx="420" cy="120" r="5"/><circle cx="480" cy="120" r="5"/><circle cx="60" cy="180" r="5"/><circle cx="120" cy="180" r="5"/><circle cx="180" cy="180" r="5"/><circle cx="240" cy="180" r="5"/><circle cx="300" cy="180" r="5"/><circle cx="360" cy="180" r="5"/><circle cx="420" cy="180" r="5"/><circle cx="480" cy="180" r="5"/><circle cx="60" cy="240" r="5"/><circle cx="120" cy="240" r="5"/><circle cx="180" cy="240" r="5"/><circle cx="240" cy="240" r="5"/><circle cx="300" cy="240" r="5"/><circle cx="360" cy="240" r="5"/><circle cx="420" cy="240" r="5"/><circle cx="480" cy="240" r="5"/></svg>
