<svg xmlns="http://www.w3.org/2000/svg" width="130" height="130" viewBox="-40 -40 130 130"><path fill="none" stroke="#000" d="M-10-10h340v260H-10z"/><path stroke="red" d="M0-10v300M-10 0h600"/><path fill="none" stroke="red" d="M0 0h80v80H0z"/><path stroke="#000" d="M40 0v40M20 20h40"/><text y="-12" fill="red" text-anchor="middle" font-size="14">0</text><text x="20" y="-12" fill="green" text-anchor="middle" font-size="14">10</text><text x="40" y="-12" fill="red" text-anchor="middle" font-size="14">20</text><text x="60" y="-12" fill="green" text-anchor="middle" font-size="14">30</text><text x="80" y="-12" fill="red" text-anchor="middle" font-size="14">40</text><text x="-22" y="5" fill="red" text-anchor="middle" font-size="14">0</text><text x="-22" y="25" fill="green" text-anchor="middle" font-size="14">10</text><text x="-22" y="45" fill="red" text-anchor="middle" font-size="14">20</text><text x="-22" y="65" fill="green" text-anchor="middle" font-size="14">30</text><text x="-22" y="85" fill="red" text-anchor="middle" font-size="14">40</text><path stroke="red" d="M0-8V8m-8-8H8m12-8V8M-8 20H8M40-8V8M-8 40H8M60-8V8M-8 60H8M80-8V8M-8 80H8"/></svg>
