<svg xmlns="http://www.w3.org/2000/svg" width="680" height="350" viewBox="-40 -40 680 350"><path fill="none" stroke="#000" d="M-10-10h600v300H-10z"/><path stroke="#000" d="M20 0v20M10 10h20M60 0v20M50 10h20m30-10v20M90 10h20m30-10v20m-10-10h20m30-10v20m-10-10h20m30-10v20m-10-10h20m30-10v20m-10-10h20m30-10v20m-10-10h20M20 40v20M10 50h20m30-10v20M50 50h20m30-10v20M90 50h20m30-10v20m-10-10h20m30-10v20m-10-10h20m30-10v20m-10-10h20m30-10v20m-10-10h20m30-10v20m-10-10h20M20 80v20M10 90h20m30-10v20M50 90h20m30-10v20M90 90h20m30-10v20m-10-10h20m30-10v20m-10-10h20m30-10v20m-10-10h20m30-10v20m-10-10h20m30-10v20m-10-10h20M20 120v20m-10-10h20m30-10v20m-10-10h20m30-10v20m-10-10h20m30-10v20m-10-10h20m30-10v20m-10-10h20m30-10v20m-10-10h20m30-10v20m-10-10h20m30-10v20m-10-10h20M20 160v20m-10-10h20m30-10v20m-10-10h20m30-10v20m-10-10h20m30-10v20m-10-10h20m30-10v20m-10-10h20m30-10v20m-10-10h20m30-10v20m-10-10h20m30-10v20m-10-10h20M20 200v20m-10-10h20m30-10v20m-10-10h20m30-10v20m-10-10h20m30-10v20m-10-10h20m30-10v20m-10-10h20m30-10v20m-10-10h20m30-10v20m-10-10h20m30-10v20m-10-10h20"/><path fill="none" stroke="red" d="M0 0h40v40H0zm40 0h40v40H40zm40 0h40v40H80zm40 0h40v40h-40zm40 0h40v40h-40zm40 0h40v40h-40zm40 0h40v40h-40zm40 0h40v40h-40zM0 40h40v40H0zm40 0h40v40H40zm40 0h40v40H80zm40 0h40v40h-40zm40 0h40v40h-40zm40 0h40v40h-40zm40 0h40v40h-40zm40 0h40v40h-40zM0 80h40v40H0zm40 0h40v40H40zm40 0h40v40H80zm40 0h40v40h-40zm40 0h40v40h-40zm40 0h40v40h-40zm40 0h40v40h-40zm40 0h40v40h-40zM0 120h40v40H0zm40 0h40v40H40zm40 0h40v40H80zm40 0h40v40h-40zm40 0h40v40h-40zm40 0h40v40h-40zm40 0h40v40h-40zm40 0h40v40h-40zM0 160h40v40H0zm40 0h40v40H40zm40 0h40v40H80zm40 0h40v40h-40zm40 0h40v40h-40zm40 0h40v40h-40zm40 0h40v40h-40zm40 0h40v40h-40zM0 200h40v40H0zm40 0h40v40H40zm40 0h40v40H80zm40 0h40v40h-40zm40 0h40v40h-40zm40 0h40v40h-40zm40 0h40v40h-40zm40 0h40v40h-40z"/><text x="-28" y="120" fill="#00f" text-anchor="middle" font-size="18">i</text><text x="-20" y="20" fill="#00f" text-anchor="middle" font-size="14">0</text><text x="-20" y="60" fill="#00f" text-anchor="middle" font-size="14">1</text><text x="-20" y="100" fill="#00f" text-anchor="middle" font-size="14">2</text><text x="-20" y="140" fill="#00f" text-anchor="middle" font-size="14">3</text><text x="-20" y="180" fill="#00f" text-anchor="middle" font-size="14">4</text><text x="-20" y="220" fill="#00f" text-anchor="middle" font-size="14">5</text><text x="160" y="-28" fill="red" text-anchor="middle" font-size="18">j</text><text x="20" y="-13" fill="red" text-anchor="middle" font-size="14">0</text><text x="60" y="-13" fill="red" text-anchor="middle" font-size="14">1</text><text x="100" y="-13" fill="red" text-anchor="middle" font-size="14">2</text><text x="140" y="-13" fill="red" text-anchor="middle" font-size="14">3</text><text x="180" y="-13" fill="red" text-anchor="middle" font-size="14">4</text><text x="220" y="-13" fill="red" text-anchor="middle" font-size="14">5</text><text x="260" y="-13" fill="red" text-anchor="middle" font-size="14">6</text><text x="300" y="-13" fill="red" text-anchor="middle" font-size="14">7</text></svg>
