<svg xmlns="http://www.w3.org/2000/svg" width="680" height="350" viewBox="-40 -40 680 350"><path fill="none" stroke="#000" d="M-10-10h620v300H-10z"/><path stroke="#000" d="M0 0l40 40m0-40L0 40M40 0l40 40m0-40L40 40M80 0l40 40m0-40L80 40m40-40l40 40m0-40l-40 40m40-40l40 40m0-40l-40 40m40-40l40 40m0-40l-40 40m40-40l40 40m0-40l-40 40m40-40l40 40m0-40l-40 40m40-40l40 40m0-40l-40 40m40-40l40 40m0-40l-40 40m40-40l40 40m0-40l-40 40m40-40l40 40m0-40l-40 40m40-40l40 40m0-40l-40 40m40-40l40 40m0-40l-40 40m40-40l40 40m0-40l-40 40M0 40l40 40m0-40L0 80m40-40l40 40m0-40L40 80m40-40l40 40m0-40L80 80m40-40l40 40m0-40l-40 40m40-40l40 40m0-40l-40 40m40-40l40 40m0-40l-40 40m40-40l40 40m0-40l-40 40m40-40l40 40m0-40l-40 40m40-40l40 40m0-40l-40 40m40-40l40 40m0-40l-40 40m40-40l40 40m0-40l-40 40m40-40l40 40m0-40l-40 40m40-40l40 40m0-40l-40 40m40-40l40 40m0-40l-40 40m40-40l40 40m0-40l-40 40M0 80l40 40m0-40L0 120m40-40l40 40m0-40l-40 40m40-40l40 40m0-40l-40 40m40-40l40 40m0-40l-40 40m40-40l40 40m0-40l-40 40m40-40l40 40m0-40l-40 40m40-40l40 40m0-40l-40 40m40-40l40 40m0-40l-40 40m40-40l40 40m0-40l-40 40m40-40l40 40m0-40l-40 40m40-40l40 40m0-40l-40 40m40-40l40 40m0-40l-40 40m40-40l40 40m0-40l-40 40m40-40l40 40m0-40l-40 40m40-40l40 40m0-40l-40 40M0 120l40 40m0-40L0 160m40-40l40 40m0-40l-40 40m40-40l40 40m0-40l-40 40m40-40l40 40m0-40l-40 40m40-40l40 40m0-40l-40 40m40-40l40 40m0-40l-40 40m40-40l40 40m0-40l-40 40m40-40l40 40m0-40l-40 40m40-40l40 40m0-40l-40 40m40-40l40 40m0-40l-40 40m40-40l40 40m0-40l-40 40m40-40l40 40m0-40l-40 40m40-40l40 40m0-40l-40 40m40-40l40 40m0-40l-40 40m40-40l40 40m0-40l-40 40M0 160l40 40m0-40L0 200m40-40l40 40m0-40l-40 40m40-40l40 40m0-40l-40 40m40-40l40 40m0-40l-40 40m40-40l40 40m0-40l-40 40m40-40l40 40m0-40l-40 40m40-40l40 40m0-40l-40 40m40-40l40 40m0-40l-40 40m40-40l40 40m0-40l-40 40m40-40l40 40m0-40l-40 40m40-40l40 40m0-40l-40 40m40-40l40 40m0-40l-40 40m40-40l40 40m0-40l-40 40m40-40l40 40m0-40l-40 40m40-40l40 40m0-40l-40 40M0 200l40 40m0-40L0 240m40-40l40 40m0-40l-40 40m40-40l40 40m0-40l-40 40m40-40l40 40m0-40l-40 40m40-40l40 40m0-40l-40 40m40-40l40 40m0-40l-40 40m40-40l40 40m0-40l-40 40m40-40l40 40m0-40l-40 40m40-40l40 40m0-40l-40 40m40-40l40 40m0-40l-40 40m40-40l40 40m0-40l-40 40m40-40l40 40m0-40l-40 40m40-40l40 40m0-40l-40 40m40-40l40 40m0-40l-40 40m40-40l40 40m0-40l-40 40M0 240l40 40m0-40L0 280m40-40l40 40m0-40l-40 40m40-40l40 40m0-40l-40 40m40-40l40 40m0-40l-40 40m40-40l40 40m0-40l-40 40m40-40l40 40m0-40l-40 40m40-40l40 40m0-40l-40 40m40-40l40 40m0-40l-40 40m40-40l40 40m0-40l-40 40m40-40l40 40m0-40l-40 40m40-40l40 40m0-40l-40 40m40-40l40 40m0-40l-40 40m40-40l40 40m0-40l-40 40m40-40l40 40m0-40l-40 40m40-40l40 40m0-40l-40 40"/><path fill="none" stroke="red" d="M0 0h40v40H0zm40 0h40v40H40zm40 0h40v40H80zm40 0h40v40h-40zm40 0h40v40h-40zm40 0h40v40h-40zm40 0h40v40h-40zm40 0h40v40h-40zm40 0h40v40h-40zm40 0h40v40h-40zm40 0h40v40h-40zm40 0h40v40h-40zm40 0h40v40h-40zm40 0h40v40h-40zm40 0h40v40h-40zM0 40h40v40H0zm40 0h40v40H40zm40 0h40v40H80zm40 0h40v40h-40zm40 0h40v40h-40zm40 0h40v40h-40zm40 0h40v40h-40zm40 0h40v40h-40zm40 0h40v40h-40zm40 0h40v40h-40zm40 0h40v40h-40zm40 0h40v40h-40zm40 0h40v40h-40zm40 0h40v40h-40zm40 0h40v40h-40zM0 80h40v40H0zm40 0h40v40H40zm40 0h40v40H80zm40 0h40v40h-40zm40 0h40v40h-40zm40 0h40v40h-40zm40 0h40v40h-40zm40 0h40v40h-40zm40 0h40v40h-40zm40 0h40v40h-40zm40 0h40v40h-40zm40 0h40v40h-40zm40 0h40v40h-40zm40 0h40v40h-40zm40 0h40v40h-40zM0 120h40v40H0zm40 0h40v40H40zm40 0h40v40H80zm40 0h40v40h-40zm40 0h40v40h-40zm40 0h40v40h-40zm40 0h40v40h-40zm40 0h40v40h-40zm40 0h40v40h-40zm40 0h40v40h-40zm40 0h40v40h-40zm40 0h40v40h-40zm40 0h40v40h-40zm40 0h40v40h-40zm40 0h40v40h-40zM0 160h40v40H0zm40 0h40v40H40zm40 0h40v40H80zm40 0h40v40h-40zm40 0h40v40h-40zm40 0h40v40h-40zm40 0h40v40h-40zm40 0h40v40h-40zm40 0h40v40h-40zm40 0h40v40h-40zm40 0h40v40h-40zm40 0h40v40h-40zm40 0h40v40h-40zm40 0h40v40h-40zm40 0h40v40h-40zM0 200h40v40H0zm40 0h40v40H40zm40 0h40v40H80zm40 0h40v40h-40zm40 0h40v40h-40zm40 0h40v40h-40zm40 0h40v40h-40zm40 0h40v40h-40zm40 0h40v40h-40zm40 0h40v40h-40zm40 0h40v40h-40zm40 0h40v40h-40zm40 0h40v40h-40zm40 0h40v40h-40zm40 0h40v40h-40zM0 240h40v40H0zm40 0h40v40H40zm40 0h40v40H80zm40 0h40v40h-40zm40 0h40v40h-40zm40 0h40v40h-40zm40 0h40v40h-40zm40 0h40v40h-40zm40 0h40v40h-40zm40 0h40v40h-40zm40 0h40v40h-40zm40 0h40v40h-40zm40 0h40v40h-40zm40 0h40v40h-40zm40 0h40v40h-40z"/><text x="-28" y="160" fill="#00f" text-anchor="middle" font-size="18">i</text><text x="-20" y="20" fill="#00f" text-anchor="middle" font-size="14">0</text><text x="-20" y="60" fill="#00f" text-anchor="middle" font-size="14">1</text><text x="-20" y="100" fill="#00f" text-anchor="middle" font-size="14">2</text><text x="-20" y="140" fill="#00f" text-anchor="middle" font-size="14">3</text><text x="-20" y="180" fill="#00f" text-anchor="middle" font-size="14">4</text><text x="-20" y="220" fill="#00f" text-anchor="middle" font-size="14">5</text><text x="-20" y="260" fill="#00f" text-anchor="middle" font-size="14">6</text><text x="320" y="-28" fill="red" text-anchor="middle" font-size="18">j</text><text x="20" y="-13" fill="red" text-anchor="middle" font-size="14">0</text><text x="60" y="-13" fill="red" text-anchor="middle" font-size="14">1</text><text x="100" y="-13" fill="red" text-anchor="middle" font-size="14">2</text><text x="140" y="-13" fill="red" text-anchor="middle" font-size="14">3</text><text x="180" y="-13" fill="red" text-anchor="middle" font-size="14">4</text><text x="220" y="-13" fill="red" text-anchor="middle" font-size="14">5</text><text x="260" y="-13" fill="red" text-anchor="middle" font-size="14">6</text><text x="300" y="-13" fill="red" text-anchor="middle" font-size="14">7</text><text x="340" y="-13" fill="red" text-anchor="middle" font-size="14">8</text><text x="380" y="-13" fill="red" text-anchor="middle" font-size="14">9</text><text x="420" y="-13" fill="red" text-anchor="middle" font-size="14">10</text><text x="460" y="-13" fill="red" text-anchor="middle" font-size="14">11</text><text x="500" y="-13" fill="red" text-anchor="middle" font-size="14">12</text><text x="540" y="-13" fill="red" text-anchor="middle" font-size="14">13</text><text x="580" y="-13" fill="red" text-anchor="middle" font-size="14">14</text></svg>
