<svg xmlns="http://www.w3.org/2000/svg" width="680" height="350" viewBox="-40 -40 680 350"><path fill="none" stroke="#000" d="M-10-10h610v310H-10z"/><path stroke="#000" d="M0 0l40 40m0-40L0 40M60 0l40 40m0-40L60 40m60-40l40 40m0-40l-40 40m60-40l40 40m0-40l-40 40m60-40l40 40m0-40l-40 40m60-40l40 40m0-40l-40 40m60-40l40 40m0-40l-40 40m60-40l40 40m0-40l-40 40m60-40l40 40m0-40l-40 40m60-40l40 40m0-40l-40 40M0 60l40 40m0-40L0 100m60-40l40 40m0-40l-40 40m60-40l40 40m0-40l-40 40m60-40l40 40m0-40l-40 40m60-40l40 40m0-40l-40 40m60-40l40 40m0-40l-40 40m60-40l40 40m0-40l-40 40m60-40l40 40m0-40l-40 40m60-40l40 40m0-40l-40 40m60-40l40 40m0-40l-40 40M0 120l40 40m0-40L0 160m60-40l40 40m0-40l-40 40m60-40l40 40m0-40l-40 40m60-40l40 40m0-40l-40 40m60-40l40 40m0-40l-40 40m60-40l40 40m0-40l-40 40m60-40l40 40m0-40l-40 40m60-40l40 40m0-40l-40 40m60-40l40 40m0-40l-40 40m60-40l40 40m0-40l-40 40M0 180l40 40m0-40L0 220m60-40l40 40m0-40l-40 40m60-40l40 40m0-40l-40 40m60-40l40 40m0-40l-40 40m60-40l40 40m0-40l-40 40m60-40l40 40m0-40l-40 40m60-40l40 40m0-40l-40 40m60-40l40 40m0-40l-40 40m60-40l40 40m0-40l-40 40m60-40l40 40m0-40l-40 40M0 240l40 40m0-40L0 280m60-40l40 40m0-40l-40 40m60-40l40 40m0-40l-40 40m60-40l40 40m0-40l-40 40m60-40l40 40m0-40l-40 40m60-40l40 40m0-40l-40 40m60-40l40 40m0-40l-40 40m60-40l40 40m0-40l-40 40m60-40l40 40m0-40l-40 40m60-40l40 40m0-40l-40 40"/><circle r="2" fill="red"/><path fill="none" stroke="red" d="M-5-5H5V5H-5z"/><circle cx="40" cy="40" r="2" fill="#00f"/><path fill="none" stroke="#00f" d="M35 35h10v10H35z"/><circle cx="40" r="2" fill="green"/><path fill="none" stroke="green" d="M35-5h10V5H35z"/><circle cy="40" r="2" fill="gold"/><path fill="none" stroke="gold" d="M-5 35H5v10H-5z"/><circle cx="60" r="2" fill="red"/><path fill="none" stroke="red" d="M55-5h10V5H55z"/><circle cx="100" cy="40" r="2" fill="#00f"/><path fill="none" stroke="#00f" d="M95 35h10v10H95z"/><circle cx="100" r="2" fill="green"/><path fill="none" stroke="green" d="M95-5h10V5H95z"/><circle cx="60" cy="40" r="2" fill="gold"/><path fill="none" stroke="gold" d="M55 35h10v10H55z"/><circle cx="120" r="2" fill="red"/><path fill="none" stroke="red" d="M115-5h10V5h-10z"/><circle cx="160" cy="40" r="2" fill="#00f"/><path fill="none" stroke="#00f" d="M155 35h10v10h-10z"/><circle cx="160" r="2" fill="green"/><path fill="none" stroke="green" d="M155-5h10V5h-10z"/><circle cx="120" cy="40" r="2" fill="gold"/><path fill="none" stroke="gold" d="M115 35h10v10h-10z"/><circle cx="180" r="2" fill="red"/><path fill="none" stroke="red" d="M175-5h10V5h-10z"/><circle cx="220" cy="40" r="2" fill="#00f"/><path fill="none" stroke="#00f" d="M215 35h10v10h-10z"/><circle cx="220" r="2" fill="green"/><path fill="none" stroke="green" d="M215-5h10V5h-10z"/><circle cx="180" cy="40" r="2" fill="gold"/><path fill="none" stroke="gold" d="M175 35h10v10h-10z"/><circle cx="240" r="2" fill="red"/><path fill="none" stroke="red" d="M235-5h10V5h-10z"/><circle cx="280" cy="40" r="2" fill="#00f"/><path fill="none" stroke="#00f" d="M275 35h10v10h-10z"/><circle cx="280" r="2" fill="green"/><path fill="none" stroke="green" d="M275-5h10V5h-10z"/><circle cx="240" cy="40" r="2" fill="gold"/><path fill="none" stroke="gold" d="M235 35h10v10h-10z"/><circle cx="300" r="2" fill="red"/><path fill="none" stroke="red" d="M295-5h10V5h-10z"/><circle cx="340" cy="40" r="2" fill="#00f"/><path fill="none" stroke="#00f" d="M335 35h10v10h-10z"/><circle cx="340" r="2" fill="green"/><path fill="none" stroke="green" d="M335-5h10V5h-10z"/><circle cx="300" cy="40" r="2" fill="gold"/><path fill="none" stroke="gold" d="M295 35h10v10h-10z"/><circle cx="360" r="2" fill="red"/><path fill="none" stroke="red" d="M355-5h10V5h-10z"/><circle cx="400" cy="40" r="2" fill="#00f"/><path fill="none" stroke="#00f" d="M395 35h10v10h-10z"/><circle cx="400" r="2" fill="green"/><path fill="none" stroke="green" d="M395-5h10V5h-10z"/><circle cx="360" cy="40" r="2" fill="gold"/><path fill="none" stroke="gold" d="M355 35h10v10h-10z"/><circle cx="420" r="2" fill="red"/><path fill="none" stroke="red" d="M415-5h10V5h-10z"/><circle cx="460" cy="40" r="2" fill="#00f"/><path fill="none" stroke="#00f" d="M455 35h10v10h-10z"/><circle cx="460" r="2" fill="green"/><path fill="none" stroke="green" d="M455-5h10V5h-10z"/><circle cx="420" cy="40" r="2" fill="gold"/><path fill="none" stroke="gold" d="M415 35h10v10h-10z"/><circle cx="480" r="2" fill="red"/><path fill="none" stroke="red" d="M475-5h10V5h-10z"/><circle cx="520" cy="40" r="2" fill="#00f"/><path fill="none" stroke="#00f" d="M515 35h10v10h-10z"/><circle cx="520" r="2" fill="green"/><path fill="none" stroke="green" d="M515-5h10V5h-10z"/><circle cx="480" cy="40" r="2" fill="gold"/><path fill="none" stroke="gold" d="M475 35h10v10h-10z"/><circle cx="540" r="2" fill="red"/><path fill="none" stroke="red" d="M535-5h10V5h-10z"/><circle cx="580" cy="40" r="2" fill="#00f"/><path fill="none" stroke="#00f" d="M575 35h10v10h-10z"/><circle cx="580" r="2" fill="green"/><path fill="none" stroke="green" d="M575-5h10V5h-10z"/><circle cx="540" cy="40" r="2" fill="gold"/><path fill="none" stroke="gold" d="M535 35h10v10h-10z"/><circle cy="60" r="2" fill="red"/><path fill="none" stroke="red" d="M-5 55H5v10H-5z"/><circle cx="40" cy="100" r="2" fill="#00f"/><path fill="none" stroke="#00f" d="M35 95h10v10H35z"/><circle cx="40" cy="60" r="2" fill="green"/><path fill="none" stroke="green" d="M35 55h10v10H35z"/><circle cy="100" r="2" fill="gold"/><path fill="none" stroke="gold" d="M-5 95H5v10H-5z"/><circle cx="60" cy="60" r="2" fill="red"/><path fill="none" stroke="red" d="M55 55h10v10H55z"/><circle cx="100" cy="100" r="2" fill="#00f"/><path fill="none" stroke="#00f" d="M95 95h10v10H95z"/><circle cx="100" cy="60" r="2" fill="green"/><path fill="none" stroke="green" d="M95 55h10v10H95z"/><circle cx="60" cy="100" r="2" fill="gold"/><path fill="none" stroke="gold" d="M55 95h10v10H55z"/><circle cx="120" cy="60" r="2" fill="red"/><path fill="none" stroke="red" d="M115 55h10v10h-10z"/><circle cx="160" cy="100" r="2" fill="#00f"/><path fill="none" stroke="#00f" d="M155 95h10v10h-10z"/><circle cx="160" cy="60" r="2" fill="green"/><path fill="none" stroke="green" d="M155 55h10v10h-10z"/><circle cx="120" cy="100" r="2" fill="gold"/><path fill="none" stroke="gold" d="M115 95h10v10h-10z"/><circle cx="180" cy="60" r="2" fill="red"/><path fill="none" stroke="red" d="M175 55h10v10h-10z"/><circle cx="220" cy="100" r="2" fill="#00f"/><path fill="none" stroke="#00f" d="M215 95h10v10h-10z"/><circle cx="220" cy="60" r="2" fill="green"/><path fill="none" stroke="green" d="M215 55h10v10h-10z"/><circle cx="180" cy="100" r="2" fill="gold"/><path fill="none" stroke="gold" d="M175 95h10v10h-10z"/><circle cx="240" cy="60" r="2" fill="red"/><path fill="none" stroke="red" d="M235 55h10v10h-10z"/><circle cx="280" cy="100" r="2" fill="#00f"/><path fill="none" stroke="#00f" d="M275 95h10v10h-10z"/><circle cx="280" cy="60" r="2" fill="green"/><path fill="none" stroke="green" d="M275 55h10v10h-10z"/><circle cx="240" cy="100" r="2" fill="gold"/><path fill="none" stroke="gold" d="M235 95h10v10h-10z"/><circle cx="300" cy="60" r="2" fill="red"/><path fill="none" stroke="red" d="M295 55h10v10h-10z"/><circle cx="340" cy="100" r="2" fill="#00f"/><path fill="none" stroke="#00f" d="M335 95h10v10h-10z"/><circle cx="340" cy="60" r="2" fill="green"/><path fill="none" stroke="green" d="M335 55h10v10h-10z"/><circle cx="300" cy="100" r="2" fill="gold"/><path fill="none" stroke="gold" d="M295 95h10v10h-10z"/><circle cx="360" cy="60" r="2" fill="red"/><path fill="none" stroke="red" d="M355 55h10v10h-10z"/><circle cx="400" cy="100" r="2" fill="#00f"/><path fill="none" stroke="#00f" d="M395 95h10v10h-10z"/><circle cx="400" cy="60" r="2" fill="green"/><path fill="none" stroke="green" d="M395 55h10v10h-10z"/><circle cx="360" cy="100" r="2" fill="gold"/><path fill="none" stroke="gold" d="M355 95h10v10h-10z"/><circle cx="420" cy="60" r="2" fill="red"/><path fill="none" stroke="red" d="M415 55h10v10h-10z"/><circle cx="460" cy="100" r="2" fill="#00f"/><path fill="none" stroke="#00f" d="M455 95h10v10h-10z"/><circle cx="460" cy="60" r="2" fill="green"/><path fill="none" stroke="green" d="M455 55h10v10h-10z"/><circle cx="420" cy="100" r="2" fill="gold"/><path fill="none" stroke="gold" d="M415 95h10v10h-10z"/><circle cx="480" cy="60" r="2" fill="red"/><path fill="none" stroke="red" d="M475 55h10v10h-10z"/><circle cx="520" cy="100" r="2" fill="#00f"/><path fill="none" stroke="#00f" d="M515 95h10v10h-10z"/><circle cx="520" cy="60" r="2" fill="green"/><path fill="none" stroke="green" d="M515 55h10v10h-10z"/><circle cx="480" cy="100" r="2" fill="gold"/><path fill="none" stroke="gold" d="M475 95h10v10h-10z"/><circle cx="540" cy="60" r="2" fill="red"/><path fill="none" stroke="red" d="M535 55h10v10h-10z"/><circle cx="580" cy="100" r="2" fill="#00f"/><path fill="none" stroke="#00f" d="M575 95h10v10h-10z"/><circle cx="580" cy="60" r="2" fill="green"/><path fill="none" stroke="green" d="M575 55h10v10h-10z"/><circle cx="540" cy="100" r="2" fill="gold"/><path fill="none" stroke="gold" d="M535 95h10v10h-10z"/><circle cy="120" r="2" fill="red"/><path fill="none" stroke="red" d="M-5 115H5v10H-5z"/><circle cx="40" cy="160" r="2" fill="#00f"/><path fill="none" stroke="#00f" d="M35 155h10v10H35z"/><circle cx="40" cy="120" r="2" fill="green"/><path fill="none" stroke="green" d="M35 115h10v10H35z"/><circle cy="160" r="2" fill="gold"/><path fill="none" stroke="gold" d="M-5 155H5v10H-5z"/><circle cx="60" cy="120" r="2" fill="red"/><path fill="none" stroke="red" d="M55 115h10v10H55z"/><circle cx="100" cy="160" r="2" fill="#00f"/><path fill="none" stroke="#00f" d="M95 155h10v10H95z"/><circle cx="100" cy="120" r="2" fill="green"/><path fill="none" stroke="green" d="M95 115h10v10H95z"/><circle cx="60" cy="160" r="2" fill="gold"/><path fill="none" stroke="gold" d="M55 155h10v10H55z"/><circle cx="120" cy="120" r="2" fill="red"/><path fill="none" stroke="red" d="M115 115h10v10h-10z"/><circle cx="160" cy="160" r="2" fill="#00f"/><path fill="none" stroke="#00f" d="M155 155h10v10h-10z"/><circle cx="160" cy="120" r="2" fill="green"/><path fill="none" stroke="green" d="M155 115h10v10h-10z"/><circle cx="120" cy="160" r="2" fill="gold"/><path fill="none" stroke="gold" d="M115 155h10v10h-10z"/><circle cx="180" cy="120" r="2" fill="red"/><path fill="none" stroke="red" d="M175 115h10v10h-10z"/><circle cx="220" cy="160" r="2" fill="#00f"/><path fill="none" stroke="#00f" d="M215 155h10v10h-10z"/><circle cx="220" cy="120" r="2" fill="green"/><path fill="none" stroke="green" d="M215 115h10v10h-10z"/><circle cx="180" cy="160" r="2" fill="gold"/><path fill="none" stroke="gold" d="M175 155h10v10h-10z"/><circle cx="240" cy="120" r="2" fill="red"/><path fill="none" stroke="red" d="M235 115h10v10h-10z"/><circle cx="280" cy="160" r="2" fill="#00f"/><path fill="none" stroke="#00f" d="M275 155h10v10h-10z"/><circle cx="280" cy="120" r="2" fill="green"/><path fill="none" stroke="green" d="M275 115h10v10h-10z"/><circle cx="240" cy="160" r="2" fill="gold"/><path fill="none" stroke="gold" d="M235 155h10v10h-10z"/><circle cx="300" cy="120" r="2" fill="red"/><path fill="none" stroke="red" d="M295 115h10v10h-10z"/><circle cx="340" cy="160" r="2" fill="#00f"/><path fill="none" stroke="#00f" d="M335 155h10v10h-10z"/><circle cx="340" cy="120" r="2" fill="green"/><path fill="none" stroke="green" d="M335 115h10v10h-10z"/><circle cx="300" cy="160" r="2" fill="gold"/><path fill="none" stroke="gold" d="M295 155h10v10h-10z"/><circle cx="360" cy="120" r="2" fill="red"/><path fill="none" stroke="red" d="M355 115h10v10h-10z"/><circle cx="400" cy="160" r="2" fill="#00f"/><path fill="none" stroke="#00f" d="M395 155h10v10h-10z"/><circle cx="400" cy="120" r="2" fill="green"/><path fill="none" stroke="green" d="M395 115h10v10h-10z"/><circle cx="360" cy="160" r="2" fill="gold"/><path fill="none" stroke="gold" d="M355 155h10v10h-10z"/><circle cx="420" cy="120" r="2" fill="red"/><path fill="none" stroke="red" d="M415 115h10v10h-10z"/><circle cx="460" cy="160" r="2" fill="#00f"/><path fill="none" stroke="#00f" d="M455 155h10v10h-10z"/><circle cx="460" cy="120" r="2" fill="green"/><path fill="none" stroke="green" d="M455 115h10v10h-10z"/><circle cx="420" cy="160" r="2" fill="gold"/><path fill="none" stroke="gold" d="M415 155h10v10h-10z"/><circle cx="480" cy="120" r="2" fill="red"/><path fill="none" stroke="red" d="M475 115h10v10h-10z"/><circle cx="520" cy="160" r="2" fill="#00f"/><path fill="none" stroke="#00f" d="M515 155h10v10h-10z"/><circle cx="520" cy="120" r="2" fill="green"/><path fill="none" stroke="green" d="M515 115h10v10h-10z"/><circle cx="480" cy="160" r="2" fill="gold"/><path fill="none" stroke="gold" d="M475 155h10v10h-10z"/><circle cx="540" cy="120" r="2" fill="red"/><path fill="none" stroke="red" d="M535 115h10v10h-10z"/><circle cx="580" cy="160" r="2" fill="#00f"/><path fill="none" stroke="#00f" d="M575 155h10v10h-10z"/><circle cx="580" cy="120" r="2" fill="green"/><path fill="none" stroke="green" d="M575 115h10v10h-10z"/><circle cx="540" cy="160" r="2" fill="gold"/><path fill="none" stroke="gold" d="M535 155h10v10h-10z"/><circle cy="180" r="2" fill="red"/><path fill="none" stroke="red" d="M-5 175H5v10H-5z"/><circle cx="40" cy="220" r="2" fill="#00f"/><path fill="none" stroke="#00f" d="M35 215h10v10H35z"/><circle cx="40" cy="180" r="2" fill="green"/><path fill="none" stroke="green" d="M35 175h10v10H35z"/><circle cy="220" r="2" fill="gold"/><path fill="none" stroke="gold" d="M-5 215H5v10H-5z"/><circle cx="60" cy="180" r="2" fill="red"/><path fill="none" stroke="red" d="M55 175h10v10H55z"/><circle cx="100" cy="220" r="2" fill="#00f"/><path fill="none" stroke="#00f" d="M95 215h10v10H95z"/><circle cx="100" cy="180" r="2" fill="green"/><path fill="none" stroke="green" d="M95 175h10v10H95z"/><circle cx="60" cy="220" r="2" fill="gold"/><path fill="none" stroke="gold" d="M55 215h10v10H55z"/><circle cx="120" cy="180" r="2" fill="red"/><path fill="none" stroke="red" d="M115 175h10v10h-10z"/><circle cx="160" cy="220" r="2" fill="#00f"/><path fill="none" stroke="#00f" d="M155 215h10v10h-10z"/><circle cx="160" cy="180" r="2" fill="green"/><path fill="none" stroke="green" d="M155 175h10v10h-10z"/><circle cx="120" cy="220" r="2" fill="gold"/><path fill="none" stroke="gold" d="M115 215h10v10h-10z"/><circle cx="180" cy="180" r="2" fill="red"/><path fill="none" stroke="red" d="M175 175h10v10h-10z"/><circle cx="220" cy="220" r="2" fill="#00f"/><path fill="none" stroke="#00f" d="M215 215h10v10h-10z"/><circle cx="220" cy="180" r="2" fill="green"/><path fill="none" stroke="green" d="M215 175h10v10h-10z"/><circle cx="180" cy="220" r="2" fill="gold"/><path fill="none" stroke="gold" d="M175 215h10v10h-10z"/><circle cx="240" cy="180" r="2" fill="red"/><path fill="none" stroke="red" d="M235 175h10v10h-10z"/><circle cx="280" cy="220" r="2" fill="#00f"/><path fill="none" stroke="#00f" d="M275 215h10v10h-10z"/><circle cx="280" cy="180" r="2" fill="green"/><path fill="none" stroke="green" d="M275 175h10v10h-10z"/><circle cx="240" cy="220" r="2" fill="gold"/><path fill="none" stroke="gold" d="M235 215h10v10h-10z"/><circle cx="300" cy="180" r="2" fill="red"/><path fill="none" stroke="red" d="M295 175h10v10h-10z"/><circle cx="340" cy="220" r="2" fill="#00f"/><path fill="none" stroke="#00f" d="M335 215h10v10h-10z"/><circle cx="340" cy="180" r="2" fill="green"/><path fill="none" stroke="green" d="M335 175h10v10h-10z"/><circle cx="300" cy="220" r="2" fill="gold"/><path fill="none" stroke="gold" d="M295 215h10v10h-10z"/><circle cx="360" cy="180" r="2" fill="red"/><path fill="none" stroke="red" d="M355 175h10v10h-10z"/><circle cx="400" cy="220" r="2" fill="#00f"/><path fill="none" stroke="#00f" d="M395 215h10v10h-10z"/><circle cx="400" cy="180" r="2" fill="green"/><path fill="none" stroke="green" d="M395 175h10v10h-10z"/><circle cx="360" cy="220" r="2" fill="gold"/><path fill="none" stroke="gold" d="M355 215h10v10h-10z"/><circle cx="420" cy="180" r="2" fill="red"/><path fill="none" stroke="red" d="M415 175h10v10h-10z"/><circle cx="460" cy="220" r="2" fill="#00f"/><path fill="none" stroke="#00f" d="M455 215h10v10h-10z"/><circle cx="460" cy="180" r="2" fill="green"/><path fill="none" stroke="green" d="M455 175h10v10h-10z"/><circle cx="420" cy="220" r="2" fill="gold"/><path fill="none" stroke="gold" d="M415 215h10v10h-10z"/><circle cx="480" cy="180" r="2" fill="red"/><path fill="none" stroke="red" d="M475 175h10v10h-10z"/><circle cx="520" cy="220" r="2" fill="#00f"/><path fill="none" stroke="#00f" d="M515 215h10v10h-10z"/><circle cx="520" cy="180" r="2" fill="green"/><path fill="none" stroke="green" d="M515 175h10v10h-10z"/><circle cx="480" cy="220" r="2" fill="gold"/><path fill="none" stroke="gold" d="M475 215h10v10h-10z"/><circle cx="540" cy="180" r="2" fill="red"/><path fill="none" stroke="red" d="M535 175h10v10h-10z"/><circle cx="580" cy="220" r="2" fill="#00f"/><path fill="none" stroke="#00f" d="M575 215h10v10h-10z"/><circle cx="580" cy="180" r="2" fill="green"/><path fill="none" stroke="green" d="M575 175h10v10h-10z"/><circle cx="540" cy="220" r="2" fill="gold"/><path fill="none" stroke="gold" d="M535 215h10v10h-10z"/><circle cy="240" r="2" fill="red"/><path fill="none" stroke="red" d="M-5 235H5v10H-5z"/><circle cx="40" cy="280" r="2" fill="#00f"/><path fill="none" stroke="#00f" d="M35 275h10v10H35z"/><circle cx="40" cy="240" r="2" fill="green"/><path fill="none" stroke="green" d="M35 235h10v10H35z"/><circle cy="280" r="2" fill="gold"/><path fill="none" stroke="gold" d="M-5 275H5v10H-5z"/><circle cx="60" cy="240" r="2" fill="red"/><path fill="none" stroke="red" d="M55 235h10v10H55z"/><circle cx="100" cy="280" r="2" fill="#00f"/><path fill="none" stroke="#00f" d="M95 275h10v10H95z"/><circle cx="100" cy="240" r="2" fill="green"/><path fill="none" stroke="green" d="M95 235h10v10H95z"/><circle cx="60" cy="280" r="2" fill="gold"/><path fill="none" stroke="gold" d="M55 275h10v10H55z"/><circle cx="120" cy="240" r="2" fill="red"/><path fill="none" stroke="red" d="M115 235h10v10h-10z"/><circle cx="160" cy="280" r="2" fill="#00f"/><path fill="none" stroke="#00f" d="M155 275h10v10h-10z"/><circle cx="160" cy="240" r="2" fill="green"/><path fill="none" stroke="green" d="M155 235h10v10h-10z"/><circle cx="120" cy="280" r="2" fill="gold"/><path fill="none" stroke="gold" d="M115 275h10v10h-10z"/><circle cx="180" cy="240" r="2" fill="red"/><path fill="none" stroke="red" d="M175 235h10v10h-10z"/><circle cx="220" cy="280" r="2" fill="#00f"/><path fill="none" stroke="#00f" d="M215 275h10v10h-10z"/><circle cx="220" cy="240" r="2" fill="green"/><path fill="none" stroke="green" d="M215 235h10v10h-10z"/><circle cx="180" cy="280" r="2" fill="gold"/><path fill="none" stroke="gold" d="M175 275h10v10h-10z"/><circle cx="240" cy="240" r="2" fill="red"/><path fill="none" stroke="red" d="M235 235h10v10h-10z"/><circle cx="280" cy="280" r="2" fill="#00f"/><path fill="none" stroke="#00f" d="M275 275h10v10h-10z"/><circle cx="280" cy="240" r="2" fill="green"/><path fill="none" stroke="green" d="M275 235h10v10h-10z"/><circle cx="240" cy="280" r="2" fill="gold"/><path fill="none" stroke="gold" d="M235 275h10v10h-10z"/><circle cx="300" cy="240" r="2" fill="red"/><path fill="none" stroke="red" d="M295 235h10v10h-10z"/><circle cx="340" cy="280" r="2" fill="#00f"/><path fill="none" stroke="#00f" d="M335 275h10v10h-10z"/><circle cx="340" cy="240" r="2" fill="green"/><path fill="none" stroke="green" d="M335 235h10v10h-10z"/><circle cx="300" cy="280" r="2" fill="gold"/><path fill="none" stroke="gold" d="M295 275h10v10h-10z"/><circle cx="360" cy="240" r="2" fill="red"/><path fill="none" stroke="red" d="M355 235h10v10h-10z"/><circle cx="400" cy="280" r="2" fill="#00f"/><path fill="none" stroke="#00f" d="M395 275h10v10h-10z"/><circle cx="400" cy="240" r="2" fill="green"/><path fill="none" stroke="green" d="M395 235h10v10h-10z"/><circle cx="360" cy="280" r="2" fill="gold"/><path fill="none" stroke="gold" d="M355 275h10v10h-10z"/><circle cx="420" cy="240" r="2" fill="red"/><path fill="none" stroke="red" d="M415 235h10v10h-10z"/><circle cx="460" cy="280" r="2" fill="#00f"/><path fill="none" stroke="#00f" d="M455 275h10v10h-10z"/><circle cx="460" cy="240" r="2" fill="green"/><path fill="none" stroke="green" d="M455 235h10v10h-10z"/><circle cx="420" cy="280" r="2" fill="gold"/><path fill="none" stroke="gold" d="M415 275h10v10h-10z"/><circle cx="480" cy="240" r="2" fill="red"/><path fill="none" stroke="red" d="M475 235h10v10h-10z"/><circle cx="520" cy="280" r="2" fill="#00f"/><path fill="none" stroke="#00f" d="M515 275h10v10h-10z"/><circle cx="520" cy="240" r="2" fill="green"/><path fill="none" stroke="green" d="M515 235h10v10h-10z"/><circle cx="480" cy="280" r="2" fill="gold"/><path fill="none" stroke="gold" d="M475 275h10v10h-10z"/><circle cx="540" cy="240" r="2" fill="red"/><path fill="none" stroke="red" d="M535 235h10v10h-10z"/><circle cx="580" cy="280" r="2" fill="#00f"/><path fill="none" stroke="#00f" d="M575 275h10v10h-10z"/><circle cx="580" cy="240" r="2" fill="green"/><path fill="none" stroke="green" d="M575 235h10v10h-10z"/><circle cx="540" cy="280" r="2" fill="gold"/><path fill="none" stroke="gold" d="M535 275h10v10h-10z"/><text x="-28" y="120" fill="#00f" text-anchor="middle" font-size="18">i</text><text x="-20" y="20" fill="#00f" text-anchor="middle" font-size="14">0</text><text x="-20" y="80" fill="#00f" text-anchor="middle" font-size="14">1</text><text x="-20" y="140" fill="#00f" text-anchor="middle" font-size="14">2</text><text x="-20" y="200" fill="#00f" text-anchor="middle" font-size="14">3</text><text x="-20" y="260" fill="#00f" text-anchor="middle" font-size="14">4</text><text x="300" y="-28" fill="red" text-anchor="middle" font-size="18">j</text><text x="20" y="-13" fill="red" text-anchor="middle" font-size="14">0</text><text x="80" y="-13" fill="red" text-anchor="middle" font-size="14">1</text><text x="140" y="-13" fill="red" text-anchor="middle" font-size="14">2</text><text x="200" y="-13" fill="red" text-anchor="middle" font-size="14">3</text><text x="260" y="-13" fill="red" text-anchor="middle" font-size="14">4</text><text x="320" y="-13" fill="red" text-anchor="middle" font-size="14">5</text><text x="380" y="-13" fill="red" text-anchor="middle" font-size="14">6</text><text x="440" y="-13" fill="red" text-anchor="middle" font-size="14">7</text><text x="500" y="-13" fill="red" text-anchor="middle" font-size="14">8</text><text x="560" y="-13" fill="red" text-anchor="middle" font-size="14">9</text></svg>
