<svg xmlns="http://www.w3.org/2000/svg" width="680" height="360" viewBox="-40 -40 680 360"><path fill="none" stroke="#000" d="M-10-10h620v320H-10z"/><path stroke="red" d="M0-10v300M-10 0h600"/><circle cx="20" r="3" fill="red"/><circle cx="20" cy="20" r="3" fill="#00f"/><circle cx="10" cy="10" r="3" fill="green"/><circle cx="30" cy="10" r="3" fill="gold"/><circle cx="60" r="3" fill="red"/><circle cx="60" cy="20" r="3" fill="#00f"/><circle cx="50" cy="10" r="3" fill="green"/><circle cx="70" cy="10" r="3" fill="gold"/><circle cx="100" r="3" fill="red"/><circle cx="100" cy="20" r="3" fill="#00f"/><circle cx="90" cy="10" r="3" fill="green"/><circle cx="110" cy="10" r="3" fill="gold"/><circle cx="140" r="3" fill="red"/><circle cx="140" cy="20" r="3" fill="#00f"/><circle cx="130" cy="10" r="3" fill="green"/><circle cx="150" cy="10" r="3" fill="gold"/><circle cx="180" r="3" fill="red"/><circle cx="180" cy="20" r="3" fill="#00f"/><circle cx="170" cy="10" r="3" fill="green"/><circle cx="190" cy="10" r="3" fill="gold"/><circle cx="220" r="3" fill="red"/><circle cx="220" cy="20" r="3" fill="#00f"/><circle cx="210" cy="10" r="3" fill="green"/><circle cx="230" cy="10" r="3" fill="gold"/><circle cx="260" r="3" fill="red"/><circle cx="260" cy="20" r="3" fill="#00f"/><circle cx="250" cy="10" r="3" fill="green"/><circle cx="270" cy="10" r="3" fill="gold"/><circle cx="300" r="3" fill="red"/><circle cx="300" cy="20" r="3" fill="#00f"/><circle cx="290" cy="10" r="3" fill="green"/><circle cx="310" cy="10" r="3" fill="gold"/><circle cx="20" cy="40" r="3" fill="red"/><circle cx="20" cy="60" r="3" fill="#00f"/><circle cx="10" cy="50" r="3" fill="green"/><circle cx="30" cy="50" r="3" fill="gold"/><circle cx="60" cy="40" r="3" fill="red"/><circle cx="60" cy="60" r="3" fill="#00f"/><circle cx="50" cy="50" r="3" fill="green"/><circle cx="70" cy="50" r="3" fill="gold"/><circle cx="100" cy="40" r="3" fill="red"/><circle cx="100" cy="60" r="3" fill="#00f"/><circle cx="90" cy="50" r="3" fill="green"/><circle cx="110" cy="50" r="3" fill="gold"/><circle cx="140" cy="40" r="3" fill="red"/><circle cx="140" cy="60" r="3" fill="#00f"/><circle cx="130" cy="50" r="3" fill="green"/><circle cx="150" cy="50" r="3" fill="gold"/><circle cx="180" cy="40" r="3" fill="red"/><circle cx="180" cy="60" r="3" fill="#00f"/><circle cx="170" cy="50" r="3" fill="green"/><circle cx="190" cy="50" r="3" fill="gold"/><circle cx="220" cy="40" r="3" fill="red"/><circle cx="220" cy="60" r="3" fill="#00f"/><circle cx="210" cy="50" r="3" fill="green"/><circle cx="230" cy="50" r="3" fill="gold"/><circle cx="260" cy="40" r="3" fill="red"/><circle cx="260" cy="60" r="3" fill="#00f"/><circle cx="250" cy="50" r="3" fill="green"/><circle cx="270" cy="50" r="3" fill="gold"/><circle cx="300" cy="40" r="3" fill="red"/><circle cx="300" cy="60" r="3" fill="#00f"/><circle cx="290" cy="50" r="3" fill="green"/><circle cx="310" cy="50" r="3" fill="gold"/><circle cx="20" cy="80" r="3" fill="red"/><circle cx="20" cy="100" r="3" fill="#00f"/><circle cx="10" cy="90" r="3" fill="green"/><circle cx="30" cy="90" r="3" fill="gold"/><circle cx="60" cy="80" r="3" fill="red"/><circle cx="60" cy="100" r="3" fill="#00f"/><circle cx="50" cy="90" r="3" fill="green"/><circle cx="70" cy="90" r="3" fill="gold"/><circle cx="100" cy="80" r="3" fill="red"/><circle cx="100" cy="100" r="3" fill="#00f"/><circle cx="90" cy="90" r="3" fill="green"/><circle cx="110" cy="90" r="3" fill="gold"/><circle cx="140" cy="80" r="3" fill="red"/><circle cx="140" cy="100" r="3" fill="#00f"/><circle cx="130" cy="90" r="3" fill="green"/><circle cx="150" cy="90" r="3" fill="gold"/><circle cx="180" cy="80" r="3" fill="red"/><circle cx="180" cy="100" r="3" fill="#00f"/><circle cx="170" cy="90" r="3" fill="green"/><circle cx="190" cy="90" r="3" fill="gold"/><circle cx="220" cy="80" r="3" fill="red"/><circle cx="220" cy="100" r="3" fill="#00f"/><circle cx="210" cy="90" r="3" fill="green"/><circle cx="230" cy="90" r="3" fill="gold"/><circle cx="260" cy="80" r="3" fill="red"/><circle cx="260" cy="100" r="3" fill="#00f"/><circle cx="250" cy="90" r="3" fill="green"/><circle cx="270" cy="90" r="3" fill="gold"/><circle cx="300" cy="80" r="3" fill="red"/><circle cx="300" cy="100" r="3" fill="#00f"/><circle cx="290" cy="90" r="3" fill="green"/><circle cx="310" cy="90" r="3" fill="gold"/><circle cx="20" cy="120" r="3" fill="red"/><circle cx="20" cy="140" r="3" fill="#00f"/><circle cx="10" cy="130" r="3" fill="green"/><circle cx="30" cy="130" r="3" fill="gold"/><circle cx="60" cy="120" r="3" fill="red"/><circle cx="60" cy="140" r="3" fill="#00f"/><circle cx="50" cy="130" r="3" fill="green"/><circle cx="70" cy="130" r="3" fill="gold"/><circle cx="100" cy="120" r="3" fill="red"/><circle cx="100" cy="140" r="3" fill="#00f"/><circle cx="90" cy="130" r="3" fill="green"/><circle cx="110" cy="130" r="3" fill="gold"/><circle cx="140" cy="120" r="3" fill="red"/><circle cx="140" cy="140" r="3" fill="#00f"/><circle cx="130" cy="130" r="3" fill="green"/><circle cx="150" cy="130" r="3" fill="gold"/><circle cx="180" cy="120" r="3" fill="red"/><circle cx="180" cy="140" r="3" fill="#00f"/><circle cx="170" cy="130" r="3" fill="green"/><circle cx="190" cy="130" r="3" fill="gold"/><circle cx="220" cy="120" r="3" fill="red"/><circle cx="220" cy="140" r="3" fill="#00f"/><circle cx="210" cy="130" r="3" fill="green"/><circle cx="230" cy="130" r="3" fill="gold"/><circle cx="260" cy="120" r="3" fill="red"/><circle cx="260" cy="140" r="3" fill="#00f"/><circle cx="250" cy="130" r="3" fill="green"/><circle cx="270" cy="130" r="3" fill="gold"/><circle cx="300" cy="120" r="3" fill="red"/><circle cx="300" cy="140" r="3" fill="#00f"/><circle cx="290" cy="130" r="3" fill="green"/><circle cx="310" cy="130" r="3" fill="gold"/><circle cx="20" cy="160" r="3" fill="red"/><circle cx="20" cy="180" r="3" fill="#00f"/><circle cx="10" cy="170" r="3" fill="green"/><circle cx="30" cy="170" r="3" fill="gold"/><circle cx="60" cy="160" r="3" fill="red"/><circle cx="60" cy="180" r="3" fill="#00f"/><circle cx="50" cy="170" r="3" fill="green"/><circle cx="70" cy="170" r="3" fill="gold"/><circle cx="100" cy="160" r="3" fill="red"/><circle cx="100" cy="180" r="3" fill="#00f"/><circle cx="90" cy="170" r="3" fill="green"/><circle cx="110" cy="170" r="3" fill="gold"/><circle cx="140" cy="160" r="3" fill="red"/><circle cx="140" cy="180" r="3" fill="#00f"/><circle cx="130" cy="170" r="3" fill="green"/><circle cx="150" cy="170" r="3" fill="gold"/><circle cx="180" cy="160" r="3" fill="red"/><circle cx="180" cy="180" r="3" fill="#00f"/><circle cx="170" cy="170" r="3" fill="green"/><circle cx="190" cy="170" r="3" fill="gold"/><circle cx="220" cy="160" r="3" fill="red"/><circle cx="220" cy="180" r="3" fill="#00f"/><circle cx="210" cy="170" r="3" fill="green"/><circle cx="230" cy="170" r="3" fill="gold"/><circle cx="260" cy="160" r="3" fill="red"/><circle cx="260" cy="180" r="3" fill="#00f"/><circle cx="250" cy="170" r="3" fill="green"/><circle cx="270" cy="170" r="3" fill="gold"/><circle cx="300" cy="160" r="3" fill="red"/><circle cx="300" cy="180" r="3" fill="#00f"/><circle cx="290" cy="170" r="3" fill="green"/><circle cx="310" cy="170" r="3" fill="gold"/><circle cx="20" cy="200" r="3" fill="red"/><circle cx="20" cy="220" r="3" fill="#00f"/><circle cx="10" cy="210" r="3" fill="green"/><circle cx="30" cy="210" r="3" fill="gold"/><circle cx="60" cy="200" r="3" fill="red"/><circle cx="60" cy="220" r="3" fill="#00f"/><circle cx="50" cy="210" r="3" fill="green"/><circle cx="70" cy="210" r="3" fill="gold"/><circle cx="100" cy="200" r="3" fill="red"/><circle cx="100" cy="220" r="3" fill="#00f"/><circle cx="90" cy="210" r="3" fill="green"/><circle cx="110" cy="210" r="3" fill="gold"/><circle cx="140" cy="200" r="3" fill="red"/><circle cx="140" cy="220" r="3" fill="#00f"/><circle cx="130" cy="210" r="3" fill="green"/><circle cx="150" cy="210" r="3" fill="gold"/><circle cx="180" cy="200" r="3" fill="red"/><circle cx="180" cy="220" r="3" fill="#00f"/><circle cx="170" cy="210" r="3" fill="green"/><circle cx="190" cy="210" r="3" fill="gold"/><circle cx="220" cy="200" r="3" fill="red"/><circle cx="220" cy="220" r="3" fill="#00f"/><circle cx="210" cy="210" r="3" fill="green"/><circle cx="230" cy="210" r="3" fill="gold"/><circle cx="260" cy="200" r="3" fill="red"/><circle cx="260" cy="220" r="3" fill="#00f"/><circle cx="250" cy="210" r="3" fill="green"/><circle cx="270" cy="210" r="3" fill="gold"/><circle cx="300" cy="200" r="3" fill="red"/><circle cx="300" cy="220" r="3" fill="#00f"/><circle cx="290" cy="210" r="3" fill="green"/><circle cx="310" cy="210" r="3" fill="gold"/><text x="20" y="-12" fill="red" text-anchor="middle" font-size="12">20</text><path stroke="red" d="M20-8V8"/><text x="10" y="-22" fill="green" text-anchor="middle" font-size="12">10</text><path stroke="green" d="M10-8V8"/><text x="30" y="-22" fill="green" text-anchor="middle" font-size="12">30</text><path stroke="green" d="M30-8V8"/><text x="60" y="-12" fill="red" text-anchor="middle" font-size="12">60</text><path stroke="red" d="M60-8V8"/><text x="50" y="-22" fill="green" text-anchor="middle" font-size="12">50</text><path stroke="green" d="M50-8V8"/><text x="70" y="-22" fill="green" text-anchor="middle" font-size="12">70</text><path stroke="green" d="M70-8V8"/><text x="100" y="-12" fill="red" text-anchor="middle" font-size="12">100</text><path stroke="red" d="M100-8V8"/><text x="90" y="-22" fill="green" text-anchor="middle" font-size="12">90</text><path stroke="green" d="M90-8V8"/><text x="110" y="-22" fill="green" text-anchor="middle" font-size="12">110</text><path stroke="green" d="M110-8V8"/><text x="140" y="-12" fill="red" text-anchor="middle" font-size="12">140</text><path stroke="red" d="M140-8V8"/><text x="130" y="-22" fill="green" text-anchor="middle" font-size="12">130</text><path stroke="green" d="M130-8V8"/><text x="150" y="-22" fill="green" text-anchor="middle" font-size="12">150</text><path stroke="green" d="M150-8V8"/><text x="180" y="-12" fill="red" text-anchor="middle" font-size="12">180</text><path stroke="red" d="M180-8V8"/><text x="170" y="-22" fill="green" text-anchor="middle" font-size="12">170</text><path stroke="green" d="M170-8V8"/><text x="190" y="-22" fill="green" text-anchor="middle" font-size="12">190</text><path stroke="green" d="M190-8V8"/><text x="220" y="-12" fill="red" text-anchor="middle" font-size="12">220</text><path stroke="red" d="M220-8V8"/><text x="210" y="-22" fill="green" text-anchor="middle" font-size="12">210</text><path stroke="green" d="M210-8V8"/><text x="230" y="-22" fill="green" text-anchor="middle" font-size="12">230</text><path stroke="green" d="M230-8V8"/><text x="260" y="-12" fill="red" text-anchor="middle" font-size="12">260</text><path stroke="red" d="M260-8V8"/><text x="250" y="-22" fill="green" text-anchor="middle" font-size="12">250</text><path stroke="green" d="M250-8V8"/><text x="270" y="-22" fill="green" text-anchor="middle" font-size="12">270</text><path stroke="green" d="M270-8V8"/><text x="300" y="-12" fill="red" text-anchor="middle" font-size="12">300</text><path stroke="red" d="M300-8V8"/><text x="290" y="-22" fill="green" text-anchor="middle" font-size="12">290</text><path stroke="green" d="M290-8V8"/><text x="310" y="-22" fill="green" text-anchor="middle" font-size="12">310</text><path stroke="green" d="M310-8V8"/><text x="-22" y="5" fill="red" text-anchor="middle" font-size="14">0</text><path stroke="red" d="M-8 0H8"/><text x="-22" y="25" fill="red" text-anchor="middle" font-size="14">20</text><path stroke="red" d="M-8 20H8"/><text x="-22" y="45" fill="red" text-anchor="middle" font-size="14">40</text><path stroke="red" d="M-8 40H8"/><text x="-22" y="65" fill="red" text-anchor="middle" font-size="14">60</text><path stroke="red" d="M-8 60H8"/><text x="-22" y="85" fill="red" text-anchor="middle" font-size="14">80</text><path stroke="red" d="M-8 80H8"/><text x="-22" y="105" fill="red" text-anchor="middle" font-size="14">100</text><path stroke="red" d="M-8 100H8"/><text x="-22" y="125" fill="red" text-anchor="middle" font-size="14">120</text><path stroke="red" d="M-8 120H8"/><text x="-22" y="145" fill="red" text-anchor="middle" font-size="14">140</text><path stroke="red" d="M-8 140H8"/><text x="-22" y="165" fill="red" text-anchor="middle" font-size="14">160</text><path stroke="red" d="M-8 160H8"/><text x="-22" y="185" fill="red" text-anchor="middle" font-size="14">180</text><path stroke="red" d="M-8 180H8"/><text x="-22" y="205" fill="red" text-anchor="middle" font-size="14">200</text><path stroke="red" d="M-8 200H8"/><text x="-22" y="225" fill="red" text-anchor="middle" font-size="14">220</text><path stroke="red" d="M-8 220H8"/><text x="-22" y="15" fill="#00f" text-anchor="middle" font-size="14">10</text><path stroke="#00f" d="M-8 10H8"/><text x="-22" y="55" fill="#00f" text-anchor="middle" font-size="14">50</text><path stroke="#00f" d="M-8 50H8"/><text x="-22" y="95" fill="#00f" text-anchor="middle" font-size="14">90</text><path stroke="#00f" d="M-8 90H8"/><text x="-22" y="135" fill="#00f" text-anchor="middle" font-size="14">130</text><path stroke="#00f" d="M-8 130H8"/><text x="-22" y="175" fill="#00f" text-anchor="middle" font-size="14">170</text><path stroke="#00f" d="M-8 170H8"/><text x="-22" y="215" fill="#00f" text-anchor="middle" font-size="14">210</text><path stroke="#00f" d="M-8 210H8"/></svg>
