<svg xmlns="http://www.w3.org/2000/svg" width="680" height="350" viewBox="-40 -40 680 350"><path fill="none" stroke="#000" d="M-10-10h600v300H-10z"/><path stroke="#000" d="M20 0v20M10 10h20M60 0v20M50 10h20m30-10v20M90 10h20m30-10v20m-10-10h20m30-10v20m-10-10h20m30-10v20m-10-10h20m30-10v20m-10-10h20m30-10v20m-10-10h20M20 40v20M10 50h20m30-10v20M50 50h20m30-10v20M90 50h20m30-10v20m-10-10h20m30-10v20m-10-10h20m30-10v20m-10-10h20m30-10v20m-10-10h20m30-10v20m-10-10h20M20 80v20M10 90h20m30-10v20M50 90h20m30-10v20M90 90h20m30-10v20m-10-10h20m30-10v20m-10-10h20m30-10v20m-10-10h20m30-10v20m-10-10h20m30-10v20m-10-10h20M20 120v20m-10-10h20m30-10v20m-10-10h20m30-10v20m-10-10h20m30-10v20m-10-10h20m30-10v20m-10-10h20m30-10v20m-10-10h20m30-10v20m-10-10h20m30-10v20m-10-10h20M20 160v20m-10-10h20m30-10v20m-10-10h20m30-10v20m-10-10h20m30-10v20m-10-10h20m30-10v20m-10-10h20m30-10v20m-10-10h20m30-10v20m-10-10h20m30-10v20m-10-10h20M20 200v20m-10-10h20m30-10v20m-10-10h20m30-10v20m-10-10h20m30-10v20m-10-10h20m30-10v20m-10-10h20m30-10v20m-10-10h20m30-10v20m-10-10h20m30-10v20m-10-10h20"/><circle cx="20" r="2" fill="red"/><path fill="none" stroke="red" d="M16-4h8v8h-8z"/><circle cx="20" cy="20" r="2" fill="#00f"/><path fill="none" stroke="#00f" d="M16 16h8v8h-8z"/><circle cx="10" cy="10" r="2" fill="green"/><path fill="none" stroke="green" d="M6 6h8v8H6z"/><circle cx="30" cy="10" r="2" fill="gold"/><path fill="none" stroke="gold" d="M26 6h8v8h-8z"/><circle cx="60" r="2" fill="red"/><path fill="none" stroke="red" d="M56-4h8v8h-8z"/><circle cx="60" cy="20" r="2" fill="#00f"/><path fill="none" stroke="#00f" d="M56 16h8v8h-8z"/><circle cx="50" cy="10" r="2" fill="green"/><path fill="none" stroke="green" d="M46 6h8v8h-8z"/><circle cx="70" cy="10" r="2" fill="gold"/><path fill="none" stroke="gold" d="M66 6h8v8h-8z"/><circle cx="100" r="2" fill="red"/><path fill="none" stroke="red" d="M96-4h8v8h-8z"/><circle cx="100" cy="20" r="2" fill="#00f"/><path fill="none" stroke="#00f" d="M96 16h8v8h-8z"/><circle cx="90" cy="10" r="2" fill="green"/><path fill="none" stroke="green" d="M86 6h8v8h-8z"/><circle cx="110" cy="10" r="2" fill="gold"/><path fill="none" stroke="gold" d="M106 6h8v8h-8z"/><circle cx="140" r="2" fill="red"/><path fill="none" stroke="red" d="M136-4h8v8h-8z"/><circle cx="140" cy="20" r="2" fill="#00f"/><path fill="none" stroke="#00f" d="M136 16h8v8h-8z"/><circle cx="130" cy="10" r="2" fill="green"/><path fill="none" stroke="green" d="M126 6h8v8h-8z"/><circle cx="150" cy="10" r="2" fill="gold"/><path fill="none" stroke="gold" d="M146 6h8v8h-8z"/><circle cx="180" r="2" fill="red"/><path fill="none" stroke="red" d="M176-4h8v8h-8z"/><circle cx="180" cy="20" r="2" fill="#00f"/><path fill="none" stroke="#00f" d="M176 16h8v8h-8z"/><circle cx="170" cy="10" r="2" fill="green"/><path fill="none" stroke="green" d="M166 6h8v8h-8z"/><circle cx="190" cy="10" r="2" fill="gold"/><path fill="none" stroke="gold" d="M186 6h8v8h-8z"/><circle cx="220" r="2" fill="red"/><path fill="none" stroke="red" d="M216-4h8v8h-8z"/><circle cx="220" cy="20" r="2" fill="#00f"/><path fill="none" stroke="#00f" d="M216 16h8v8h-8z"/><circle cx="210" cy="10" r="2" fill="green"/><path fill="none" stroke="green" d="M206 6h8v8h-8z"/><circle cx="230" cy="10" r="2" fill="gold"/><path fill="none" stroke="gold" d="M226 6h8v8h-8z"/><circle cx="260" r="2" fill="red"/><path fill="none" stroke="red" d="M256-4h8v8h-8z"/><circle cx="260" cy="20" r="2" fill="#00f"/><path fill="none" stroke="#00f" d="M256 16h8v8h-8z"/><circle cx="250" cy="10" r="2" fill="green"/><path fill="none" stroke="green" d="M246 6h8v8h-8z"/><circle cx="270" cy="10" r="2" fill="gold"/><path fill="none" stroke="gold" d="M266 6h8v8h-8z"/><circle cx="300" r="2" fill="red"/><path fill="none" stroke="red" d="M296-4h8v8h-8z"/><circle cx="300" cy="20" r="2" fill="#00f"/><path fill="none" stroke="#00f" d="M296 16h8v8h-8z"/><circle cx="290" cy="10" r="2" fill="green"/><path fill="none" stroke="green" d="M286 6h8v8h-8z"/><circle cx="310" cy="10" r="2" fill="gold"/><path fill="none" stroke="gold" d="M306 6h8v8h-8z"/><circle cx="20" cy="40" r="2" fill="red"/><path fill="none" stroke="red" d="M16 36h8v8h-8z"/><circle cx="20" cy="60" r="2" fill="#00f"/><path fill="none" stroke="#00f" d="M16 56h8v8h-8z"/><circle cx="10" cy="50" r="2" fill="green"/><path fill="none" stroke="green" d="M6 46h8v8H6z"/><circle cx="30" cy="50" r="2" fill="gold"/><path fill="none" stroke="gold" d="M26 46h8v8h-8z"/><circle cx="60" cy="40" r="2" fill="red"/><path fill="none" stroke="red" d="M56 36h8v8h-8z"/><circle cx="60" cy="60" r="2" fill="#00f"/><path fill="none" stroke="#00f" d="M56 56h8v8h-8z"/><circle cx="50" cy="50" r="2" fill="green"/><path fill="none" stroke="green" d="M46 46h8v8h-8z"/><circle cx="70" cy="50" r="2" fill="gold"/><path fill="none" stroke="gold" d="M66 46h8v8h-8z"/><circle cx="100" cy="40" r="2" fill="red"/><path fill="none" stroke="red" d="M96 36h8v8h-8z"/><circle cx="100" cy="60" r="2" fill="#00f"/><path fill="none" stroke="#00f" d="M96 56h8v8h-8z"/><circle cx="90" cy="50" r="2" fill="green"/><path fill="none" stroke="green" d="M86 46h8v8h-8z"/><circle cx="110" cy="50" r="2" fill="gold"/><path fill="none" stroke="gold" d="M106 46h8v8h-8z"/><circle cx="140" cy="40" r="2" fill="red"/><path fill="none" stroke="red" d="M136 36h8v8h-8z"/><circle cx="140" cy="60" r="2" fill="#00f"/><path fill="none" stroke="#00f" d="M136 56h8v8h-8z"/><circle cx="130" cy="50" r="2" fill="green"/><path fill="none" stroke="green" d="M126 46h8v8h-8z"/><circle cx="150" cy="50" r="2" fill="gold"/><path fill="none" stroke="gold" d="M146 46h8v8h-8z"/><circle cx="180" cy="40" r="2" fill="red"/><path fill="none" stroke="red" d="M176 36h8v8h-8z"/><circle cx="180" cy="60" r="2" fill="#00f"/><path fill="none" stroke="#00f" d="M176 56h8v8h-8z"/><circle cx="170" cy="50" r="2" fill="green"/><path fill="none" stroke="green" d="M166 46h8v8h-8z"/><circle cx="190" cy="50" r="2" fill="gold"/><path fill="none" stroke="gold" d="M186 46h8v8h-8z"/><circle cx="220" cy="40" r="2" fill="red"/><path fill="none" stroke="red" d="M216 36h8v8h-8z"/><circle cx="220" cy="60" r="2" fill="#00f"/><path fill="none" stroke="#00f" d="M216 56h8v8h-8z"/><circle cx="210" cy="50" r="2" fill="green"/><path fill="none" stroke="green" d="M206 46h8v8h-8z"/><circle cx="230" cy="50" r="2" fill="gold"/><path fill="none" stroke="gold" d="M226 46h8v8h-8z"/><circle cx="260" cy="40" r="2" fill="red"/><path fill="none" stroke="red" d="M256 36h8v8h-8z"/><circle cx="260" cy="60" r="2" fill="#00f"/><path fill="none" stroke="#00f" d="M256 56h8v8h-8z"/><circle cx="250" cy="50" r="2" fill="green"/><path fill="none" stroke="green" d="M246 46h8v8h-8z"/><circle cx="270" cy="50" r="2" fill="gold"/><path fill="none" stroke="gold" d="M266 46h8v8h-8z"/><circle cx="300" cy="40" r="2" fill="red"/><path fill="none" stroke="red" d="M296 36h8v8h-8z"/><circle cx="300" cy="60" r="2" fill="#00f"/><path fill="none" stroke="#00f" d="M296 56h8v8h-8z"/><circle cx="290" cy="50" r="2" fill="green"/><path fill="none" stroke="green" d="M286 46h8v8h-8z"/><circle cx="310" cy="50" r="2" fill="gold"/><path fill="none" stroke="gold" d="M306 46h8v8h-8z"/><circle cx="20" cy="80" r="2" fill="red"/><path fill="none" stroke="red" d="M16 76h8v8h-8z"/><circle cx="20" cy="100" r="2" fill="#00f"/><path fill="none" stroke="#00f" d="M16 96h8v8h-8z"/><circle cx="10" cy="90" r="2" fill="green"/><path fill="none" stroke="green" d="M6 86h8v8H6z"/><circle cx="30" cy="90" r="2" fill="gold"/><path fill="none" stroke="gold" d="M26 86h8v8h-8z"/><circle cx="60" cy="80" r="2" fill="red"/><path fill="none" stroke="red" d="M56 76h8v8h-8z"/><circle cx="60" cy="100" r="2" fill="#00f"/><path fill="none" stroke="#00f" d="M56 96h8v8h-8z"/><circle cx="50" cy="90" r="2" fill="green"/><path fill="none" stroke="green" d="M46 86h8v8h-8z"/><circle cx="70" cy="90" r="2" fill="gold"/><path fill="none" stroke="gold" d="M66 86h8v8h-8z"/><circle cx="100" cy="80" r="2" fill="red"/><path fill="none" stroke="red" d="M96 76h8v8h-8z"/><circle cx="100" cy="100" r="2" fill="#00f"/><path fill="none" stroke="#00f" d="M96 96h8v8h-8z"/><circle cx="90" cy="90" r="2" fill="green"/><path fill="none" stroke="green" d="M86 86h8v8h-8z"/><circle cx="110" cy="90" r="2" fill="gold"/><path fill="none" stroke="gold" d="M106 86h8v8h-8z"/><circle cx="140" cy="80" r="2" fill="red"/><path fill="none" stroke="red" d="M136 76h8v8h-8z"/><circle cx="140" cy="100" r="2" fill="#00f"/><path fill="none" stroke="#00f" d="M136 96h8v8h-8z"/><circle cx="130" cy="90" r="2" fill="green"/><path fill="none" stroke="green" d="M126 86h8v8h-8z"/><circle cx="150" cy="90" r="2" fill="gold"/><path fill="none" stroke="gold" d="M146 86h8v8h-8z"/><circle cx="180" cy="80" r="2" fill="red"/><path fill="none" stroke="red" d="M176 76h8v8h-8z"/><circle cx="180" cy="100" r="2" fill="#00f"/><path fill="none" stroke="#00f" d="M176 96h8v8h-8z"/><circle cx="170" cy="90" r="2" fill="green"/><path fill="none" stroke="green" d="M166 86h8v8h-8z"/><circle cx="190" cy="90" r="2" fill="gold"/><path fill="none" stroke="gold" d="M186 86h8v8h-8z"/><circle cx="220" cy="80" r="2" fill="red"/><path fill="none" stroke="red" d="M216 76h8v8h-8z"/><circle cx="220" cy="100" r="2" fill="#00f"/><path fill="none" stroke="#00f" d="M216 96h8v8h-8z"/><circle cx="210" cy="90" r="2" fill="green"/><path fill="none" stroke="green" d="M206 86h8v8h-8z"/><circle cx="230" cy="90" r="2" fill="gold"/><path fill="none" stroke="gold" d="M226 86h8v8h-8z"/><circle cx="260" cy="80" r="2" fill="red"/><path fill="none" stroke="red" d="M256 76h8v8h-8z"/><circle cx="260" cy="100" r="2" fill="#00f"/><path fill="none" stroke="#00f" d="M256 96h8v8h-8z"/><circle cx="250" cy="90" r="2" fill="green"/><path fill="none" stroke="green" d="M246 86h8v8h-8z"/><circle cx="270" cy="90" r="2" fill="gold"/><path fill="none" stroke="gold" d="M266 86h8v8h-8z"/><circle cx="300" cy="80" r="2" fill="red"/><path fill="none" stroke="red" d="M296 76h8v8h-8z"/><circle cx="300" cy="100" r="2" fill="#00f"/><path fill="none" stroke="#00f" d="M296 96h8v8h-8z"/><circle cx="290" cy="90" r="2" fill="green"/><path fill="none" stroke="green" d="M286 86h8v8h-8z"/><circle cx="310" cy="90" r="2" fill="gold"/><path fill="none" stroke="gold" d="M306 86h8v8h-8z"/><circle cx="20" cy="120" r="2" fill="red"/><path fill="none" stroke="red" d="M16 116h8v8h-8z"/><circle cx="20" cy="140" r="2" fill="#00f"/><path fill="none" stroke="#00f" d="M16 136h8v8h-8z"/><circle cx="10" cy="130" r="2" fill="green"/><path fill="none" stroke="green" d="M6 126h8v8H6z"/><circle cx="30" cy="130" r="2" fill="gold"/><path fill="none" stroke="gold" d="M26 126h8v8h-8z"/><circle cx="60" cy="120" r="2" fill="red"/><path fill="none" stroke="red" d="M56 116h8v8h-8z"/><circle cx="60" cy="140" r="2" fill="#00f"/><path fill="none" stroke="#00f" d="M56 136h8v8h-8z"/><circle cx="50" cy="130" r="2" fill="green"/><path fill="none" stroke="green" d="M46 126h8v8h-8z"/><circle cx="70" cy="130" r="2" fill="gold"/><path fill="none" stroke="gold" d="M66 126h8v8h-8z"/><circle cx="100" cy="120" r="2" fill="red"/><path fill="none" stroke="red" d="M96 116h8v8h-8z"/><circle cx="100" cy="140" r="2" fill="#00f"/><path fill="none" stroke="#00f" d="M96 136h8v8h-8z"/><circle cx="90" cy="130" r="2" fill="green"/><path fill="none" stroke="green" d="M86 126h8v8h-8z"/><circle cx="110" cy="130" r="2" fill="gold"/><path fill="none" stroke="gold" d="M106 126h8v8h-8z"/><circle cx="140" cy="120" r="2" fill="red"/><path fill="none" stroke="red" d="M136 116h8v8h-8z"/><circle cx="140" cy="140" r="2" fill="#00f"/><path fill="none" stroke="#00f" d="M136 136h8v8h-8z"/><circle cx="130" cy="130" r="2" fill="green"/><path fill="none" stroke="green" d="M126 126h8v8h-8z"/><circle cx="150" cy="130" r="2" fill="gold"/><path fill="none" stroke="gold" d="M146 126h8v8h-8z"/><circle cx="180" cy="120" r="2" fill="red"/><path fill="none" stroke="red" d="M176 116h8v8h-8z"/><circle cx="180" cy="140" r="2" fill="#00f"/><path fill="none" stroke="#00f" d="M176 136h8v8h-8z"/><circle cx="170" cy="130" r="2" fill="green"/><path fill="none" stroke="green" d="M166 126h8v8h-8z"/><circle cx="190" cy="130" r="2" fill="gold"/><path fill="none" stroke="gold" d="M186 126h8v8h-8z"/><circle cx="220" cy="120" r="2" fill="red"/><path fill="none" stroke="red" d="M216 116h8v8h-8z"/><circle cx="220" cy="140" r="2" fill="#00f"/><path fill="none" stroke="#00f" d="M216 136h8v8h-8z"/><circle cx="210" cy="130" r="2" fill="green"/><path fill="none" stroke="green" d="M206 126h8v8h-8z"/><circle cx="230" cy="130" r="2" fill="gold"/><path fill="none" stroke="gold" d="M226 126h8v8h-8z"/><circle cx="260" cy="120" r="2" fill="red"/><path fill="none" stroke="red" d="M256 116h8v8h-8z"/><circle cx="260" cy="140" r="2" fill="#00f"/><path fill="none" stroke="#00f" d="M256 136h8v8h-8z"/><circle cx="250" cy="130" r="2" fill="green"/><path fill="none" stroke="green" d="M246 126h8v8h-8z"/><circle cx="270" cy="130" r="2" fill="gold"/><path fill="none" stroke="gold" d="M266 126h8v8h-8z"/><circle cx="300" cy="120" r="2" fill="red"/><path fill="none" stroke="red" d="M296 116h8v8h-8z"/><circle cx="300" cy="140" r="2" fill="#00f"/><path fill="none" stroke="#00f" d="M296 136h8v8h-8z"/><circle cx="290" cy="130" r="2" fill="green"/><path fill="none" stroke="green" d="M286 126h8v8h-8z"/><circle cx="310" cy="130" r="2" fill="gold"/><path fill="none" stroke="gold" d="M306 126h8v8h-8z"/><circle cx="20" cy="160" r="2" fill="red"/><path fill="none" stroke="red" d="M16 156h8v8h-8z"/><circle cx="20" cy="180" r="2" fill="#00f"/><path fill="none" stroke="#00f" d="M16 176h8v8h-8z"/><circle cx="10" cy="170" r="2" fill="green"/><path fill="none" stroke="green" d="M6 166h8v8H6z"/><circle cx="30" cy="170" r="2" fill="gold"/><path fill="none" stroke="gold" d="M26 166h8v8h-8z"/><circle cx="60" cy="160" r="2" fill="red"/><path fill="none" stroke="red" d="M56 156h8v8h-8z"/><circle cx="60" cy="180" r="2" fill="#00f"/><path fill="none" stroke="#00f" d="M56 176h8v8h-8z"/><circle cx="50" cy="170" r="2" fill="green"/><path fill="none" stroke="green" d="M46 166h8v8h-8z"/><circle cx="70" cy="170" r="2" fill="gold"/><path fill="none" stroke="gold" d="M66 166h8v8h-8z"/><circle cx="100" cy="160" r="2" fill="red"/><path fill="none" stroke="red" d="M96 156h8v8h-8z"/><circle cx="100" cy="180" r="2" fill="#00f"/><path fill="none" stroke="#00f" d="M96 176h8v8h-8z"/><circle cx="90" cy="170" r="2" fill="green"/><path fill="none" stroke="green" d="M86 166h8v8h-8z"/><circle cx="110" cy="170" r="2" fill="gold"/><path fill="none" stroke="gold" d="M106 166h8v8h-8z"/><circle cx="140" cy="160" r="2" fill="red"/><path fill="none" stroke="red" d="M136 156h8v8h-8z"/><circle cx="140" cy="180" r="2" fill="#00f"/><path fill="none" stroke="#00f" d="M136 176h8v8h-8z"/><circle cx="130" cy="170" r="2" fill="green"/><path fill="none" stroke="green" d="M126 166h8v8h-8z"/><circle cx="150" cy="170" r="2" fill="gold"/><path fill="none" stroke="gold" d="M146 166h8v8h-8z"/><circle cx="180" cy="160" r="2" fill="red"/><path fill="none" stroke="red" d="M176 156h8v8h-8z"/><circle cx="180" cy="180" r="2" fill="#00f"/><path fill="none" stroke="#00f" d="M176 176h8v8h-8z"/><circle cx="170" cy="170" r="2" fill="green"/><path fill="none" stroke="green" d="M166 166h8v8h-8z"/><circle cx="190" cy="170" r="2" fill="gold"/><path fill="none" stroke="gold" d="M186 166h8v8h-8z"/><circle cx="220" cy="160" r="2" fill="red"/><path fill="none" stroke="red" d="M216 156h8v8h-8z"/><circle cx="220" cy="180" r="2" fill="#00f"/><path fill="none" stroke="#00f" d="M216 176h8v8h-8z"/><circle cx="210" cy="170" r="2" fill="green"/><path fill="none" stroke="green" d="M206 166h8v8h-8z"/><circle cx="230" cy="170" r="2" fill="gold"/><path fill="none" stroke="gold" d="M226 166h8v8h-8z"/><circle cx="260" cy="160" r="2" fill="red"/><path fill="none" stroke="red" d="M256 156h8v8h-8z"/><circle cx="260" cy="180" r="2" fill="#00f"/><path fill="none" stroke="#00f" d="M256 176h8v8h-8z"/><circle cx="250" cy="170" r="2" fill="green"/><path fill="none" stroke="green" d="M246 166h8v8h-8z"/><circle cx="270" cy="170" r="2" fill="gold"/><path fill="none" stroke="gold" d="M266 166h8v8h-8z"/><circle cx="300" cy="160" r="2" fill="red"/><path fill="none" stroke="red" d="M296 156h8v8h-8z"/><circle cx="300" cy="180" r="2" fill="#00f"/><path fill="none" stroke="#00f" d="M296 176h8v8h-8z"/><circle cx="290" cy="170" r="2" fill="green"/><path fill="none" stroke="green" d="M286 166h8v8h-8z"/><circle cx="310" cy="170" r="2" fill="gold"/><path fill="none" stroke="gold" d="M306 166h8v8h-8z"/><circle cx="20" cy="200" r="2" fill="red"/><path fill="none" stroke="red" d="M16 196h8v8h-8z"/><circle cx="20" cy="220" r="2" fill="#00f"/><path fill="none" stroke="#00f" d="M16 216h8v8h-8z"/><circle cx="10" cy="210" r="2" fill="green"/><path fill="none" stroke="green" d="M6 206h8v8H6z"/><circle cx="30" cy="210" r="2" fill="gold"/><path fill="none" stroke="gold" d="M26 206h8v8h-8z"/><circle cx="60" cy="200" r="2" fill="red"/><path fill="none" stroke="red" d="M56 196h8v8h-8z"/><circle cx="60" cy="220" r="2" fill="#00f"/><path fill="none" stroke="#00f" d="M56 216h8v8h-8z"/><circle cx="50" cy="210" r="2" fill="green"/><path fill="none" stroke="green" d="M46 206h8v8h-8z"/><circle cx="70" cy="210" r="2" fill="gold"/><path fill="none" stroke="gold" d="M66 206h8v8h-8z"/><circle cx="100" cy="200" r="2" fill="red"/><path fill="none" stroke="red" d="M96 196h8v8h-8z"/><circle cx="100" cy="220" r="2" fill="#00f"/><path fill="none" stroke="#00f" d="M96 216h8v8h-8z"/><circle cx="90" cy="210" r="2" fill="green"/><path fill="none" stroke="green" d="M86 206h8v8h-8z"/><circle cx="110" cy="210" r="2" fill="gold"/><path fill="none" stroke="gold" d="M106 206h8v8h-8z"/><circle cx="140" cy="200" r="2" fill="red"/><path fill="none" stroke="red" d="M136 196h8v8h-8z"/><circle cx="140" cy="220" r="2" fill="#00f"/><path fill="none" stroke="#00f" d="M136 216h8v8h-8z"/><circle cx="130" cy="210" r="2" fill="green"/><path fill="none" stroke="green" d="M126 206h8v8h-8z"/><circle cx="150" cy="210" r="2" fill="gold"/><path fill="none" stroke="gold" d="M146 206h8v8h-8z"/><circle cx="180" cy="200" r="2" fill="red"/><path fill="none" stroke="red" d="M176 196h8v8h-8z"/><circle cx="180" cy="220" r="2" fill="#00f"/><path fill="none" stroke="#00f" d="M176 216h8v8h-8z"/><circle cx="170" cy="210" r="2" fill="green"/><path fill="none" stroke="green" d="M166 206h8v8h-8z"/><circle cx="190" cy="210" r="2" fill="gold"/><path fill="none" stroke="gold" d="M186 206h8v8h-8z"/><circle cx="220" cy="200" r="2" fill="red"/><path fill="none" stroke="red" d="M216 196h8v8h-8z"/><circle cx="220" cy="220" r="2" fill="#00f"/><path fill="none" stroke="#00f" d="M216 216h8v8h-8z"/><circle cx="210" cy="210" r="2" fill="green"/><path fill="none" stroke="green" d="M206 206h8v8h-8z"/><circle cx="230" cy="210" r="2" fill="gold"/><path fill="none" stroke="gold" d="M226 206h8v8h-8z"/><circle cx="260" cy="200" r="2" fill="red"/><path fill="none" stroke="red" d="M256 196h8v8h-8z"/><circle cx="260" cy="220" r="2" fill="#00f"/><path fill="none" stroke="#00f" d="M256 216h8v8h-8z"/><circle cx="250" cy="210" r="2" fill="green"/><path fill="none" stroke="green" d="M246 206h8v8h-8z"/><circle cx="270" cy="210" r="2" fill="gold"/><path fill="none" stroke="gold" d="M266 206h8v8h-8z"/><circle cx="300" cy="200" r="2" fill="red"/><path fill="none" stroke="red" d="M296 196h8v8h-8z"/><circle cx="300" cy="220" r="2" fill="#00f"/><path fill="none" stroke="#00f" d="M296 216h8v8h-8z"/><circle cx="290" cy="210" r="2" fill="green"/><path fill="none" stroke="green" d="M286 206h8v8h-8z"/><circle cx="310" cy="210" r="2" fill="gold"/><path fill="none" stroke="gold" d="M306 206h8v8h-8z"/><text x="-28" y="120" fill="#00f" text-anchor="middle" font-size="18">i</text><text x="-20" y="20" fill="#00f" text-anchor="middle" font-size="14">0</text><text x="-20" y="60" fill="#00f" text-anchor="middle" font-size="14">1</text><text x="-20" y="100" fill="#00f" text-anchor="middle" font-size="14">2</text><text x="-20" y="140" fill="#00f" text-anchor="middle" font-size="14">3</text><text x="-20" y="180" fill="#00f" text-anchor="middle" font-size="14">4</text><text x="-20" y="220" fill="#00f" text-anchor="middle" font-size="14">5</text><text x="160" y="-28" fill="red" text-anchor="middle" font-size="18">j</text><text x="20" y="-13" fill="red" text-anchor="middle" font-size="14">0</text><text x="60" y="-13" fill="red" text-anchor="middle" font-size="14">1</text><text x="100" y="-13" fill="red" text-anchor="middle" font-size="14">2</text><text x="140" y="-13" fill="red" text-anchor="middle" font-size="14">3</text><text x="180" y="-13" fill="red" text-anchor="middle" font-size="14">4</text><text x="220" y="-13" fill="red" text-anchor="middle" font-size="14">5</text><text x="260" y="-13" fill="red" text-anchor="middle" font-size="14">6</text><text x="300" y="-13" fill="red" text-anchor="middle" font-size="14">7</text></svg>
