<svg xmlns="http://www.w3.org/2000/svg" width="680" height="350" viewBox="-40 -40 680 350"><path fill="none" stroke="#000" d="M-10-10h610v310H-10z"/><path stroke="#000" d="M0 0l40 40m0-40L0 40M60 0l40 40m0-40L60 40m60-40l40 40m0-40l-40 40m60-40l40 40m0-40l-40 40m60-40l40 40m0-40l-40 40m60-40l40 40m0-40l-40 40m60-40l40 40m0-40l-40 40m60-40l40 40m0-40l-40 40m60-40l40 40m0-40l-40 40m60-40l40 40m0-40l-40 40M0 60l40 40m0-40L0 100m60-40l40 40m0-40l-40 40m60-40l40 40m0-40l-40 40m60-40l40 40m0-40l-40 40m60-40l40 40m0-40l-40 40m60-40l40 40m0-40l-40 40m60-40l40 40m0-40l-40 40m60-40l40 40m0-40l-40 40m60-40l40 40m0-40l-40 40m60-40l40 40m0-40l-40 40M0 120l40 40m0-40L0 160m60-40l40 40m0-40l-40 40m60-40l40 40m0-40l-40 40m60-40l40 40m0-40l-40 40m60-40l40 40m0-40l-40 40m60-40l40 40m0-40l-40 40m60-40l40 40m0-40l-40 40m60-40l40 40m0-40l-40 40m60-40l40 40m0-40l-40 40m60-40l40 40m0-40l-40 40M0 180l40 40m0-40L0 220m60-40l40 40m0-40l-40 40m60-40l40 40m0-40l-40 40m60-40l40 40m0-40l-40 40m60-40l40 40m0-40l-40 40m60-40l40 40m0-40l-40 40m60-40l40 40m0-40l-40 40m60-40l40 40m0-40l-40 40m60-40l40 40m0-40l-40 40m60-40l40 40m0-40l-40 40M0 240l40 40m0-40L0 280m60-40l40 40m0-40l-40 40m60-40l40 40m0-40l-40 40m60-40l40 40m0-40l-40 40m60-40l40 40m0-40l-40 40m60-40l40 40m0-40l-40 40m60-40l40 40m0-40l-40 40m60-40l40 40m0-40l-40 40m60-40l40 40m0-40l-40 40m60-40l40 40m0-40l-40 40"/><path fill="none" stroke="red" d="M-3-3h46v46H-3zm60 0h46v46H57zm60 0h46v46h-46zm60 0h46v46h-46zm60 0h46v46h-46zm60 0h46v46h-46zm60 0h46v46h-46zm60 0h46v46h-46zm60 0h46v46h-46zm60 0h46v46h-46z"/><path fill="none" stroke="#00f" d="M-6-6h592v52H-6z"/><path fill="none" stroke="red" d="M-3 57h46v46H-3zm60 0h46v46H57zm60 0h46v46h-46zm60 0h46v46h-46zm60 0h46v46h-46zm60 0h46v46h-46zm60 0h46v46h-46zm60 0h46v46h-46zm60 0h46v46h-46zm60 0h46v46h-46z"/><path fill="none" stroke="#00f" d="M-6 54h592v52H-6z"/><path fill="none" stroke="red" d="M-3 117h46v46H-3zm60 0h46v46H57zm60 0h46v46h-46zm60 0h46v46h-46zm60 0h46v46h-46zm60 0h46v46h-46zm60 0h46v46h-46zm60 0h46v46h-46zm60 0h46v46h-46zm60 0h46v46h-46z"/><path fill="none" stroke="#00f" d="M-6 114h592v52H-6z"/><path fill="none" stroke="red" d="M-3 177h46v46H-3zm60 0h46v46H57zm60 0h46v46h-46zm60 0h46v46h-46zm60 0h46v46h-46zm60 0h46v46h-46zm60 0h46v46h-46zm60 0h46v46h-46zm60 0h46v46h-46zm60 0h46v46h-46z"/><path fill="none" stroke="#00f" d="M-6 174h592v52H-6z"/><path fill="none" stroke="red" d="M-3 237h46v46H-3zm60 0h46v46H57zm60 0h46v46h-46zm60 0h46v46h-46zm60 0h46v46h-46zm60 0h46v46h-46zm60 0h46v46h-46zm60 0h46v46h-46zm60 0h46v46h-46zm60 0h46v46h-46z"/><path fill="none" stroke="#00f" d="M-6 234h592v52H-6z"/><text x="-28" y="120" fill="#00f" text-anchor="middle" font-size="18">i</text><text x="-20" y="20" fill="#00f" text-anchor="middle" font-size="14">0</text><text x="-20" y="80" fill="#00f" text-anchor="middle" font-size="14">1</text><text x="-20" y="140" fill="#00f" text-anchor="middle" font-size="14">2</text><text x="-20" y="200" fill="#00f" text-anchor="middle" font-size="14">3</text><text x="-20" y="260" fill="#00f" text-anchor="middle" font-size="14">4</text><text x="300" y="-28" fill="red" text-anchor="middle" font-size="18">j</text><text x="20" y="-13" fill="red" text-anchor="middle" font-size="14">0</text><text x="80" y="-13" fill="red" text-anchor="middle" font-size="14">1</text><text x="140" y="-13" fill="red" text-anchor="middle" font-size="14">2</text><text x="200" y="-13" fill="red" text-anchor="middle" font-size="14">3</text><text x="260" y="-13" fill="red" text-anchor="middle" font-size="14">4</text><text x="320" y="-13" fill="red" text-anchor="middle" font-size="14">5</text><text x="380" y="-13" fill="red" text-anchor="middle" font-size="14">6</text><text x="440" y="-13" fill="red" text-anchor="middle" font-size="14">7</text><text x="500" y="-13" fill="red" text-anchor="middle" font-size="14">8</text><text x="560" y="-13" fill="red" text-anchor="middle" font-size="14">9</text></svg>
