<svg xmlns="http://www.w3.org/2000/svg" width="680" height="340" viewBox="-40 -40 680 340"><path fill="none" stroke="#000" d="M-10-10h620v300H-10z"/><path fill="none" stroke="#000" d="M0 0h20v20H0zm30 0h20v20H30zm30 0h20v20H60zm30 0h20v20H90zm30 0h20v20h-20zm30 0h20v20h-20zm30 0h20v20h-20zm30 0h20v20h-20zm30 0h20v20h-20zm30 0h20v20h-20zm30 0h20v20h-20zm30 0h20v20h-20zm30 0h20v20h-20zm30 0h20v20h-20zm30 0h20v20h-20zm30 0h20v20h-20zm30 0h20v20h-20zm30 0h20v20h-20zm30 0h20v20h-20zm30 0h20v20h-20zM0 80h20v20H0zm30 0h20v20H30zm30 0h20v20H60zm30 0h20v20H90zm30 0h20v20h-20zm30 0h20v20h-20zm30 0h20v20h-20zm30 0h20v20h-20zm30 0h20v20h-20zm30 0h20v20h-20zm30 0h20v20h-20zm30 0h20v20h-20zm30 0h20v20h-20zm30 0h20v20h-20zm30 0h20v20h-20zm30 0h20v20h-20zm30 0h20v20h-20zm30 0h20v20h-20zm30 0h20v20h-20zm30 0h20v20h-20zM0 160h20v20H0zm30 0h20v20H30zm30 0h20v20H60zm30 0h20v20H90zm30 0h20v20h-20zm30 0h20v20h-20zm30 0h20v20h-20zm30 0h20v20h-20zm30 0h20v20h-20zm30 0h20v20h-20zm30 0h20v20h-20zm30 0h20v20h-20zm30 0h20v20h-20zm30 0h20v20h-20zm30 0h20v20h-20zm30 0h20v20h-20zm30 0h20v20h-20zm30 0h20v20h-20zm30 0h20v20h-20zm30 0h20v20h-20zM0 240h20v20H0zm30 0h20v20H30zm30 0h20v20H60zm30 0h20v20H90zm30 0h20v20h-20zm30 0h20v20h-20zm30 0h20v20h-20zm30 0h20v20h-20zm30 0h20v20h-20zm30 0h20v20h-20zm30 0h20v20h-20zm30 0h20v20h-20zm30 0h20v20h-20zm30 0h20v20h-20zm30 0h20v20h-20zm30 0h20v20h-20zm30 0h20v20h-20zm30 0h20v20h-20zm30 0h20v20h-20zm30 0h20v20h-20z"/><circle r="5"/><path fill="none" stroke="red" d="M-6-6H6V6H-6z"/><circle cx="30" r="5"/><path fill="none" stroke="red" d="M24-6h12V6H24z"/><circle cx="60" r="5"/><path fill="none" stroke="red" d="M54-6h12V6H54z"/><circle cx="90" r="5"/><path fill="none" stroke="red" d="M84-6h12V6H84z"/><circle cx="120" r="5"/><path fill="none" stroke="red" d="M114-6h12V6h-12z"/><circle cx="150" r="5"/><path fill="none" stroke="red" d="M144-6h12V6h-12z"/><circle cx="180" r="5"/><path fill="none" stroke="red" d="M174-6h12V6h-12z"/><circle cx="210" r="5"/><path fill="none" stroke="red" d="M204-6h12V6h-12z"/><circle cx="240" r="5"/><path fill="none" stroke="red" d="M234-6h12V6h-12z"/><circle cx="270" r="5"/><path fill="none" stroke="red" d="M264-6h12V6h-12z"/><circle cx="300" r="5"/><path fill="none" stroke="red" d="M294-6h12V6h-12z"/><circle cx="330" r="5"/><path fill="none" stroke="red" d="M324-6h12V6h-12z"/><circle cx="360" r="5"/><path fill="none" stroke="red" d="M354-6h12V6h-12z"/><circle cx="390" r="5"/><path fill="none" stroke="red" d="M384-6h12V6h-12z"/><circle cx="420" r="5"/><path fill="none" stroke="red" d="M414-6h12V6h-12z"/><circle cx="450" r="5"/><path fill="none" stroke="red" d="M444-6h12V6h-12z"/><circle cx="480" r="5"/><path fill="none" stroke="red" d="M474-6h12V6h-12z"/><circle cx="510" r="5"/><path fill="none" stroke="red" d="M504-6h12V6h-12z"/><circle cx="540" r="5"/><path fill="none" stroke="red" d="M534-6h12V6h-12z"/><circle cx="570" r="5"/><path fill="none" stroke="red" d="M564-6h12V6h-12z"/><path fill="none" stroke="#00f" d="M-9-9h588V9H-9z"/><circle cy="80" r="5"/><path fill="none" stroke="red" d="M-6 74H6v12H-6z"/><circle cx="30" cy="80" r="5"/><path fill="none" stroke="red" d="M24 74h12v12H24z"/><circle cx="60" cy="80" r="5"/><path fill="none" stroke="red" d="M54 74h12v12H54z"/><circle cx="90" cy="80" r="5"/><path fill="none" stroke="red" d="M84 74h12v12H84z"/><circle cx="120" cy="80" r="5"/><path fill="none" stroke="red" d="M114 74h12v12h-12z"/><circle cx="150" cy="80" r="5"/><path fill="none" stroke="red" d="M144 74h12v12h-12z"/><circle cx="180" cy="80" r="5"/><path fill="none" stroke="red" d="M174 74h12v12h-12z"/><circle cx="210" cy="80" r="5"/><path fill="none" stroke="red" d="M204 74h12v12h-12z"/><circle cx="240" cy="80" r="5"/><path fill="none" stroke="red" d="M234 74h12v12h-12z"/><circle cx="270" cy="80" r="5"/><path fill="none" stroke="red" d="M264 74h12v12h-12z"/><circle cx="300" cy="80" r="5"/><path fill="none" stroke="red" d="M294 74h12v12h-12z"/><circle cx="330" cy="80" r="5"/><path fill="none" stroke="red" d="M324 74h12v12h-12z"/><circle cx="360" cy="80" r="5"/><path fill="none" stroke="red" d="M354 74h12v12h-12z"/><circle cx="390" cy="80" r="5"/><path fill="none" stroke="red" d="M384 74h12v12h-12z"/><circle cx="420" cy="80" r="5"/><path fill="none" stroke="red" d="M414 74h12v12h-12z"/><circle cx="450" cy="80" r="5"/><path fill="none" stroke="red" d="M444 74h12v12h-12z"/><circle cx="480" cy="80" r="5"/><path fill="none" stroke="red" d="M474 74h12v12h-12z"/><circle cx="510" cy="80" r="5"/><path fill="none" stroke="red" d="M504 74h12v12h-12z"/><circle cx="540" cy="80" r="5"/><path fill="none" stroke="red" d="M534 74h12v12h-12z"/><circle cx="570" cy="80" r="5"/><path fill="none" stroke="red" d="M564 74h12v12h-12z"/><path fill="none" stroke="#00f" d="M-9 71h588v18H-9z"/><circle cy="160" r="5"/><path fill="none" stroke="red" d="M-6 154H6v12H-6z"/><circle cx="30" cy="160" r="5"/><path fill="none" stroke="red" d="M24 154h12v12H24z"/><circle cx="60" cy="160" r="5"/><path fill="none" stroke="red" d="M54 154h12v12H54z"/><circle cx="90" cy="160" r="5"/><path fill="none" stroke="red" d="M84 154h12v12H84z"/><circle cx="120" cy="160" r="5"/><path fill="none" stroke="red" d="M114 154h12v12h-12z"/><circle cx="150" cy="160" r="5"/><path fill="none" stroke="red" d="M144 154h12v12h-12z"/><circle cx="180" cy="160" r="5"/><path fill="none" stroke="red" d="M174 154h12v12h-12z"/><circle cx="210" cy="160" r="5"/><path fill="none" stroke="red" d="M204 154h12v12h-12z"/><circle cx="240" cy="160" r="5"/><path fill="none" stroke="red" d="M234 154h12v12h-12z"/><circle cx="270" cy="160" r="5"/><path fill="none" stroke="red" d="M264 154h12v12h-12z"/><circle cx="300" cy="160" r="5"/><path fill="none" stroke="red" d="M294 154h12v12h-12z"/><circle cx="330" cy="160" r="5"/><path fill="none" stroke="red" d="M324 154h12v12h-12z"/><circle cx="360" cy="160" r="5"/><path fill="none" stroke="red" d="M354 154h12v12h-12z"/><circle cx="390" cy="160" r="5"/><path fill="none" stroke="red" d="M384 154h12v12h-12z"/><circle cx="420" cy="160" r="5"/><path fill="none" stroke="red" d="M414 154h12v12h-12z"/><circle cx="450" cy="160" r="5"/><path fill="none" stroke="red" d="M444 154h12v12h-12z"/><circle cx="480" cy="160" r="5"/><path fill="none" stroke="red" d="M474 154h12v12h-12z"/><circle cx="510" cy="160" r="5"/><path fill="none" stroke="red" d="M504 154h12v12h-12z"/><circle cx="540" cy="160" r="5"/><path fill="none" stroke="red" d="M534 154h12v12h-12z"/><circle cx="570" cy="160" r="5"/><path fill="none" stroke="red" d="M564 154h12v12h-12z"/><path fill="none" stroke="#00f" d="M-9 151h588v18H-9z"/><circle cy="240" r="5"/><path fill="none" stroke="red" d="M-6 234H6v12H-6z"/><circle cx="30" cy="240" r="5"/><path fill="none" stroke="red" d="M24 234h12v12H24z"/><circle cx="60" cy="240" r="5"/><path fill="none" stroke="red" d="M54 234h12v12H54z"/><circle cx="90" cy="240" r="5"/><path fill="none" stroke="red" d="M84 234h12v12H84z"/><circle cx="120" cy="240" r="5"/><path fill="none" stroke="red" d="M114 234h12v12h-12z"/><circle cx="150" cy="240" r="5"/><path fill="none" stroke="red" d="M144 234h12v12h-12z"/><circle cx="180" cy="240" r="5"/><path fill="none" stroke="red" d="M174 234h12v12h-12z"/><circle cx="210" cy="240" r="5"/><path fill="none" stroke="red" d="M204 234h12v12h-12z"/><circle cx="240" cy="240" r="5"/><path fill="none" stroke="red" d="M234 234h12v12h-12z"/><circle cx="270" cy="240" r="5"/><path fill="none" stroke="red" d="M264 234h12v12h-12z"/><circle cx="300" cy="240" r="5"/><path fill="none" stroke="red" d="M294 234h12v12h-12z"/><circle cx="330" cy="240" r="5"/><path fill="none" stroke="red" d="M324 234h12v12h-12z"/><circle cx="360" cy="240" r="5"/><path fill="none" stroke="red" d="M354 234h12v12h-12z"/><circle cx="390" cy="240" r="5"/><path fill="none" stroke="red" d="M384 234h12v12h-12z"/><circle cx="420" cy="240" r="5"/><path fill="none" stroke="red" d="M414 234h12v12h-12z"/><circle cx="450" cy="240" r="5"/><path fill="none" stroke="red" d="M444 234h12v12h-12z"/><circle cx="480" cy="240" r="5"/><path fill="none" stroke="red" d="M474 234h12v12h-12z"/><circle cx="510" cy="240" r="5"/><path fill="none" stroke="red" d="M504 234h12v12h-12z"/><circle cx="540" cy="240" r="5"/><path fill="none" stroke="red" d="M534 234h12v12h-12z"/><circle cx="570" cy="240" r="5"/><path fill="none" stroke="red" d="M564 234h12v12h-12z"/><path fill="none" stroke="#00f" d="M-9 231h588v18H-9z"/><text x="-28" y="120" fill="#00f" text-anchor="middle" font-size="18">i</text><text x="-20" y="5" fill="#00f" text-anchor="middle" font-size="14">0</text><text x="-20" y="85" fill="#00f" text-anchor="middle" font-size="14">1</text><text x="-20" y="165" fill="#00f" text-anchor="middle" font-size="14">2</text><text x="-20" y="245" fill="#00f" text-anchor="middle" font-size="14">3</text><text x="315" y="-28" fill="red" text-anchor="middle" font-size="18">j</text><text y="-13" fill="red" text-anchor="middle" font-size="14">0</text><text x="30" y="-13" fill="red" text-anchor="middle" font-size="14">1</text><text x="60" y="-13" fill="red" text-anchor="middle" font-size="14">2</text><text x="90" y="-13" fill="red" text-anchor="middle" font-size="14">3</text><text x="120" y="-13" fill="red" text-anchor="middle" font-size="14">4</text><text x="150" y="-13" fill="red" text-anchor="middle" font-size="14">5</text><text x="180" y="-13" fill="red" text-anchor="middle" font-size="14">6</text><text x="210" y="-13" fill="red" text-anchor="middle" font-size="14">7</text><text x="240" y="-13" fill="red" text-anchor="middle" font-size="14">8</text><text x="270" y="-13" fill="red" text-anchor="middle" font-size="14">9</text><text x="300" y="-13" fill="red" text-anchor="middle" font-size="14">10</text><text x="330" y="-13" fill="red" text-anchor="middle" font-size="14">11</text><text x="360" y="-13" fill="red" text-anchor="middle" font-size="14">12</text><text x="390" y="-13" fill="red" text-anchor="middle" font-size="14">13</text><text x="420" y="-13" fill="red" text-anchor="middle" font-size="14">14</text><text x="450" y="-13" fill="red" text-anchor="middle" font-size="14">15</text><text x="480" y="-13" fill="red" text-anchor="middle" font-size="14">16</text><text x="510" y="-13" fill="red" text-anchor="middle" font-size="14">17</text><text x="540" y="-13" fill="red" text-anchor="middle" font-size="14">18</text><text x="570" y="-13" fill="red" text-anchor="middle" font-size="14">19</text></svg>
