<svg xmlns="http://www.w3.org/2000/svg" width="600" height="240" viewBox="-40 -40 600 240"><path fill="none" stroke="#000" d="M-10-10h500v180H-10z"/><path fill="none" stroke="#000" d="M0 0h20v20H0zM40 0h20v20H40zM80 0h20v20H80zM120 0h20v20h-20zM160 0h20v20h-20zM200 0h20v20h-20zM240 0h20v20h-20zM280 0h20v20h-20zM320 0h20v20h-20zM360 0h20v20h-20zM400 0h20v20h-20zM440 0h20v20h-20zM0 40h20v20H0zM40 40h20v20H40zM80 40h20v20H80zM120 40h20v20h-20zM160 40h20v20h-20zM200 40h20v20h-20zM240 40h20v20h-20zM280 40h20v20h-20zM320 40h20v20h-20zM360 40h20v20h-20zM400 40h20v20h-20zM440 40h20v20h-20zM0 80h20v20H0zM40 80h20v20H40zM80 80h20v20H80zM120 80h20v20h-20zM160 80h20v20h-20zM200 80h20v20h-20zM240 80h20v20h-20zM280 80h20v20h-20zM320 80h20v20h-20zM360 80h20v20h-20zM400 80h20v20h-20zM440 80h20v20h-20zM0 120h20v20H0zM40 120h20v20H40zM80 120h20v20H80zM120 120h20v20h-20zM160 120h20v20h-20zM200 120h20v20h-20zM240 120h20v20h-20zM280 120h20v20h-20zM320 120h20v20h-20zM360 120h20v20h-20zM400 120h20v20h-20zM440 120h20v20h-20z"/><circle r="5"/><path fill="none" stroke="red" d="M-6-6H6V6H-6z"/><circle cx="40" r="5"/><path fill="none" stroke="red" d="M34-6h12V6H34z"/><circle cx="80" r="5"/><path fill="none" stroke="red" d="M74-6h12V6H74z"/><circle cx="120" r="5"/><path fill="none" stroke="red" d="M114-6h12V6h-12z"/><circle cx="160" r="5"/><path fill="none" stroke="red" d="M154-6h12V6h-12z"/><circle cx="200" r="5"/><path fill="none" stroke="red" d="M194-6h12V6h-12z"/><circle cx="240" r="5"/><path fill="none" stroke="red" d="M234-6h12V6h-12z"/><circle cx="280" r="5"/><path fill="none" stroke="red" d="M274-6h12V6h-12z"/><circle cx="320" r="5"/><path fill="none" stroke="red" d="M314-6h12V6h-12z"/><circle cx="360" r="5"/><path fill="none" stroke="red" d="M354-6h12V6h-12z"/><circle cx="400" r="5"/><path fill="none" stroke="red" d="M394-6h12V6h-12z"/><circle cx="440" r="5"/><path fill="none" stroke="red" d="M434-6h12V6h-12z"/><path fill="none" stroke="#00f" d="M-9-9h458V9H-9z"/><circle cy="40" r="5"/><path fill="none" stroke="red" d="M-6 34H6v12H-6z"/><circle cx="40" cy="40" r="5"/><path fill="none" stroke="red" d="M34 34h12v12H34z"/><circle cx="80" cy="40" r="5"/><path fill="none" stroke="red" d="M74 34h12v12H74z"/><circle cx="120" cy="40" r="5"/><path fill="none" stroke="red" d="M114 34h12v12h-12z"/><circle cx="160" cy="40" r="5"/><path fill="none" stroke="red" d="M154 34h12v12h-12z"/><circle cx="200" cy="40" r="5"/><path fill="none" stroke="red" d="M194 34h12v12h-12z"/><circle cx="240" cy="40" r="5"/><path fill="none" stroke="red" d="M234 34h12v12h-12z"/><circle cx="280" cy="40" r="5"/><path fill="none" stroke="red" d="M274 34h12v12h-12z"/><circle cx="320" cy="40" r="5"/><path fill="none" stroke="red" d="M314 34h12v12h-12z"/><circle cx="360" cy="40" r="5"/><path fill="none" stroke="red" d="M354 34h12v12h-12z"/><circle cx="400" cy="40" r="5"/><path fill="none" stroke="red" d="M394 34h12v12h-12z"/><circle cx="440" cy="40" r="5"/><path fill="none" stroke="red" d="M434 34h12v12h-12z"/><path fill="none" stroke="#00f" d="M-9 31h458v18H-9z"/><circle cy="80" r="5"/><path fill="none" stroke="red" d="M-6 74H6v12H-6z"/><circle cx="40" cy="80" r="5"/><path fill="none" stroke="red" d="M34 74h12v12H34z"/><circle cx="80" cy="80" r="5"/><path fill="none" stroke="red" d="M74 74h12v12H74z"/><circle cx="120" cy="80" r="5"/><path fill="none" stroke="red" d="M114 74h12v12h-12z"/><circle cx="160" cy="80" r="5"/><path fill="none" stroke="red" d="M154 74h12v12h-12z"/><circle cx="200" cy="80" r="5"/><path fill="none" stroke="red" d="M194 74h12v12h-12z"/><circle cx="240" cy="80" r="5"/><path fill="none" stroke="red" d="M234 74h12v12h-12z"/><circle cx="280" cy="80" r="5"/><path fill="none" stroke="red" d="M274 74h12v12h-12z"/><circle cx="320" cy="80" r="5"/><path fill="none" stroke="red" d="M314 74h12v12h-12z"/><circle cx="360" cy="80" r="5"/><path fill="none" stroke="red" d="M354 74h12v12h-12z"/><circle cx="400" cy="80" r="5"/><path fill="none" stroke="red" d="M394 74h12v12h-12z"/><circle cx="440" cy="80" r="5"/><path fill="none" stroke="red" d="M434 74h12v12h-12z"/><path fill="none" stroke="#00f" d="M-9 71h458v18H-9z"/><circle cy="120" r="5"/><path fill="none" stroke="red" d="M-6 114H6v12H-6z"/><circle cx="40" cy="120" r="5"/><path fill="none" stroke="red" d="M34 114h12v12H34z"/><circle cx="80" cy="120" r="5"/><path fill="none" stroke="red" d="M74 114h12v12H74z"/><circle cx="120" cy="120" r="5"/><path fill="none" stroke="red" d="M114 114h12v12h-12z"/><circle cx="160" cy="120" r="5"/><path fill="none" stroke="red" d="M154 114h12v12h-12z"/><circle cx="200" cy="120" r="5"/><path fill="none" stroke="red" d="M194 114h12v12h-12z"/><circle cx="240" cy="120" r="5"/><path fill="none" stroke="red" d="M234 114h12v12h-12z"/><circle cx="280" cy="120" r="5"/><path fill="none" stroke="red" d="M274 114h12v12h-12z"/><circle cx="320" cy="120" r="5"/><path fill="none" stroke="red" d="M314 114h12v12h-12z"/><circle cx="360" cy="120" r="5"/><path fill="none" stroke="red" d="M354 114h12v12h-12z"/><circle cx="400" cy="120" r="5"/><path fill="none" stroke="red" d="M394 114h12v12h-12z"/><circle cx="440" cy="120" r="5"/><path fill="none" stroke="red" d="M434 114h12v12h-12z"/><path fill="none" stroke="#00f" d="M-9 111h458v18H-9z"/><text x="-28" y="65" fill="#00f" text-anchor="middle" font-size="18">i</text><text x="-20" y="5" fill="#00f" text-anchor="middle" font-size="14">0</text><text x="-20" y="45" fill="#00f" text-anchor="middle" font-size="14">1</text><text x="-20" y="85" fill="#00f" text-anchor="middle" font-size="14">2</text><text x="-20" y="125" fill="#00f" text-anchor="middle" font-size="14">3</text><text x="220" y="-28" fill="red" text-anchor="middle" font-size="18">j</text><text y="-13" fill="red" text-anchor="middle" font-size="14">0</text><text x="40" y="-13" fill="red" text-anchor="middle" font-size="14">1</text><text x="80" y="-13" fill="red" text-anchor="middle" font-size="14">2</text><text x="120" y="-13" fill="red" text-anchor="middle" font-size="14">3</text><text x="160" y="-13" fill="red" text-anchor="middle" font-size="14">4</text><text x="200" y="-13" fill="red" text-anchor="middle" font-size="14">5</text><text x="240" y="-13" fill="red" text-anchor="middle" font-size="14">6</text><text x="280" y="-13" fill="red" text-anchor="middle" font-size="14">7</text><text x="320" y="-13" fill="red" text-anchor="middle" font-size="14">8</text><text x="360" y="-13" fill="red" text-anchor="middle" font-size="14">9</text><text x="400" y="-13" fill="red" text-anchor="middle" font-size="14">10</text><text x="440" y="-13" fill="red" text-anchor="middle" font-size="14">11</text></svg>
