<svg xmlns="http://www.w3.org/2000/svg" width="600" height="360" viewBox="-40 -40 600 360"><path fill="none" stroke="#000" d="M-10-10h560v320H-10z"/><circle cx="60" cy="60" r="60" fill="none" stroke="#000"/><circle cx="120" cy="60" r="60" fill="none" stroke="#000"/><circle cx="180" cy="60" r="60" fill="none" stroke="#000"/><circle cx="240" cy="60" r="60" fill="none" stroke="#000"/><circle cx="300" cy="60" r="60" fill="none" stroke="#000"/><circle cx="360" cy="60" r="60" fill="none" stroke="#000"/><circle cx="420" cy="60" r="60" fill="none" stroke="#000"/><circle cx="480" cy="60" r="60" fill="none" stroke="#000"/><circle cx="60" cy="120" r="60" fill="none" stroke="#000"/><circle cx="120" cy="120" r="60" fill="none" stroke="#000"/><circle cx="180" cy="120" r="60" fill="none" stroke="#000"/><circle cx="240" cy="120" r="60" fill="none" stroke="#000"/><circle cx="300" cy="120" r="60" fill="none" stroke="#000"/><circle cx="360" cy="120" r="60" fill="none" stroke="#000"/><circle cx="420" cy="120" r="60" fill="none" stroke="#000"/><circle cx="480" cy="120" r="60" fill="none" stroke="#000"/><circle cx="60" cy="180" r="60" fill="none" stroke="#000"/><circle cx="120" cy="180" r="60" fill="none" stroke="#000"/><circle cx="180" cy="180" r="60" fill="none" stroke="#000"/><circle cx="240" cy="180" r="60" fill="none" stroke="#000"/><circle cx="300" cy="180" r="60" fill="none" stroke="#000"/><circle cx="360" cy="180" r="60" fill="none" stroke="#000"/><circle cx="420" cy="180" r="60" fill="none" stroke="#000"/><circle cx="480" cy="180" r="60" fill="none" stroke="#000"/><circle cx="60" cy="240" r="60" fill="none" stroke="#000"/><circle cx="120" cy="240" r="60" fill="none" stroke="#000"/><circle cx="180" cy="240" r="60" fill="none" stroke="#000"/><circle cx="240" cy="240" r="60" fill="none" stroke="#000"/><circle cx="300" cy="240" r="60" fill="none" stroke="#000"/><circle cx="360" cy="240" r="60" fill="none" stroke="#000"/><circle cx="420" cy="240" r="60" fill="none" stroke="#000"/><circle cx="480" cy="240" r="60" fill="none" stroke="#000"/><circle cx="60" cy="60" r="5"/><path fill="none" stroke="red" d="M54 54h12v12H54z"/><circle cx="120" cy="60" r="5"/><path fill="none" stroke="red" d="M114 54h12v12h-12z"/><circle cx="180" cy="60" r="5"/><path fill="none" stroke="red" d="M174 54h12v12h-12z"/><circle cx="240" cy="60" r="5"/><path fill="none" stroke="red" d="M234 54h12v12h-12z"/><circle cx="300" cy="60" r="5"/><path fill="none" stroke="red" d="M294 54h12v12h-12z"/><circle cx="360" cy="60" r="5"/><path fill="none" stroke="red" d="M354 54h12v12h-12z"/><circle cx="420" cy="60" r="5"/><path fill="none" stroke="red" d="M414 54h12v12h-12z"/><circle cx="480" cy="60" r="5"/><path fill="none" stroke="red" d="M474 54h12v12h-12z"/><path fill="none" stroke="#00f" d="M51 51h438v18H51z"/><circle cx="60" cy="120" r="5"/><path fill="none" stroke="red" d="M54 114h12v12H54z"/><circle cx="120" cy="120" r="5"/><path fill="none" stroke="red" d="M114 114h12v12h-12z"/><circle cx="180" cy="120" r="5"/><path fill="none" stroke="red" d="M174 114h12v12h-12z"/><circle cx="240" cy="120" r="5"/><path fill="none" stroke="red" d="M234 114h12v12h-12z"/><circle cx="300" cy="120" r="5"/><path fill="none" stroke="red" d="M294 114h12v12h-12z"/><circle cx="360" cy="120" r="5"/><path fill="none" stroke="red" d="M354 114h12v12h-12z"/><circle cx="420" cy="120" r="5"/><path fill="none" stroke="red" d="M414 114h12v12h-12z"/><circle cx="480" cy="120" r="5"/><path fill="none" stroke="red" d="M474 114h12v12h-12z"/><path fill="none" stroke="#00f" d="M51 111h438v18H51z"/><circle cx="60" cy="180" r="5"/><path fill="none" stroke="red" d="M54 174h12v12H54z"/><circle cx="120" cy="180" r="5"/><path fill="none" stroke="red" d="M114 174h12v12h-12z"/><circle cx="180" cy="180" r="5"/><path fill="none" stroke="red" d="M174 174h12v12h-12z"/><circle cx="240" cy="180" r="5"/><path fill="none" stroke="red" d="M234 174h12v12h-12z"/><circle cx="300" cy="180" r="5"/><path fill="none" stroke="red" d="M294 174h12v12h-12z"/><circle cx="360" cy="180" r="5"/><path fill="none" stroke="red" d="M354 174h12v12h-12z"/><circle cx="420" cy="180" r="5"/><path fill="none" stroke="red" d="M414 174h12v12h-12z"/><circle cx="480" cy="180" r="5"/><path fill="none" stroke="red" d="M474 174h12v12h-12z"/><path fill="none" stroke="#00f" d="M51 171h438v18H51z"/><circle cx="60" cy="240" r="5"/><path fill="none" stroke="red" d="M54 234h12v12H54z"/><circle cx="120" cy="240" r="5"/><path fill="none" stroke="red" d="M114 234h12v12h-12z"/><circle cx="180" cy="240" r="5"/><path fill="none" stroke="red" d="M174 234h12v12h-12z"/><circle cx="240" cy="240" r="5"/><path fill="none" stroke="red" d="M234 234h12v12h-12z"/><circle cx="300" cy="240" r="5"/><path fill="none" stroke="red" d="M294 234h12v12h-12z"/><circle cx="360" cy="240" r="5"/><path fill="none" stroke="red" d="M354 234h12v12h-12z"/><circle cx="420" cy="240" r="5"/><path fill="none" stroke="red" d="M414 234h12v12h-12z"/><circle cx="480" cy="240" r="5"/><path fill="none" stroke="red" d="M474 234h12v12h-12z"/><path fill="none" stroke="#00f" d="M51 231h438v18H51z"/><text x="-28" y="150" fill="#00f" text-anchor="middle" font-size="18">i</text><text x="-20" y="65" fill="#00f" text-anchor="middle" font-size="14">0</text><text x="-20" y="125" fill="#00f" text-anchor="middle" font-size="14">1</text><text x="-20" y="185" fill="#00f" text-anchor="middle" font-size="14">2</text><text x="-20" y="245" fill="#00f" text-anchor="middle" font-size="14">3</text><text x="270" y="-28" fill="red" text-anchor="middle" font-size="18">j</text><text x="60" y="-13" fill="red" text-anchor="middle" font-size="14">0</text><text x="120" y="-13" fill="red" text-anchor="middle" font-size="14">1</text><text x="180" y="-13" fill="red" text-anchor="middle" font-size="14">2</text><text x="240" y="-13" fill="red" text-anchor="middle" font-size="14">3</text><text x="300" y="-13" fill="red" text-anchor="middle" font-size="14">4</text><text x="360" y="-13" fill="red" text-anchor="middle" font-size="14">5</text><text x="420" y="-13" fill="red" text-anchor="middle" font-size="14">6</text><text x="480" y="-13" fill="red" text-anchor="middle" font-size="14">7</text></svg>
