<?xml version="1.0" encoding="UTF-8" standalone="no"?>
<!DOCTYPE svg PUBLIC "-//W3C//DTD SVG 1.1//EN" "http://www.w3.org/Graphics/SVG/1.1/DTD/svg11.dtd">
<svg xmlns="http://www.w3.org/2000/svg" width="48" height="48" viewBox="0 0 48 48">
  <path fill="#3774a6" d="M23.83 0C36.05 0 35.1 6.4 35.1 6.4v10.58c0 6.4-6.2 6.3-6.2 6.3H17.8c-6.64 0-6.43 6.83-6.43 6.83v5.76H7.5S.95 36.28.95 23.92s7.48-11.47 7.48-11.47h15.6V10.8H12.86V5.3S12.12 0 23.8 0zm-6.15 3.7c-1.1 0-2 .94-2 2.1 0 1.16.9 2.1 2 2.1s2-.94 2-2.1c0-1.16-.9-2.1-2-2.1z"/>
  <path fill="#ffdb4b" d="M24.17 48c-12.22 0-11.28-6.4-11.28-6.4V31.02c0-6.4 6.2-6.3 6.2-6.3h11.1c6.63 0 6.42-6.83 6.42-6.83v-5.76h3.9s6.54-.44 6.54 11.92-7.48 11.47-7.48 11.47H24v1.65h11.16v5.5S35.88 48 24.2 48zm6.15-3.7c1.1 0 2-.94 2-2.1 0-1.16-.9-2.1-2-2.1s-2 .94-2 2.1c0 1.16.9 2.1 2 2.1z"/>
</svg>

