<?xml version="1.0" encoding="UTF-8" standalone="no"?>
<!DOCTYPE svg PUBLIC "-//W3C//DTD SVG 1.1//EN" "http://www.w3.org/Graphics/SVG/1.1/DTD/svg11.dtd">
<svg xmlns="http://www.w3.org/2000/svg" width="48.01" height="46.82" version="1">
  <path fill="#fff" stroke="#00461b" stroke-width=".6" d="M37.2.3c-.75-.04-1.57.43-2.04 1.23l-16.14 27.5h-.7l-11-6.15c-.35-.2-.83-.06-1.1.33L.48 32.3c-.25.38-.17 1.05.2 1.25L23.1 46.3c.88.5 2.12.07 2.75-1l21.5-36.6c.63-1.07.4-2.38-.47-2.9L37.9.55C37.7.4 37.45.3 37.2.3z" stroke-linejoin="round"/>
  <path fill="#007308" d="M39.52 3.9c-.52-.1-1.07.2-1.38.7L20.56 34.24l-11.6-6.8c-.8-.46-1.8-.33-2.24.33l-2.37 3.5c-.45.67-.14 1.6.66 2.05l15.7 8.88c.3.17.64.24.96.24.56.16 1.2-.06 1.52-.62l20-33.75c.4-.7.25-1.6-.38-2.04L40 4.13c-.17-.1-.3-.2-.48-.24z"/>
</svg>
