<?xml version="1.0" encoding="UTF-8" standalone="no"?>
<!DOCTYPE svg PUBLIC "-//W3C//DTD SVG 1.1//EN" "http://www.w3.org/Graphics/SVG/1.1/DTD/svg11.dtd">
<svg xmlns="http://www.w3.org/2000/svg" width="48" height="48" viewBox="0 0 48 48">
  <path d="M40 26v-4q0-.8-.6-1.4-.58-.6-1.4-.6H22.3l5.92-5.9q.6-.6.6-1.42 0-.8-.6-1.4l-2.85-2.84q-.56-.56-1.4-.56-.85 0-1.42.56L8.4 22.6q-.56.56-.56 1.4 0 .84.56 1.4l14.16 14.16q.56.56 1.4.56.85 0 1.42-.56l2.84-2.84q.56-.56.56-1.4 0-.85-.56-1.42l-5.9-5.9H38q.8 0 1.4-.6.6-.6.6-1.4zm8-2q0 6.53-3.22 12.05-3.22 5.5-8.73 8.73Q30.53 48 24 48q-6.53 0-12.05-3.22-5.5-3.2-8.73-8.73Q0 30.53 0 24q0-6.53 3.22-12.05 3.22-5.52 8.73-8.73Q17.47 0 24 0q6.53 0 12.05 3.22 5.5 3.22 8.73 8.73Q48 17.47 48 24z"/>
</svg>
