<?xml version="1.0" encoding="UTF-8" standalone="no"?>
<!DOCTYPE svg PUBLIC "-//W3C//DTD SVG 1.1//EN" "http://www.w3.org/Graphics/SVG/1.1/DTD/svg11.dtd">
<svg xmlns="http://www.w3.org/2000/svg" width="48" height="41.1" viewBox="0 0 48 41.2">
  <path fill="#000" d="M37.7 25v8.4q0 3.2-2.2 5.5-2.3 2-5.5 2H7.7q-3.2 0-5.4-2Q0 36.2 0 33V11q0-3 2.3-5.3 2.2-2.3 5.4-2.3h19q.2 0 .5.3.2.2.2.6V6q0 .4-.2.6-.3.3-.6.3h-19Q6 7 4.6 8q-1 1.4-1 3v22.4q0 1.8 1.2 3 1.2 1.3 3 1.3H30q1.8 0 3-1.2 1.3-1.3 1.3-3V25q0-.6.2-1h3.2l.2.8zM48 1.6v13.7q0 .7-.5 1.2t-1.2.5q-.7 0-1.2-.4L40.8 12 23 29.3l-.7.2q-.4 0-.6-.2l-3-3q-.3-.3-.3-.7l.2-.6L36 7.7 31.5 3q-.5-.6-.5-1.3 0-.7.4-1.2.5-.5 1.2-.5h13.7q.7 0 1.2.5t.5 1.2z"/>
</svg>
