<?xml version="1.0" encoding="UTF-8" standalone="no"?>
<!DOCTYPE svg PUBLIC "-//W3C//DTD SVG 1.1//EN" "http://www.w3.org/Graphics/SVG/1.1/DTD/svg11.dtd">
<svg xmlns="http://www.w3.org/2000/svg" width="55" height="48" viewBox="0 0 55 48">
  <path fill="red" d="M.23 47.15c.3.53.86.85 1.46.85h51.5c.6 0 1.1-.32 1.4-.85.3-.52.3-1.16 0-1.7L28.92.85c-.3-.52-.86-.84-1.47-.84-.6 0-1.16.4-1.46.9L.2 45.5c-.3.5-.3 1.15 0 1.7z"/>
  <path fill="white" d="M27.45 8.46L7.55 42.93h39.8"/>
  <path fill="#1c1d20" d="M28.05 42.27s.7-1.6 2.54-1.6c0 0 0-1.4 1.6-1.4 0 0 0-.92.9-1.15l-5.3-4.62.2.7s.7.68 0 2.07l-3 5.77s-.7 1.16-2.1.46c0 0-1.17-.7-.7-1.84l2.8-5.32-2.78-3.46v4.4L20.4 41.8s-.7 1.4-1.84.95c0 0-1.38-.46-.92-1.84l1.6-5.1-.22-7.1 1.16-1.14-2.1-2.1s-.26-.37.05-.77c.32-.38.65-.15.65-.15l.94.9.7-3.9s0-.93.9-.93l6.02-.23s.92-.25 1.15.45l2.3 3.7s.7.44 0 1.6c0 .23-2.8 6-2.8 6l6 5.1s3-2.8 5.53.44c0 0 1.83-.24 2.06 1.84 0 0 .93.2.93.9 0 0 1.83-.2 2.3 1.9h-16.8"/>
  <path fill="#1c1d20" d="M29.67 21.5c0-1.16.93-2.1 2.07-2.1 1.15 0 2.08.94 2.08 2.1 0 1.14-.93 2.07-2.08 2.07-1.14 0-2.07-.93-2.07-2.08"/>
  <path fill="white" d="M24.6 29.34l2.3-1.4-.93 2.32-1.38-.92"/>
  <path fill="white" d="M22.05 24.95l.46-2.07h1.7l-2.07 2.07"/>
</svg>
