<?xml version="1.0" encoding="UTF-8" standalone="no"?>
<!DOCTYPE svg PUBLIC "-//W3C//DTD SVG 1.1//EN" "http://www.w3.org/Graphics/SVG/1.1/DTD/svg11.dtd">
<svg xmlns="http://www.w3.org/2000/svg" width="46.3" height="48" viewBox="0 0 46.287997 48.000006">
  <path fill="#d4aa00" d="M.7 24.78c.05 2.64.14 4.64.25 7.44l3.75 4.1c.08-2.84 0-5.9-.07-8.35-1.27-1.1-2.58-2.25-3.92-3.2z"/>
  <path fill="#216778" d="M32.1 2.14c-2.12.43-4.26.85-6.38 1.34 1.76 1.13 3.22 1.88 5.17 2.95l6.8-1.7-.7-.3c-1.8-.8-3.2-1.46-5-2.3zM24.53 3.7c-3.24.66-6.48 1.3-9.7 2-.12.06.64.54 2.65 1.67 1.55.88 2.84 1.6 2.88 1.6 3.3-.77 5.88-1.4 9.35-2.28-1.7-1.2-3.1-1.9-5.1-3zM27.5 0c-2.02.33-4.03.66-6.03 1.03-.2.06-.02.2 1.43 1l1.72.94c.03 0 1.43-.27 3.1-.62 1.7-.34 3.1-.65 3.14-.7C29.73 1 28.8.6 27.5 0zm-7.45 1.23C16.65 1.8 13.2 2.3 9.85 3c.08.1 3.8 2.2 3.87 2.2 3.4-.68 6.1-1.2 9.7-2-1.12-.8-2.07-1.26-3.37-1.97zM8.62 3.13c-2.44.4-4.9.77-7.32 1.23-.03.03 0 .1.1.15 1.3.9 2.35 1.6 3.76 2.5 2.6-.4 4.65-.8 7.36-1.5-1.3-.9-2.4-1.4-3.9-2.3zM38.7 5.2c-2.23.55-4.63 1.08-6.76 1.77 1.94 1.13 3.46 1.95 5.57 3.1l.6-.12c2.6-.58 4.6-1 7.3-1.67 0-.03-.7-.4-1.6-.8L40.4 6l-1.7-.8zM6.03 7.5c1.84 1.37 3.32 2.3 5.4 3.7 2.33-.6 4.67-1.16 7-1.73.5-.12.86-.25.82-.3-2.02-1.16-3.65-2.2-5.87-3.2-2.6.55-4.63.95-7.35 1.52zm24.77-.36c-3.15.78-6.32 1.5-9.44 2.36 1.82 1.1 3.24 1.9 5.23 3 3.2-.72 6.5-1.42 9.8-2.2-2-1.17-3.5-1.98-5.6-3.16zM20.26 9.7c-2.65.68-5.33 1.3-7.96 2.03 0 .1 4.3 2.96 4.43 2.96 3.1-.7 5.52-1.2 8.78-2-1.8-1.1-3.2-1.9-5.2-3z"/>
  <path fill="#d4aa00" d="M0 5.15s.05 2.04.14 4.5c.13 3.87.18 4.5.32 4.66.2.2 3.9 2.9 4 2.9.07-3.1.04-5.6-.07-9C4.3 8 0 5.1 0 5.2zm5.1 3.32v.33c0 3.15.05 5.55.1 8.9 1.58 1.1 3.14 2.2 4.7 3.27.08-3.25.12-5.73.17-9.23-1.65-1.1-3.3-2.18-4.96-3.27z"/>
  <path fill="#a02c2c" d="M46.3 9.12c-.05-.04-8.4 1.85-8.48 1.92-.04.04-.67 8.27-.67 8.82 0 .18.03.33.07.33l3.95-1c2.13-.6 3.9-1 3.95-1.1.07-.1 1.22-9 1.17-9.1zM37 11.27c-.64.06-9.72 2.08-9.85 2.2-.03.02-.1 1.6-.17 3.46-.06 1.88-.14 3.98-.18 4.66-.03.6-.02 1.2.03 1.2s2.2-.6 4.8-1.2l4.76-1.3c0-.1.7-9.1.6-9.1h-.1z"/>
  <path fill="#d4aa00" d="M10.68 12.15c0 3.1-.13 6.28.05 9.35.15.18 4.95 3.57 5.05 3.58.14-2.9.05-5.36.15-8.48l.07-1-.28-.1c-1.7-1.04-3.03-2-4.77-3.17l-.27-.18z"/>
  <path fill="#a02c2c" d="M26.28 13.67c-.47 0-9.36 2.1-9.48 2.23-.1.12-.12 1.24-.12 4.82 0 2.57.03 4.67.07 4.67l4.65-1.2c2.5-.7 4.6-1.2 4.65-1.3.04-.1.13-2 .2-4.2.06-2.3.13-4.4.16-4.6.1-.4.1-.5-.1-.5z"/>
  <path fill="#d4aa00" d="M.4 15.24c-.07.07.18 7.73.27 8.18.05.27.4.63 2 1.98l1.93 1.65.03-1.42c0-2.68-.06-4.9-.13-7.6-1.34-.96-2.7-1.94-4.1-2.8zm4.83 3.34c.05 3.2-.08 5.83.22 9.17 1.53 1.33 2.7 2.33 4.35 3.73.1-3.28.14-6.82.15-9.63L7.6 20.2c-1.3-.92-2.36-1.64-2.37-1.62z"/>
  <path fill="#a02c2c" d="M44.97 18.97c-.12 0-7.84 1.94-7.9 1.98-.02.02-.73 9.55-.73 9.88 0 .1.05.17.13.14 2.53-.72 4.55-1.22 7.22-2.02.6-3.4.8-5.85 1.3-9.65 0-.22 0-.33-.1-.33zm-8.63 2.16c-3.18.82-6.37 1.6-9.54 2.46-.15 3.3-.33 6.7-.34 10.1 3.04-.9 6.1-1.7 9.13-2.6 0-.1.7-8.9.7-9.7V21z"/>
  <path fill="#d4aa00" d="M10.6 22.33c-.06 3.46-.03 6.1-.02 9.83l5.03 4.26.1-1.3c.1-3.27.1-5.88.1-9.2l-5.1-3.6z"/>
  <path fill="#a02c2c" d="M26.03 23.8c-.04-.03-9.26 2.27-9.3 2.33-.02 0-.06 2.33-.1 5.16-.07 5-.07 5.1.13 5l8.96-2.5.06-1.1c.1-1.9.3-9 .25-9.06z"/>
  <path fill="#d4aa00" d="M5.42 28.64c-.07 3.1-.02 5.55.07 8.54l4.2 4.58c.1-3.23.1-6.67.1-9.34l-4.4-3.78z"/>
  <path fill="#a02c2c" d="M43.5 29.82c-2.62.6-4.34 1.1-7.22 1.92-.23 2.82-.38 5.14-.62 8.16-.06.56-.05.6.13.53 2.3-.92 4.3-1.58 6.8-2.6.1-.1 1.1-7.68 1-7.96 0-.04-.1-.06-.2-.05zm-7.97 2.15c-.07-.04-9.04 2.42-9.1 2.5-.17 3.04-.18 5.57-.34 8.82-.1.4-.1.7 0 .7l4.4-1.7 4.4-1.7v-.3c.1-.6.6-8.47.5-8.5z"/>
  <path fill="#d4aa00" d="M10.55 33.05c-.14 3.35-.1 5.92-.1 9.54 1.67 1.8 3.3 3.6 5 5.4.16-3.2.2-5.9.2-9.3v-1.4l-2.5-2.2c-1.4-1.2-2.55-2.2-2.6-2.2z"/>
  <path fill="#a02c2c" d="M25.7 34.68c-.04-.03-2.74.7-8.95 2.4-.16.05-.18.4-.18 5.3 0 2.9.04 5.22.1 5.2l8.77-3.28v-.62c.07-3.18.22-5.7.25-9z"/>
</svg>
