<?xml version="1.0" encoding="UTF-8" standalone="no"?>
<!DOCTYPE svg PUBLIC "-//W3C//DTD SVG 1.1//EN" "http://www.w3.org/Graphics/SVG/1.1/DTD/svg11.dtd">
<svg xmlns="http://www.w3.org/2000/svg" width="144.49" height="75.88">
  <path fill="green" stroke="green" stroke-width="2" d="M7.26 51.2c-3 .5-5.8 3.14-6.25 5.27 4.5 2.65 11.5 10.83 16.6 18.4 5-34.77 39.1-38.67 39.1-38.67S24 38.36 15 61.8c-1.98-3.84-4.46-7.34-7.74-10.6z" stroke-linecap="round" stroke-linejoin="round"/>
  <path fill="#d38d5f" d="M59.8 47.27l-8.15-23.05-17.06 19 25.2 4.05z"/>
  <path fill="#fc0" d="M119.3 26.22l-8.17-23.05-59.48 21.05 8.16 23.05 59.5-21.05z"/>
  <path fill="maroon" d="M129.46 9.65C126.54 1.4 120.1 0 120.1 0l-8.97 3.17 8.16 23.05 8.9-3.17s4.1-5.15 1.2-13.4z"/>
  <path fill="#006400" d="M41.1 44.3L39 38.4l-4.4 4.85z"/>
  <path d="M112.66 7.5l2.34 6.6-59.47 21.06-2.34-6.6zm4.68 13.22l.94 2.64L58.8 44.4l-.93-2.63z"/>
  <path fill="#fff" d="M119.08.36l8.15 23.04-1.32.47L117.8.82z"/>
  <path fill="#deaa87" d="M52.6 26.87l2.07 5.87-14.5 8.93-.65-1.8z"/>
  <path stroke="#000" stroke-width="3.67" d="M33.4 61.54c.2-.4.44-.72.74-.92.3-.2.67-.3 1.1-.3.77 0 1.3.3 1.63.9.32.6.48 1.73.48 3.4v5.58H35.9v-5.52c0-1.36-.07-2.2-.22-2.53-.16-.33-.43-.5-.84-.5-.45 0-.77.18-.94.53-.17.35-.25 1.2-.25 2.5v5.52H32.2v-5.52c0-1.38-.08-2.23-.24-2.55-.17-.32-.46-.48-.9-.48-.4 0-.7.18-.86.53-.17.35-.25 1.2-.25 2.5v5.52H28.5v-9.64h1.45v.82c.2-.34.43-.6.7-.78.3-.2.62-.28.98-.28.44 0 .8.1 1.1.3.28.2.5.5.67.92zm13.92 8.16c-.42.26-.86.44-1.3.57-.46.12-.92.18-1.4.18-1.48 0-2.65-.45-3.5-1.34-.83-.9-1.25-2.1-1.25-3.7s.42-2.8 1.26-3.7c.84-.9 2-1.3 3.5-1.3.46 0 .92.1 1.36.2.4.2.8.3 1.3.6v1.7c-.4-.4-.9-.6-1.3-.8-.4-.2-.9-.2-1.5-.2-1 0-1.8.4-2.3 1-.6.7-.8 1.6-.8 2.8s.2 2.1.8 2.8c.5.7 1.3 1 2.3 1 .5 0 1-.1 1.5-.22.4-.2.8-.47 1.2-.8zm6.98-3c0 .72.13 1.25.4 1.62.25.36.64.54 1.15.54h1.85v1.34h-2c-.95 0-1.7-.3-2.2-.9-.53-.62-.8-1.48-.8-2.6v-8.75h-2.53V56.7h4.13zm7.3-6.14h4.07v8.4h3.14v1.24H61v-1.23h3.14V61.8h-2.5zm2.48-3.76h1.6v2h-1.6zm13.84 8.6c0-1.24-.2-2.17-.58-2.8-.4-.62-.97-.93-1.73-.93s-1.3.3-1.7.94c-.4.7-.6 1.6-.6 2.8 0 1.2.2 2.2.6 2.8.4.7 1 1 1.8 1s1.4-.3 1.8-.9c.4-.6.6-1.5.6-2.8zm-4.66-3.6c.26-.48.6-.84 1.05-1.1.5-.25 1-.38 1.6-.38 1.2 0 2.1.45 2.8 1.34.7.9 1 2.13 1 3.7 0 1.58-.3 2.83-1 3.74-.6.9-1.6 1.35-2.7 1.35-.6 0-1.1-.12-1.5-.37-.4-.25-.8-.62-1-1.1v1.22h-1.6V56.8h1.6zm17.3.75c-.33-.27-.67-.46-1.02-.58-.35-.12-.73-.18-1.15-.18-1 0-1.8.3-2.3.9-.5.6-.8 1.5-.8 2.7v4.8h-1.6v-9.7h1.6v1.8c.2-.7.6-1.2 1.2-1.6.5-.4 1.2-.6 1.9-.6.4 0 .7 0 1.1.1.3.1.6.2.9.4zm10.24 2.43v.78h-6.85v.05c0 1.1.27 1.9.82 2.5.55.6 1.32.9 2.32.9.5 0 1 0 1.5-.2s1.1-.4 1.7-.7v1.6c-.6.3-1.2.5-1.8.6-.6.2-1.1.2-1.7.2-1.5 0-2.7-.4-3.5-1.3-.9-.9-1.3-2.1-1.3-3.7 0-1.5.4-2.7 1.2-3.7.8-.9 1.9-1.3 3.3-1.3 1.2 0 2.2.4 2.9 1.25.7.83 1.03 1.96 1.03 3.4zm-1.57-.46c-.02-.93-.24-1.64-.66-2.12-.42-.5-1-.73-1.8-.73-.76 0-1.4.25-1.88.76-.5.5-.8 1.2-.9 2.1zm6.83 3.06h2.17v2.62h-2.17zm11.7-5.9c-.8 0-1.4.3-1.82.93-.42.7-.62 1.6-.62 2.8 0 1.2.2 2.2.62 2.8.4.6 1.02 1 1.82 1s1.42-.3 1.84-.9c.4-.6.62-1.5.62-2.8 0-1.2-.2-2.1-.62-2.8-.42-.6-1.03-.9-1.84-.9zm0-1.36c1.34 0 2.36.44 3.07 1.3.7.87 1.07 2.13 1.07 3.77 0 1.6-.36 2.9-1.06 3.7-.7.8-1.73 1.3-3.08 1.3-1.34 0-2.36-.5-3.06-1.3-.7-.9-1.06-2.1-1.06-3.8s.35-2.9 1.06-3.8c.7-.9 1.72-1.3 3.06-1.3zM133 62.55c-.32-.27-.67-.46-1.02-.58-.35-.12-.73-.18-1.15-.18-1 0-1.75.3-2.27.9-.52.6-.78 1.5-.78 2.7v4.8h-1.6v-9.7h1.6v1.8c.26-.7.67-1.2 1.22-1.6.54-.4 1.2-.6 1.95-.6.4 0 .75 0 1.1.1.33.1.65.2.96.4zm8.07 2.75c0-1.2-.2-2.1-.6-2.7-.37-.62-.94-.93-1.68-.93-.8 0-1.4.3-1.8.92-.4.6-.6 1.5-.6 2.7 0 1.2.2 2.1.6 2.7.4.6 1 .9 1.8.9.7 0 1.3-.3 1.6-1 .4-.6.6-1.6.6-2.7zm1.58 4.28c0 1.45-.34 2.55-1.02 3.3-.7.74-1.7 1.1-3.02 1.1-.4 0-.8-.03-1.3-.1-.4-.1-.9-.2-1.4-.36v-1.57c.6.26 1.1.46 1.6.6.5.1.9.18 1.3.18.9 0 1.5-.24 1.9-.7.4-.47.6-1.2.6-2.22v-1.1c-.2.6-.6 1-1 1.2-.4.3-1 .4-1.6.4-1.1 0-2-.4-2.7-1.3-.7-.9-1-2.1-1-3.6s.3-2.7 1-3.6c.7-.9 1.6-1.3 2.7-1.3.6 0 1.2.2 1.6.4.4.3.8.6 1 1.2v-1.3h1.6z" style="-inkscape-font-specification:DejaVu Sans Mono" font-size="17.64" opacity=".65" stroke-linecap="round" stroke-linejoin="round" font-family="DejaVu Sans Mono"/>
  <path stroke="#fff" stroke-width="2.94" d="M33.4 61.02c.2-.4.44-.72.74-.92.3-.2.67-.3 1.1-.3.77 0 1.3.3 1.63.9.32.6.48 1.74.48 3.4v5.58H35.9v-5.52c0-1.36-.07-2.2-.22-2.53-.16-.33-.43-.5-.84-.5-.45 0-.77.18-.94.53-.17.35-.25 1.2-.25 2.5v5.52H32.2v-5.52c0-1.37-.08-2.22-.24-2.55-.17-.3-.46-.4-.9-.4-.4 0-.7.2-.86.6-.17.4-.25 1.2-.25 2.5v5.5H28.5v-9.7h1.45v.8c.2-.3.43-.6.7-.8.3-.2.62-.3.98-.3.44 0 .8.1 1.1.3.28.2.5.5.67 1zm13.92 8.18c-.42.24-.86.42-1.3.55-.46.12-.92.18-1.4.18-1.48 0-2.65-.44-3.5-1.34-.83-.9-1.25-2.2-1.25-3.8 0-1.6.42-2.9 1.26-3.7.84-.9 2-1.4 3.5-1.4.46 0 .92 0 1.36.2.4.1.8.3 1.3.5V62c-.4-.35-.9-.6-1.3-.8-.4-.16-.9-.24-1.5-.24-1 0-1.8.32-2.3.96-.6.63-.8 1.55-.8 2.74 0 1.2.2 2.1.8 2.75.5.7 1.3 1 2.3 1 .5 0 1-.1 1.5-.2.4-.2.8-.4 1.2-.8zm6.98-3c0 .7.13 1.24.4 1.6.25.36.64.54 1.15.54h1.85v1.34h-2c-.95 0-1.7-.3-2.2-.9-.53-.62-.8-1.48-.8-2.6v-8.75h-2.53V56.2h4.13zm7.3-6.16h4.07v8.4h3.14v1.24H61v-1.23h3.14v-7.18h-2.5zm2.48-3.76h1.6v2h-1.6zm13.84 8.6c0-1.24-.2-2.17-.58-2.8-.4-.63-.97-.94-1.73-.94s-1.3.3-1.7.94c-.4.62-.6 1.55-.6 2.77s.2 2.14.6 2.77c.4.63 1 .95 1.8.95s1.4-.32 1.8-.95c.4-.62.6-1.55.6-2.78zm-4.66-3.6c.26-.48.6-.84 1.05-1.1.5-.25 1-.37 1.6-.37 1.2 0 2.1.5 2.8 1.4.7.9 1 2.2 1 3.7 0 1.6-.3 2.9-1 3.8-.6.9-1.6 1.4-2.7 1.4-.6 0-1.1-.1-1.5-.3-.4-.2-.8-.6-1-1.1V70h-1.6V56.3h1.6zm17.3.75c-.33-.27-.67-.46-1.02-.58-.35-.12-.73-.18-1.15-.18-1 0-1.8.3-2.3.93-.5.62-.8 1.52-.8 2.7v4.78h-1.6v-9.64h1.6v1.88c.2-.68.6-1.2 1.2-1.57.5-.36 1.2-.54 1.9-.54.4 0 .7.1 1.1.2.3.1.6.3.9.5zm10.24 2.43v.78h-6.85v.05c0 1 .27 1.8.82 2.4.55.5 1.32.8 2.32.8.5 0 1-.1 1.5-.3s1.1-.4 1.7-.8V69c-.6.25-1.2.43-1.8.56-.6.1-1.1.2-1.7.2-1.5 0-2.7-.48-3.5-1.37-.9-.9-1.3-2.2-1.3-3.8 0-1.5.4-2.8 1.2-3.7.8-.9 1.9-1.4 3.3-1.4 1.2 0 2.2.4 2.9 1.2.7.84 1.03 2 1.03 3.4zM99.24 64c-.02-.93-.24-1.64-.66-2.12-.42-.5-1-.73-1.8-.73-.76 0-1.4.25-1.88.76-.5.5-.8 1.2-.9 2.1zm6.82 3.06h2.17v2.62h-2.17zm11.7-5.9c-.8 0-1.4.3-1.82.93-.42.6-.62 1.5-.62 2.7 0 1.2.2 2.1.62 2.8.4.6 1.02.9 1.82.9s1.42-.3 1.84-1c.4-.7.62-1.6.62-2.8 0-1.3-.2-2.2-.62-2.8-.42-.7-1.03-1-1.84-1zm0-1.35c1.34 0 2.36.5 3.07 1.3.7.9 1.07 2.2 1.07 3.8 0 1.7-.36 2.9-1.06 3.8-.7.9-1.73 1.3-3.08 1.3-1.34 0-2.36-.4-3.06-1.3-.7-.8-1.06-2.1-1.06-3.7s.35-2.9 1.06-3.7c.7-.8 1.72-1.3 3.06-1.3zM133 62.1c-.32-.27-.67-.46-1.02-.58-.35-.13-.73-.2-1.15-.2-1 0-1.75.3-2.27.93-.52.63-.78 1.53-.78 2.7v4.8h-1.6V60.1h1.6v1.88c.26-.68.67-1.2 1.22-1.57.54-.3 1.2-.5 1.95-.5.4 0 .75.1 1.1.2.33.1.65.3.96.5zm8.07 2.75c0-1.2-.2-2.1-.6-2.7-.37-.62-.94-.93-1.68-.93-.8 0-1.4.3-1.8.9-.4.6-.6 1.5-.6 2.7 0 1.2.2 2.1.6 2.73.4.64 1 .95 1.8.95.7 0 1.3-.3 1.6-.93.4-.62.6-1.52.6-2.7zm1.58 4.28c0 1.46-.34 2.56-1.02 3.3-.7.75-1.7 1.1-3.02 1.1-.4 0-.8-.02-1.3-.1-.4-.1-.9-.2-1.4-.35V71.5c.6.26 1.1.45 1.6.6.5.1.9.17 1.3.17.9 0 1.5-.22 1.9-.7.4-.45.6-1.2.6-2.2V68.2c-.2.54-.6.94-1 1.2-.4.27-1 .4-1.6.4-1.1 0-2-.45-2.7-1.35-.7-.9-1-2.1-1-3.62 0-1.5.3-2.7 1-3.6.7-.9 1.6-1.36 2.7-1.36.6 0 1.2.14 1.6.4.4.23.8.6 1 1.13v-1.3h1.6z" style="text-align:start;-inkscape-font-specification:DejaVu Sans Mono" font-size="17.64" stroke-linecap="round" stroke-linejoin="round" font-family="DejaVu Sans Mono"/>
  <path d="M33.4 60.48c.2-.42.44-.72.74-.92.3-.2.67-.3 1.1-.3.77 0 1.3.3 1.63.9.32.6.48 1.73.48 3.4v5.58H35.9v-5.52c0-1.36-.07-2.2-.22-2.54-.16-.33-.43-.5-.84-.5-.45 0-.77.18-.94.54-.17.35-.25 1.18-.25 2.5v5.52H32.2v-5.52c0-1.38-.08-2.23-.24-2.55-.17-.32-.46-.48-.9-.48-.4 0-.7.1-.86.5-.17.3-.25 1.2-.25 2.5v5.5H28.5v-9.6h1.45v.8c.2-.4.43-.6.7-.8.3-.2.62-.3.98-.3.44 0 .8.1 1.1.3.28.2.5.5.67.9zm13.92 8.17c-.42.25-.86.43-1.3.55-.46.13-.92.2-1.4.2-1.48 0-2.65-.46-3.5-1.35-.83-.9-1.25-2.14-1.25-3.72 0-1.6.42-2.83 1.26-3.73.84-.9 2-1.34 3.5-1.34.46 0 .92.06 1.36.18.4.12.8.3 1.3.56v1.66c-.4-.37-.9-.64-1.3-.8-.4-.17-.9-.26-1.5-.26-1 0-1.8.33-2.3.97-.6.64-.8 1.56-.8 2.76 0 1.18.2 2.1.8 2.75.5.64 1.3.97 2.3.97.5 0 1-.1 1.5-.26.4-.2.8-.5 1.2-.8zm6.98-3c0 .7.13 1.24.4 1.6.25.36.64.55 1.15.55h1.85v1.34h-2c-.95 0-1.7-.3-2.2-.9-.53-.62-.8-1.48-.8-2.6v-8.76h-2.53v-1.24h4.13zm7.3-6.15h4.07v8.4h3.14v1.24H61V67.9h3.14v-7.17h-2.5zm2.48-3.76h1.6v2h-1.6zm13.84 8.6c0-1.24-.2-2.17-.58-2.8-.4-.6-.97-.94-1.73-.94s-1.3.32-1.7.95c-.4.63-.6 1.55-.6 2.78 0 1.2.2 2.14.6 2.77.4.63 1 .95 1.8.95s1.4-.32 1.8-.94c.4-.6.6-1.5.6-2.7zm-4.66-3.6c.26-.5.6-.85 1.05-1.1.5-.25 1-.38 1.6-.38 1.2 0 2.1.45 2.8 1.34.7.9 1 2.12 1 3.7s-.3 2.83-1 3.73c-.6.9-1.6 1.36-2.7 1.36-.6 0-1.1-.2-1.5-.4-.4-.3-.8-.6-1-1.1v1.2h-1.6V55.7h1.6zm17.3.74c-.33-.26-.67-.45-1.02-.57-.35-.1-.73-.1-1.15-.1-1 0-1.8.3-2.3 1-.5.6-.8 1.5-.8 2.7v4.8h-1.6v-9.7h1.6v1.9c.2-.7.6-1.2 1.2-1.6.5-.3 1.2-.5 1.9-.5.4 0 .7.1 1.1.2.3.1.6.3.9.5zm10.24 2.44v.78h-6.85v.05c0 1.05.27 1.86.82 2.43.55.58 1.32.87 2.32.87.5 0 1-.08 1.5-.25.5-.16 1.1-.4 1.7-.73v1.58c-.6.25-1.2.43-1.8.55-.6.13-1.1.2-1.7.2-1.5 0-2.7-.46-3.5-1.36-.9-.9-1.3-2.14-1.3-3.7 0-1.55.4-2.78 1.2-3.7.8-.92 1.9-1.38 3.3-1.38 1.2 0 2.2.42 2.9 1.25.7.9 1.03 2 1.03 3.5zm-1.57-.46c-.02-.93-.24-1.64-.66-2.13-.42-.48-1-.73-1.8-.73-.76 0-1.4.26-1.88.76-.5.5-.8 1.2-.9 2.1zm6.83 3.04h2.17v2.64h-2.17zm11.7-5.9c-.8 0-1.4.32-1.82.94-.42.63-.62 1.56-.62 2.8 0 1.2.2 2.13.62 2.76.4.63 1.02.95 1.82.95s1.42-.32 1.84-.95c.4-.63.62-1.55.62-2.77 0-1.23-.2-2.16-.62-2.8-.42-.6-1.03-.93-1.84-.93zm0-1.34c1.34 0 2.36.43 3.07 1.3.7.87 1.07 2.12 1.07 3.77 0 1.64-.36 2.9-1.06 3.76-.7.8-1.73 1.3-3.08 1.3-1.34 0-2.36-.5-3.06-1.3-.7-.9-1.06-2.2-1.06-3.8 0-1.7.35-2.9 1.06-3.8.7-.9 1.72-1.3 3.06-1.3zM133 61.48c-.32-.26-.67-.45-1.02-.57-.35-.1-.73-.1-1.15-.1-1 0-1.75.3-2.27 1-.52.6-.78 1.5-.78 2.7v4.8h-1.6v-9.7h1.6v1.9c.26-.7.67-1.2 1.22-1.6.54-.3 1.2-.5 1.95-.5.4 0 .75.1 1.1.2.33.1.65.3.96.5zm8.07 2.76c0-1.2-.2-2.1-.6-2.7-.37-.63-.94-.94-1.68-.94-.8 0-1.4.3-1.8.93-.4.62-.6 1.52-.6 2.7 0 1.2.2 2.1.6 2.73.4.62 1 .93 1.8.93.7 0 1.3-.4 1.6-1 .4-.6.6-1.6.6-2.7zm1.58 4.28c0 1.45-.34 2.54-1.02 3.3-.7.74-1.7 1.1-3.02 1.1-.4 0-.8-.03-1.3-.1-.4-.1-.9-.2-1.4-.37V70.9c.6.25 1.1.45 1.6.57.5.13.9.2 1.3.2.9 0 1.5-.24 1.9-.7.4-.47.6-1.2.6-2.22V67.6c-.2.55-.6.95-1 1.2-.4.28-1 .4-1.6.4-1.1 0-2-.44-2.7-1.34-.7-.9-1-2.1-1-3.62s.3-2.73 1-3.63c.7-.9 1.6-1.3 2.7-1.3.6 0 1.2.1 1.6.4.4.3.8.7 1 1.2v-1.3h1.6z" style="-inkscape-font-specification:DejaVu Sans Mono" font-size="17.64" font-family="DejaVu Sans Mono"/>
</svg>
