<?xml version="1.0" encoding="UTF-8" standalone="no"?>
<!DOCTYPE svg PUBLIC "-//W3C//DTD SVG 1.1//EN" "http://www.w3.org/Graphics/SVG/1.1/DTD/svg11.dtd">
<svg xmlns="http://www.w3.org/2000/svg" width="55" height="48" viewBox="0 0 55 48">
  <path fill="red" d="M.23 47.15c.3.53.86.85 1.46.85h51.5c.6 0 1.15-.32 1.46-.85.3-.52.3-1.16 0-1.7L28.92.85c-.3-.52-.86-.84-1.47-.84-.6 0-1.16.34-1.46.87L.2 45.47c-.3.52-.3 1.16 0 1.7z"/>
  <path fill="white" d="M47.35 42.93L27.45 8.46 7.55 42.93"/>
  <path d="M29.5 38.07c0-1.12-.9-2.02-2.05-2.02-1.1 0-2.03.9-2.03 2.02 0 1.15.92 2.07 2.03 2.07 1.14 0 2.05-.92 2.05-2.07m-3.3-4.6l-.8-14.7c-.08-1.2.86-2.18 2.03-2.18 1.15 0 2.06.9 2.06 2.02v.13l-.84 14.7c-.02.3-.14.6-.34.85-.25.25-.57.4-.9.4-.33 0-.67-.15-.9-.4-.2-.24-.3-.52-.35-.85"/>
</svg>
