<?xml version="1.0" encoding="UTF-8" standalone="no"?>
<!DOCTYPE svg PUBLIC "-//W3C//DTD SVG 1.1//EN" "http://www.w3.org/Graphics/SVG/1.1/DTD/svg11.dtd">
<svg xmlns="http://www.w3.org/2000/svg" width="120" height="42" viewBox="0 0 120 42">
  <path fill="#aab2ab" d="M3.4.48l113.36.2c1.6 0 3-.24 3 3.16l-.14 37.33H.55V3.7C.55 2.03.7.48 3.4.48z"/>
  <path fill="#fff" d="M34.52 19.58c0 7.52-6.1 13.63-13.62 13.64-7.53 0-13.64-6.1-13.65-13.63v-.1c0-7.5 6.1-13.6 13.63-13.6 7.53 0 13.64 6.1 13.64 13.6z"/>
  <path d="M31.97 8.47C35 11.5 36.5 15.2 36.5 19.57c0 4.4-1.48 8.05-4.45 11-3.15 3.1-6.88 4.65-11.18 4.65-4.25 0-7.9-1.54-11-4.62-3.06-3.07-4.6-6.75-4.6-11.02 0-4.28 1.54-7.98 4.6-11.1 3-3.03 6.67-4.55 11-4.55 4.38 0 8.08 1.52 11.1 4.54zM11.92 10.5c-2.56 2.6-3.84 5.6-3.84 9.08 0 3.47 1.27 6.47 3.8 9 2.53 2.52 5.54 3.8 9.03 3.8 3.5 0 6.6-1.3 9.2-3.84 2.5-2.38 3.7-5.36 3.7-8.96 0-3.57-1.2-6.6-3.7-9.1s-5.5-3.73-9-3.73-6.5 1.25-9 3.75zm6.72 7.55c-.4-.85-.97-1.27-1.75-1.27-1.4 0-2.1.92-2.1 2.78 0 1.86.7 2.78 2 2.78.9 0 1.5-.45 1.9-1.35l1.9 1c-.9 1.6-2.3 2.4-4.1 2.4-1.4 0-2.5-.5-3.4-1.3-.8-.8-1.3-2-1.3-3.5s.4-2.7 1.3-3.6c.9-.9 1.9-1.3 3.2-1.3 1.9 0 3.3.7 4.1 2.2l-2 1zm9 0c-.4-.85-.97-1.27-1.73-1.27-1.4 0-2.1.92-2.1 2.78 0 1.86.7 2.78 2.1 2.78 1 0 1.6-.45 2-1.35l2 1c-.9 1.6-2.2 2.4-4.1 2.4-1.4 0-2.5-.5-3.3-1.3-.8-.9-1.2-2.1-1.2-3.6s.5-2.7 1.3-3.6c.9-.9 2-1.3 3.3-1.3 2 0 3.3.7 4.2 2.2L27.7 18z"/>
  <path d="M117.75 0H2.25C1 0 0 1 0 2.25V41.5c0 .27.23.5.5.5h119c.27 0 .5-.23.5-.5V2.24C120 1 119 0 117.75 0zM2.25 1.02h115.5c.68 0 1.23.55 1.23 1.23V29.5H36.43c-3.03 5.46-8.86 9.18-15.55 9.18-6.7 0-12.52-3.7-15.54-9.2H1V2.26c0-.68.57-1.23 1.25-1.23z"/>
  <path fill="#fff" d="M86.26 37.73c.08.16.2.28.32.38l.47.3c.18.1.36.1.56.1h.5s.3 0 .4-.1.3-.1.3-.2c.1-.1.2-.2.2-.4s0-.3-.1-.4c-.1-.1-.2-.2-.4-.2-.1 0-.4-.1-.6-.2-.2 0-.5-.1-.7-.2-.2 0-.5-.1-.7-.2l-.6-.3c-.2-.12-.3-.3-.4-.5-.1-.2-.2-.5-.2-.8 0-.34.1-.64.2-.9.2-.24.4-.45.6-.6.2-.2.5-.3.8-.4.3-.1.6-.14.9-.14.3 0 .7 0 1 .1.3.07.6.2.8.37.3.18.5.4.6.67.2.24.2.6.2 1H89c0-.2-.05-.4-.1-.5-.1-.1-.18-.2-.3-.3-.1-.1-.26-.17-.4-.2l-.5-.03c-.1 0-.24 0-.35.07-.15.05-.26.1-.35.15-.1.1-.2.12-.27.22s-.1.2-.1.36c0 .13 0 .23.06.3 0 .1.1.2.3.24.1.1.3.17.6.2.2.1.6.2 1 .3l.5.15c.2.1.4.2.6.35.2.13.4.3.6.56.2.24.2.54.2.9 0 .3-.06.6-.2.86-.1.28-.3.5-.5.7-.2.2-.5.3-.85.43-.34.1-.74.1-1.2.1-.35 0-.7-.07-1.05-.16-.32-.1-.63-.23-.9-.42-.22-.2-.43-.4-.6-.7-.15-.3-.23-.66-.22-1.07h1.4c0 .2.06.4.1.5zm8.2-4.98l2.5 6.62h-1.53l-.5-1.48h-2.47l-.52 1.4h-1.47l2.5-6.6h1.5zm.1 4.06l-.84-2.4h-.02l-.86 2.5h1.7zM60 32.8c.3 0 .6.03.86.08.26.06.48.15.67.27.2.14.33.3.43.5.1.23.16.5.16.8 0 .33-.08.6-.23.83-.2.23-.4.4-.7.55.4.13.7.33.9.63.2.26.3.6.3 1.03 0 .3-.1.6-.2.8s-.3.4-.5.6c-.2.1-.5.2-.8.3-.3 0-.6.1-.9.1h-3.2v-6.6H60zm-.2 2.68c.27 0 .48-.07.65-.2.17-.1.25-.3.25-.6 0-.14-.03-.27-.08-.37-.06-.1-.13-.2-.22-.2-.1 0-.2-.1-.32-.1h-1.75v1.6h1.48zm.1 2.8c.14 0 .27 0 .4-.04s.25-.1.35-.15c.1-.1.18-.2.24-.3v-.5c0-.4-.1-.6-.3-.7-.2-.2-.5-.2-.8-.2h-1.6v1.8h1.5zm2.8-5.48h1.62l1.55 2.6 1.55-2.6h1.62l-2.46 4.08v2.54h-1.46v-2.6l-2.43-4.05zM102.4 15c0 5.84-4.73 10.6-10.57 10.6-5.85 0-10.6-4.75-10.6-10.6S85.96 4.4 91.8 4.4c5.9 0 10.6 4.73 10.6 10.6z"/>
  <path d="M91.74 3.4c-3.2 0-5.93 1.1-8.15 3.35-2.3 2.32-3.5 5.06-3.5 8.23 0 3.17 1.1 5.9 3.4 8.18 2.2 2.28 5 3.42 8.1 3.42 3.2 0 5.9-1.15 8.3-3.45 2.2-2.2 3.3-4.9 3.3-8.15s-1.1-6-3.4-8.23C97.7 4.5 95 3.4 91.7 3.4zm.03 2.07c2.63 0 4.87.93 6.7 2.8 1.86 1.82 2.8 4.06 2.8 6.7 0 2.68-.92 4.9-2.74 6.65-1.9 1.9-4.17 2.84-6.76 2.84-2.6 0-4.83-.94-6.7-2.8-1.88-1.9-2.82-4.1-2.82-6.68 0-2.57.95-4.8 2.85-6.72 1.8-1.86 4.04-2.8 6.67-2.8z"/>
  <path d="M86.6 13.34c.46-2.9 2.52-4.47 5.1-4.47 3.7 0 5.95 2.68 5.95 6.27 0 3.5-2.4 6.2-6.02 6.2-2.48 0-4.7-1.53-5.1-4.53h2.9c.1 1.6 1.1 2.2 2.55 2.2 1.65 0 2.72-1.5 2.72-3.8 0-2.4-.92-3.7-2.66-3.7-1.27 0-2.37.5-2.6 2.1h.85L88 15.7l-2.3-2.3h.9z"/>
  <g transform="matrix(.99378 0 0 .99367 -177.694 -74.436)">
    <circle cx="242.56" cy="90.22" r="10.81" fill="#fff"/>
    <path d="M245.7 87.1c0-.42-.35-.76-.76-.76h-4.78c-.4 0-.75.34-.75.76v4.77h1.4v5.65h3.6v-5.65h1.4V87.1z"/>
    <circle cx="242.55" cy="84.08" r="1.63"/>
    <path fill-rule="evenodd" d="M242.53 78.32c-3.23 0-5.96 1.13-8.2 3.38-2.3 2.34-3.45 5.1-3.45 8.3 0 3.18 1.15 5.92 3.45 8.2 2.3 2.3 5.03 3.46 8.2 3.46 3.22 0 6-1.16 8.36-3.48 2.2-2.2 3.3-4.93 3.3-8.2 0-3.26-1.2-6.02-3.4-8.28-2.3-2.25-5-3.38-8.3-3.38zm.03 2.1c2.65 0 4.9.93 6.75 2.8 1.9 1.85 2.9 4.1 2.9 6.77s-.9 4.9-2.7 6.6c-1.9 1.9-4.2 2.8-6.8 2.8-2.6 0-4.8-1-6.7-2.9-1.9-1.9-2.8-4.2-2.8-6.7 0-2.6 1-4.9 2.9-6.8 1.9-1.9 4.1-2.8 6.7-2.8z" clip-rule="evenodd"/>
  </g>
</svg>
